<svg width="421" height="442" viewBox="0 0 421 442" fill="none" xmlns="http://www.w3.org/2000/svg">
<path opacity="0.07" d="M141.696 326.115C141.696 326.115 73.0015 217.593 73.0015 142.936C73.0015 90.2017 103.751 29.7781 141.696 7.91001C179.642 -13.9581 210.391 11.073 210.391 63.8073C210.391 137.81 141.696 326.115 141.696 326.115ZM141.696 60.917C124.959 70.5695 111.383 97.1275 111.383 120.304C111.383 143.481 124.959 154.388 141.696 144.736C158.434 135.083 172.009 108.525 172.009 85.3481C172.009 62.2258 158.434 51.2645 141.696 60.917Z" fill="url(#paint0_linear_92_9431)"/>
<path opacity="0.4" d="M163.504 342.475C163.504 342.475 94.8094 233.952 94.8094 159.295C94.8094 106.561 125.558 46.1375 163.504 24.2694C201.45 2.40129 232.199 27.4324 232.199 80.1666C232.199 154.169 163.504 342.475 163.504 342.475ZM163.504 77.2763C146.767 86.9288 133.191 113.487 133.191 136.664C133.191 159.841 146.767 170.747 163.504 161.095C180.242 151.442 193.817 124.884 193.817 101.708C193.817 78.5306 180.242 67.6238 163.504 77.2763Z" fill="url(#paint1_linear_92_9431)"/>
<path opacity="0.3" d="M303.347 192.125L201.45 250.967V439.818L303.347 380.976V192.125Z" fill="url(#paint2_linear_92_9431)"/>
<path opacity="0.15" d="M287.155 312.209L226.474 347.274V354.691L287.209 319.626L287.155 312.209Z" fill="white"/>
<path opacity="0.15" d="M280.885 330.588L232.744 358.346V365.762L280.885 338.004V330.588Z" fill="white"/>
<path d="M264.42 364.18L335.295 323.225V344.329L264.42 385.284V364.18Z" fill="#F2C94C"/>
<path opacity="0.15" d="M253.189 254.131L274.397 241.861V234.717L253.189 246.987C251.444 247.969 248.936 250.041 246.81 253.149C244.52 256.476 242.83 260.675 242.83 265.256C242.83 270.273 244.139 273.163 246.538 273.981C248.827 274.745 251.553 273.436 253.189 272.454L261.912 267.437L261.967 267.383C262.73 266.946 263.929 266.51 264.856 266.783C265.619 267.001 266.492 267.764 266.492 270.6C266.492 273.381 265.619 275.126 264.911 276.163C263.984 277.417 262.839 278.344 262.076 278.726L261.967 278.78L235.252 294.213V301.357L261.749 286.033C263.548 285.106 266.219 283.088 268.454 279.871C270.962 276.381 272.652 271.963 272.652 267.001C272.652 262.093 270.962 259.584 268.509 258.875C266.219 258.221 263.602 259.148 261.803 260.293L253.189 265.31C251.935 266.019 251.008 266.346 250.354 266.128C249.863 265.965 248.991 265.31 248.991 261.657C248.991 259.312 249.754 257.785 250.463 256.748C251.335 255.494 252.48 254.567 253.189 254.131Z" fill="white"/>
<path d="M266.873 243.877C266.873 250.912 271.017 254.239 276.087 251.349C281.158 248.404 285.301 240.333 285.301 233.243C285.301 226.209 281.158 222.882 276.087 225.772C270.962 228.717 266.873 236.843 266.873 243.877Z" fill="#F2C94C"/>
<path d="M221.622 306.047C221.622 313.082 225.766 316.409 230.836 313.519C235.906 310.574 240.05 302.503 240.05 295.413C240.05 288.378 235.906 285.052 230.836 287.942C225.711 290.887 221.622 299.013 221.622 306.047Z" fill="#F2C94C"/>
<path opacity="0.3" d="M241.521 113.76L403.717 20.0703L403.663 104.652L255.751 190.052L241.412 211.266L241.521 113.76Z" fill="url(#paint3_linear_92_9431)"/>
<path d="M421 53.0642V30.1055L359.774 65.4434V88.4022L421 53.0642Z" fill="#F2994A"/>
<path opacity="0.15" d="M283.175 110.27L318.721 89.7109V97.1276L283.175 117.632V110.27Z" fill="white"/>
<path opacity="0.15" d="M283.175 125.103L351.706 85.5664V92.983L283.175 132.575V125.103Z" fill="white"/>
<path opacity="0.15" d="M283.174 139.992L366.208 92.0566V99.4732L283.174 147.463V139.992Z" fill="white"/>
<path d="M274.451 123.031C274.451 130.011 270.308 138.028 265.238 140.973C260.167 143.918 256.024 140.646 256.024 133.665C256.024 126.685 260.167 118.668 265.238 115.724C270.308 112.833 274.451 116.105 274.451 123.031Z" fill="#F2994A"/>
<path opacity="0.3" d="M176.262 263.729L14.0116 357.418L13.957 442L161.869 356.545L176.153 361.235L176.262 263.729Z" fill="url(#paint4_linear_92_9431)"/>
<path d="M61.2256 372.306V349.348L5.72205e-05 384.686V407.644L61.2256 372.306Z" fill="#F2994A"/>
<path opacity="0.15" d="M134.5 308.393L98.9527 328.897V336.314L134.5 315.809V308.393Z" fill="white"/>
<path opacity="0.15" d="M134.5 323.279L70.3299 360.308V367.724L134.5 330.696V323.279Z" fill="white"/>
<path opacity="0.15" d="M134.5 338.113L51.4662 386.049V393.465L134.5 345.53V338.113Z" fill="white"/>
<path d="M143.277 311.065C143.277 318.045 147.421 321.317 152.491 318.372C157.562 315.428 161.705 307.411 161.705 300.431C161.705 293.45 157.562 290.178 152.491 293.123C147.366 296.068 143.277 304.139 143.277 311.065Z" fill="#F2994A"/>
<path opacity="0.2" d="M354.159 251.131C391.014 203.795 364.354 186.781 354.159 214.484C343.964 198.614 317.304 246.386 354.159 251.131Z" fill="url(#paint5_linear_92_9431)"/>
<path opacity="0.2" d="M20.281 284.997L39.6354 300.648C41.7072 302.339 45.469 300.594 47.9224 296.722C50.4303 292.85 50.7574 288.378 48.6857 286.687L40.5622 280.143L71.5294 262.256C74.8005 260.348 77.4175 255.821 77.4175 252.058C77.4175 248.296 74.8005 246.769 71.5294 248.623L40.5622 266.51L48.7402 250.531C50.8119 246.441 50.4848 242.351 47.9769 241.37C45.469 240.388 41.7617 242.951 39.6899 247.041L20.281 284.997Z" fill="url(#paint6_linear_92_9431)"/>
<defs>
<linearGradient id="paint0_linear_92_9431" x1="20.4027" y1="107.012" x2="211.108" y2="184.407" gradientUnits="userSpaceOnUse">
<stop stop-color="white"/>
<stop offset="1" stop-color="white" stop-opacity="0"/>
</linearGradient>
<linearGradient id="paint1_linear_92_9431" x1="42.2128" y1="123.371" x2="232.919" y2="200.766" gradientUnits="userSpaceOnUse">
<stop stop-color="white"/>
<stop offset="1" stop-color="white" stop-opacity="0"/>
</linearGradient>
<linearGradient id="paint2_linear_92_9431" x1="190.552" y1="208.768" x2="281.041" y2="365.499" gradientUnits="userSpaceOnUse">
<stop stop-color="white"/>
<stop offset="1" stop-color="white" stop-opacity="0"/>
</linearGradient>
<linearGradient id="paint3_linear_92_9431" x1="276.871" y1="79.8782" x2="360.658" y2="145.463" gradientUnits="userSpaceOnUse">
<stop stop-color="white"/>
<stop offset="1" stop-color="white" stop-opacity="0"/>
</linearGradient>
<linearGradient id="paint4_linear_92_9431" x1="106.543" y1="266.457" x2="85.5574" y2="436.618" gradientUnits="userSpaceOnUse">
<stop stop-color="white"/>
<stop offset="1" stop-color="white" stop-opacity="0"/>
</linearGradient>
<linearGradient id="paint5_linear_92_9431" x1="346.403" y1="216.293" x2="373.581" y2="239.818" gradientUnits="userSpaceOnUse">
<stop stop-color="white"/>
<stop offset="1" stop-color="white" stop-opacity="0"/>
</linearGradient>
<linearGradient id="paint6_linear_92_9431" x1="28.6957" y1="281.617" x2="80.9269" y2="246.557" gradientUnits="userSpaceOnUse">
<stop stop-color="white"/>
<stop offset="1" stop-color="white" stop-opacity="0"/>
</linearGradient>
</defs>
</svg>
