<svg width="570" height="670" viewBox="0 0 570 670" fill="none" xmlns="http://www.w3.org/2000/svg">
<path d="M482.536 422.348L419.235 481.362L553.85 481.204L490.39 422.341C489.878 421.864 489.267 421.485 488.592 421.227C487.917 420.968 487.193 420.835 486.461 420.836C485.73 420.837 485.006 420.971 484.331 421.23C483.657 421.49 483.047 421.87 482.536 422.348Z" fill="#4497B7"/>
<path d="M552.694 480.134C551.507 479.155 549.965 478.611 548.365 478.609L424.895 478.757C423.19 478.76 421.555 479.38 420.35 480.482C419.146 481.584 418.469 483.078 418.468 484.635L418.557 547.171C418.558 547.417 418.611 547.661 418.715 547.888C418.818 548.115 418.97 548.322 419.161 548.495C419.352 548.669 419.579 548.807 419.828 548.9C420.077 548.994 420.345 549.042 420.614 549.041L552.854 548.884C553.397 548.883 553.918 548.686 554.302 548.335C554.685 547.984 554.901 547.509 554.901 547.013L554.811 484.479C554.808 483.661 554.618 482.851 554.254 482.103C553.889 481.355 553.358 480.685 552.694 480.134Z" fill="#5CCFFE"/>
<path d="M424.895 478.754C423.297 478.761 421.758 479.307 420.572 480.286L472.744 518.164C476.714 521.033 481.631 522.591 486.694 522.585C491.757 522.578 496.669 521.008 500.631 518.13L552.691 480.135C551.506 479.158 549.967 478.617 548.371 478.615L424.895 478.754Z" fill="#4497B7"/>
<path d="M534.881 440.672L438.274 440.786C437.763 440.786 437.257 440.878 436.785 441.057C436.314 441.236 435.885 441.498 435.524 441.829C435.163 442.159 434.877 442.551 434.683 442.982C434.488 443.413 434.388 443.876 434.388 444.342L434.452 490.376L472.744 518.167C476.714 521.036 481.631 522.594 486.694 522.588C491.757 522.582 496.669 521.012 500.631 518.133L538.848 490.255L538.775 444.22C538.773 443.278 538.362 442.376 537.632 441.711C536.902 441.046 535.913 440.672 534.881 440.672Z" fill="white"/>
<path d="M81.9539 387.801C112.833 383.17 133.754 356.558 128.682 328.362C123.609 300.166 94.4652 281.063 63.586 285.694C32.7069 290.326 11.7862 316.938 16.8584 345.134C21.9305 373.33 51.0748 392.433 81.9539 387.801Z" fill="#2B1BED"/>
<path d="M73.9441 321.588C73.6591 311.197 40.4452 305.151 40.5849 328.301C40.6932 346.43 72.7699 361.135 72.7699 361.135C72.7699 361.135 104.924 346.436 104.954 328.301C104.988 306.612 73.6544 311.197 73.9441 321.588Z" fill="white"/>
<path d="M490.022 28.3848C480.805 28.3845 471.678 30.0421 463.162 33.2628C454.647 36.4834 446.909 41.2042 440.392 47.1554C433.874 53.1066 428.704 60.1718 425.177 67.9475C421.65 75.7232 419.835 84.0571 419.835 92.4734C419.835 100.89 421.651 109.223 425.178 116.999C428.705 124.774 433.875 131.839 440.393 137.79C446.91 143.741 454.648 148.462 463.163 151.682C471.678 154.902 480.805 156.56 490.022 156.559C499.239 156.559 508.365 154.902 516.88 151.681C525.395 148.461 533.132 143.74 539.649 137.789C546.167 131.838 551.336 124.773 554.863 116.998C558.39 109.223 560.205 100.889 560.205 92.4734C560.206 84.0574 558.391 75.7237 554.864 67.9482C551.337 60.1726 546.167 53.1076 539.65 47.1564C533.133 41.2052 525.396 36.4844 516.881 33.2635C508.366 30.0427 499.239 28.3849 490.022 28.3848Z" fill="#F5C825"/>
<path d="M166.967 59.9121H403.037C414.266 59.9121 425.035 63.9852 432.975 71.2354C440.915 78.4855 445.375 88.3188 445.375 98.5721V630.41C445.375 640.664 440.915 650.497 432.975 657.747C425.035 664.997 414.266 669.07 403.037 669.07H166.966C161.405 669.07 155.899 668.07 150.762 666.127C145.625 664.184 140.957 661.336 137.026 657.746C133.094 654.155 129.976 649.893 127.848 645.202C125.721 640.511 124.626 635.483 124.627 630.406V98.5738C124.627 88.3201 129.088 78.4863 137.028 71.2359C144.969 63.9854 155.738 59.9121 166.967 59.9121V59.9121Z" fill="#181F79"/>
<path d="M423.378 89.3347H146.622C144.116 89.306 141.698 90.1789 139.891 91.7648C138.084 93.3506 137.033 95.522 136.964 97.8097C136.964 97.8531 136.964 97.8965 136.964 97.9425V629.343C136.964 632.852 137.721 636.326 139.192 639.568C140.663 642.81 142.819 645.756 145.537 648.237C148.254 650.718 151.48 652.686 155.031 654.028C158.582 655.37 162.387 656.061 166.23 656.06H402.582C410.652 656.039 418.384 653.102 424.091 647.892C429.798 642.682 433.014 635.621 433.039 628.252V97.9381C433.039 97.9095 433.039 97.8791 433.039 97.8514C432.979 95.5568 431.932 93.3759 430.124 91.7817C428.315 90.1875 425.892 89.3082 423.378 89.3347Z" fill="white"/>
<path d="M421.639 227.129H148.364V472.449H421.639V227.129Z" fill="#5342F2"/>
<path d="M421.639 549.049H148.364V568.485H421.639V549.049Z" fill="#FE8046"/>
<path d="M445.375 192.957V270.197C447.038 270.195 448.633 269.591 449.81 268.517C450.986 267.443 451.648 265.986 451.65 264.467V198.685C451.648 197.166 450.986 195.71 449.809 194.636C448.633 193.563 447.038 192.959 445.375 192.957Z" fill="#181F79"/>
<path d="M118.35 301.186V366.965C118.353 368.484 119.016 369.939 120.192 371.013C121.369 372.086 122.963 372.689 124.626 372.691V295.453C122.962 295.455 121.366 296.06 120.19 297.134C119.013 298.209 118.352 299.666 118.35 301.186Z" fill="#181F79"/>
<path d="M118.35 202.43V268.211C118.352 269.73 119.014 271.187 120.191 272.261C121.367 273.335 122.962 273.94 124.626 273.941V196.701C122.963 196.703 121.368 197.307 120.191 198.381C119.015 199.455 118.353 200.911 118.35 202.43Z" fill="#181F79"/>
<path d="M118.35 136.613V151.397C118.353 152.916 119.015 154.372 120.191 155.446C121.368 156.52 122.963 157.125 124.626 157.127V130.885C122.963 130.886 121.368 131.49 120.191 132.564C119.015 133.638 118.353 135.094 118.35 136.613Z" fill="#181F79"/>
<path d="M413.611 104.211H411.159V109.312H413.611V104.211Z" fill="#5342F2"/>
<path d="M416.77 104.211H414.315V109.312H416.77V104.211Z" fill="#5342F2"/>
<path d="M419.926 104.211H417.474V109.312H419.926V104.211Z" fill="#5342F2"/>
<path d="M423.085 104.211H420.633V109.312H423.085V104.211Z" fill="#5342F2"/>
<path d="M425.017 105.213H423.79V108.311H425.017V105.213Z" fill="#5342F2"/>
<path d="M396.207 108.572C395.894 108.572 395.593 108.686 395.372 108.888C395.15 109.09 395.026 109.364 395.026 109.65C395.026 109.935 395.15 110.209 395.372 110.412C395.593 110.614 395.894 110.727 396.207 110.727C396.519 110.727 396.819 110.613 397.04 110.411C397.261 110.209 397.385 109.936 397.385 109.651C397.385 109.365 397.261 109.091 397.04 108.889C396.819 108.687 396.519 108.573 396.207 108.572Z" fill="#5342F2"/>
<path d="M396.206 105.625C395.108 105.624 394.037 105.933 393.139 106.51C393.044 106.572 392.966 106.652 392.909 106.745C392.851 106.837 392.817 106.94 392.808 107.046C392.799 107.152 392.815 107.259 392.856 107.358C392.897 107.458 392.961 107.548 393.044 107.623C393.175 107.744 393.349 107.819 393.535 107.835C393.721 107.851 393.907 107.806 394.06 107.71C394.689 107.306 395.438 107.09 396.206 107.09C396.975 107.09 397.725 107.306 398.354 107.71C398.508 107.806 398.694 107.851 398.88 107.835C399.066 107.819 399.239 107.744 399.371 107.623C399.453 107.548 399.517 107.458 399.557 107.358C399.598 107.259 399.614 107.152 399.605 107.046C399.596 106.94 399.562 106.838 399.505 106.745C399.448 106.652 399.37 106.572 399.276 106.51C398.377 105.933 397.305 105.624 396.206 105.625Z" fill="#5342F2"/>
<path d="M396.206 102.814C394.281 102.813 392.414 103.416 390.918 104.522C390.829 104.587 390.756 104.668 390.704 104.76C390.651 104.852 390.621 104.953 390.614 105.056C390.607 105.16 390.624 105.264 390.664 105.361C390.704 105.458 390.766 105.546 390.845 105.62C390.989 105.749 391.18 105.824 391.381 105.831C391.582 105.838 391.779 105.776 391.933 105.658C393.143 104.765 394.653 104.28 396.208 104.283C397.764 104.281 399.273 104.766 400.483 105.658C400.637 105.776 400.833 105.838 401.034 105.831C401.234 105.824 401.425 105.749 401.568 105.62C401.648 105.546 401.71 105.458 401.75 105.361C401.79 105.264 401.807 105.161 401.801 105.057C401.794 104.954 401.764 104.853 401.712 104.76C401.66 104.668 401.587 104.587 401.499 104.522C400.002 103.416 398.133 102.812 396.206 102.814Z" fill="#5342F2"/>
<path d="M149.056 103.281C147.734 103.281 146.793 104.377 146.793 106.367C146.816 108.333 147.675 109.419 148.942 109.419C150.387 109.419 151.205 108.303 151.205 106.285C151.204 104.394 150.422 103.281 149.056 103.281ZM148.995 108.796C148.196 108.796 147.675 107.922 147.675 106.376C147.675 104.76 148.235 103.901 149.005 103.901C149.914 103.901 150.324 104.862 150.324 106.321C150.324 107.841 149.893 108.796 148.994 108.796H148.995Z" fill="#5342F2"/>
<path d="M155.025 106.159V106.134C155.334 106.027 155.602 105.837 155.792 105.59C155.983 105.342 156.088 105.048 156.094 104.746C156.085 104.533 156.028 104.325 155.926 104.133C155.824 103.941 155.68 103.771 155.502 103.634C155.325 103.496 155.117 103.393 154.894 103.333C154.67 103.272 154.435 103.255 154.204 103.282C153.957 103.258 153.707 103.28 153.469 103.348C153.232 103.415 153.012 103.527 152.824 103.675C152.635 103.823 152.482 104.005 152.373 104.209C152.265 104.413 152.203 104.635 152.192 104.862C152.2 105.153 152.303 105.434 152.487 105.671C152.671 105.908 152.927 106.09 153.225 106.194L153.236 106.222C152.866 106.33 152.542 106.542 152.31 106.827C152.078 107.112 151.95 107.456 151.944 107.811C151.944 108.678 152.765 109.419 154.123 109.419C154.394 109.445 154.668 109.421 154.928 109.348C155.188 109.274 155.429 109.153 155.636 108.991C155.843 108.83 156.012 108.631 156.133 108.408C156.253 108.185 156.322 107.942 156.336 107.694C156.324 107.344 156.191 107.007 155.955 106.731C155.719 106.455 155.394 106.255 155.025 106.159ZM153.024 104.808C153.022 104.675 153.05 104.544 153.107 104.422C153.164 104.3 153.249 104.191 153.355 104.101C153.461 104.011 153.587 103.943 153.725 103.9C153.862 103.857 154.007 103.841 154.152 103.853C154.297 103.841 154.442 103.858 154.58 103.902C154.717 103.946 154.842 104.016 154.946 104.108C155.051 104.2 155.133 104.312 155.186 104.436C155.239 104.559 155.262 104.692 155.254 104.824C155.239 105.077 155.135 105.319 154.957 105.514C154.779 105.708 154.536 105.845 154.266 105.902C153.512 105.723 153.024 105.402 153.024 104.808ZM154.146 108.836C153.977 108.849 153.807 108.829 153.647 108.778C153.487 108.727 153.341 108.645 153.218 108.539C153.095 108.432 152.998 108.303 152.934 108.16C152.869 108.017 152.839 107.863 152.844 107.708C152.855 107.412 152.977 107.129 153.191 106.906C153.404 106.682 153.695 106.533 154.015 106.484C154.895 106.712 155.446 107.058 155.446 107.78C155.444 107.929 155.408 108.077 155.34 108.213C155.272 108.349 155.174 108.47 155.051 108.57C154.929 108.669 154.785 108.744 154.63 108.79C154.474 108.836 154.309 108.852 154.146 108.836Z" fill="#5342F2"/>
<path d="M157.836 108.27C157.754 108.268 157.673 108.283 157.598 108.311C157.522 108.34 157.454 108.383 157.398 108.437C157.341 108.491 157.298 108.555 157.27 108.625C157.242 108.695 157.23 108.769 157.235 108.844C157.23 108.918 157.241 108.992 157.268 109.062C157.295 109.131 157.338 109.195 157.393 109.249C157.448 109.304 157.515 109.347 157.589 109.376C157.664 109.406 157.744 109.421 157.825 109.421C157.907 109.422 157.989 109.409 158.065 109.38C158.141 109.351 158.209 109.308 158.266 109.254C158.322 109.2 158.366 109.135 158.394 109.064C158.421 108.994 158.433 108.919 158.427 108.844C158.432 108.77 158.422 108.696 158.394 108.626C158.367 108.556 158.325 108.492 158.269 108.438C158.214 108.384 158.146 108.341 158.072 108.312C157.997 108.283 157.917 108.269 157.836 108.27Z" fill="#5342F2"/>
<path d="M161.406 103.281C160.084 103.281 159.143 104.377 159.143 106.367C159.166 108.333 160.025 109.419 161.294 109.419C162.736 109.419 163.554 108.303 163.554 106.285C163.558 104.394 162.779 103.281 161.406 103.281ZM161.345 108.796C160.543 108.796 160.025 107.922 160.025 106.376C160.025 104.76 160.585 103.901 161.355 103.901C162.264 103.901 162.674 104.862 162.674 106.321C162.679 107.841 162.247 108.796 161.349 108.796H161.345Z" fill="#5342F2"/>
<path d="M166.55 103.281C165.229 103.281 164.287 104.377 164.287 106.367C164.31 108.333 165.17 109.419 166.439 109.419C167.878 109.419 168.699 108.303 168.699 106.285C168.699 104.394 167.917 103.281 166.55 103.281ZM166.489 108.796C165.69 108.796 165.17 107.922 165.17 106.376C165.17 104.76 165.729 103.901 166.5 103.901C167.41 103.901 167.818 104.862 167.818 106.321C167.819 107.841 167.391 108.796 166.489 108.796Z" fill="#5342F2"/>
<path opacity="0.4" d="M331.6 636.285H243.681C242.432 636.285 241.234 636.738 240.351 637.545C239.468 638.351 238.972 639.445 238.972 640.585C238.972 641.726 239.468 642.819 240.351 643.626C241.234 644.432 242.432 644.885 243.681 644.885H331.6C332.849 644.885 334.046 644.432 334.929 643.626C335.813 642.819 336.309 641.726 336.309 640.585C336.309 639.445 335.813 638.351 334.929 637.545C334.046 636.738 332.849 636.285 331.6 636.285Z" fill="white"/>
<path d="M320.442 71.3086C319.897 71.3085 319.357 71.4065 318.853 71.597C318.349 71.7875 317.891 72.0667 317.505 72.4188C317.12 72.7709 316.814 73.189 316.605 73.649C316.396 74.1091 316.289 74.6023 316.289 75.1003C316.289 75.5981 316.396 76.091 316.605 76.5509C316.814 77.0108 317.12 77.4286 317.506 77.7805C317.891 78.1324 318.349 78.4114 318.853 78.6016C319.357 78.7919 319.897 78.8896 320.442 78.8893C321.543 78.8893 322.598 78.4901 323.376 77.7795C324.155 77.0689 324.592 76.1052 324.592 75.1003C324.592 74.095 324.155 73.1309 323.377 72.4198C322.599 71.7088 321.543 71.3091 320.442 71.3086Z" fill="white"/>
<path d="M305.14 72.9117H268.128C267.784 72.8784 267.436 72.9085 267.105 73.0002C266.774 73.0919 266.467 73.2434 266.201 73.4456C265.935 73.6478 265.716 73.8967 265.558 74.1775C265.399 74.4583 265.304 74.7653 265.278 75.0803C265.304 75.3954 265.399 75.7024 265.558 75.9833C265.716 76.2641 265.935 76.5131 266.201 76.7153C266.466 76.9176 266.774 77.069 267.105 77.1607C267.436 77.2524 267.784 77.2824 268.128 77.249H305.14C306.713 77.249 307.99 76.3598 307.99 75.0803C307.964 74.7653 307.869 74.4582 307.711 74.1774C307.552 73.8965 307.333 73.6476 307.068 73.4453C306.802 73.2431 306.494 73.0916 306.163 72.9999C305.832 72.9083 305.484 72.8783 305.14 72.9117Z" fill="white"/>
<path d="M159.79 490.934C160.23 490.575 160.582 490.136 160.823 489.645C161.064 489.153 161.188 488.621 161.188 488.082V486.191C161.203 485.175 160.788 484.192 160.029 483.448C159.27 482.705 158.225 482.258 157.113 482.201C156.551 482.185 155.991 482.273 155.466 482.459C154.942 482.645 154.464 482.925 154.06 483.283C153.656 483.641 153.335 484.069 153.116 484.542C152.897 485.015 152.785 485.524 152.785 486.038V488.089C152.786 488.628 152.911 489.16 153.153 489.652C153.395 490.143 153.747 490.582 154.187 490.941C152.787 491.367 151.526 492.107 150.518 493.091C149.51 494.076 148.787 495.275 148.415 496.579C148.351 496.823 148.349 497.077 148.408 497.322C148.468 497.567 148.588 497.796 148.759 497.992C148.931 498.188 149.149 498.346 149.397 498.454C149.645 498.561 149.917 498.615 150.192 498.612L163.799 498.607C164.073 498.61 164.345 498.555 164.593 498.447C164.841 498.339 165.059 498.181 165.23 497.985C165.401 497.788 165.52 497.559 165.58 497.314C165.639 497.069 165.636 496.815 165.571 496.571C165.198 495.267 164.473 494.068 163.464 493.083C162.454 492.099 161.192 491.36 159.79 490.934Z" fill="#CECDD3"/>
<path d="M195.737 482.164L178.373 482.174C178.035 482.174 177.7 482.234 177.388 482.353C177.076 482.471 176.792 482.644 176.553 482.862C176.314 483.081 176.125 483.34 175.995 483.625C175.866 483.91 175.8 484.216 175.8 484.524L175.806 492.314C175.806 492.623 175.872 492.929 176.001 493.214C176.131 493.499 176.32 493.759 176.559 493.977C176.798 494.195 177.082 494.368 177.395 494.487C177.707 494.605 178.042 494.665 178.38 494.665H180.078C180.078 494.665 182.325 497.323 183.14 498.154C183.284 498.296 183.458 498.409 183.653 498.487C183.847 498.564 184.057 498.604 184.268 498.604C184.48 498.604 184.69 498.564 184.884 498.487C185.078 498.409 185.253 498.296 185.397 498.154C186.213 497.323 188.456 494.665 188.456 494.665H195.748C196.43 494.662 197.082 494.413 197.563 493.972C198.043 493.531 198.313 492.934 198.313 492.312V484.519C198.314 484.21 198.247 483.904 198.118 483.618C197.989 483.332 197.799 483.073 197.56 482.854C197.321 482.635 197.036 482.461 196.724 482.343C196.411 482.225 196.075 482.164 195.737 482.164Z" fill="#CECDD3"/>
<path d="M194.097 484.578L180.017 484.585C179.816 484.585 179.622 484.658 179.48 484.788C179.337 484.918 179.257 485.095 179.257 485.279C179.257 485.463 179.337 485.639 179.48 485.769C179.622 485.899 179.816 485.973 180.017 485.973L194.094 485.962C194.296 485.962 194.489 485.889 194.632 485.759C194.774 485.629 194.854 485.452 194.854 485.268C194.854 485.084 194.774 484.908 194.632 484.777C194.489 484.647 194.296 484.574 194.094 484.574L194.097 484.578Z" fill="white"/>
<path d="M194.1 487.947L180.02 487.955C179.819 487.955 179.625 488.028 179.483 488.158C179.34 488.288 179.26 488.465 179.26 488.649C179.26 488.833 179.34 489.01 179.483 489.14C179.625 489.27 179.819 489.343 180.02 489.343L194.1 489.338C194.302 489.338 194.495 489.265 194.638 489.135C194.78 489.004 194.86 488.828 194.86 488.644C194.86 488.46 194.78 488.283 194.638 488.153C194.495 488.023 194.302 487.95 194.1 487.95V487.947Z" fill="white"/>
<path d="M186.368 491.33L180.023 491.335C179.923 491.335 179.824 491.353 179.732 491.388C179.64 491.423 179.556 491.474 179.485 491.539C179.415 491.603 179.359 491.679 179.321 491.764C179.282 491.848 179.263 491.938 179.263 492.029C179.263 492.12 179.282 492.211 179.321 492.295C179.359 492.379 179.415 492.456 179.485 492.52C179.556 492.584 179.64 492.636 179.732 492.67C179.824 492.705 179.923 492.723 180.023 492.723H186.371C186.47 492.723 186.569 492.705 186.661 492.67C186.754 492.636 186.837 492.584 186.908 492.52C186.979 492.456 187.035 492.379 187.073 492.295C187.111 492.211 187.131 492.12 187.131 492.029C187.131 491.938 187.111 491.848 187.073 491.764C187.035 491.679 186.979 491.603 186.908 491.539C186.837 491.474 186.754 491.423 186.661 491.388C186.569 491.353 186.47 491.335 186.371 491.335L186.368 491.33Z" fill="white"/>
<path d="M225.59 491.101V489.427C225.589 488.079 225.069 486.774 224.12 485.741C223.171 484.708 221.854 484.013 220.4 483.777V483.284C220.4 483.017 220.284 482.761 220.078 482.572C219.871 482.383 219.591 482.277 219.298 482.277C219.006 482.277 218.726 482.383 218.519 482.572C218.312 482.761 218.196 483.017 218.196 483.284V483.78C216.743 484.016 215.427 484.711 214.479 485.745C213.531 486.778 213.011 488.083 213.011 489.431V491.109C212.014 492.339 211.478 493.829 211.483 495.359V496.086C211.483 496.175 211.502 496.262 211.538 496.343C211.575 496.425 211.63 496.499 211.698 496.561C211.766 496.624 211.847 496.673 211.937 496.707C212.026 496.741 212.121 496.758 212.218 496.758H215.329C215.303 496.866 215.312 496.979 215.355 497.082C215.398 497.185 215.473 497.275 215.572 497.34C216.653 498.069 217.962 498.462 219.306 498.462C220.651 498.462 221.96 498.069 223.041 497.34C223.139 497.275 223.214 497.185 223.257 497.082C223.299 496.978 223.308 496.866 223.281 496.758H226.401C226.595 496.757 226.781 496.686 226.918 496.56C227.056 496.434 227.133 496.264 227.133 496.086V495.358C227.135 493.824 226.594 492.331 225.59 491.101Z" fill="#CECDD3"/>
<path d="M229.024 492.91C228.368 492.91 227.726 493.088 227.18 493.421C226.634 493.754 226.209 494.227 225.958 494.781C225.706 495.334 225.641 495.944 225.769 496.532C225.897 497.12 226.213 497.66 226.678 498.083C227.142 498.507 227.734 498.796 228.377 498.912C229.021 499.029 229.689 498.969 230.295 498.739C230.901 498.509 231.42 498.12 231.784 497.622C232.148 497.123 232.342 496.537 232.342 495.938C232.342 495.54 232.256 495.146 232.089 494.779C231.922 494.411 231.678 494.078 231.37 493.797C231.062 493.515 230.696 493.292 230.294 493.14C229.891 492.988 229.46 492.91 229.024 492.91Z" fill="#FE8046"/>
<path d="M409.498 483.351L394.773 489.356C394.525 489.459 394.309 489.617 394.145 489.816C393.982 490.015 393.876 490.249 393.838 490.495C393.8 490.742 393.831 490.993 393.928 491.226C394.025 491.459 394.185 491.665 394.393 491.826L403.18 498.614C403.373 498.762 403.601 498.867 403.847 498.921C404.092 498.974 404.348 498.974 404.594 498.92C404.839 498.867 405.068 498.762 405.261 498.614C405.454 498.465 405.606 498.277 405.705 498.066L411.642 485.27C411.767 484.997 411.799 484.697 411.735 484.408C411.671 484.118 411.514 483.853 411.283 483.646C411.052 483.44 410.759 483.301 410.44 483.248C410.122 483.196 409.794 483.231 409.498 483.351Z" fill="#CECDD3"/>
<path d="M159.79 169.574C160.23 169.215 160.581 168.775 160.822 168.283C161.063 167.791 161.187 167.258 161.187 166.72V164.834C161.203 163.817 160.788 162.834 160.028 162.091C159.269 161.347 158.224 160.9 157.113 160.844C156.55 160.828 155.99 160.915 155.465 161.101C154.94 161.287 154.462 161.567 154.058 161.925C153.655 162.283 153.334 162.712 153.115 163.185C152.896 163.659 152.784 164.167 152.784 164.681V166.729C152.785 167.268 152.91 167.8 153.152 168.292C153.394 168.783 153.746 169.222 154.187 169.581C152.787 170.009 151.527 170.748 150.519 171.733C149.511 172.717 148.788 173.915 148.415 175.219C148.351 175.463 148.349 175.717 148.409 175.961C148.468 176.206 148.589 176.435 148.76 176.63C148.931 176.826 149.149 176.984 149.397 177.091C149.645 177.198 149.917 177.253 150.191 177.25L163.798 177.242C164.072 177.244 164.344 177.19 164.591 177.082C164.839 176.974 165.057 176.816 165.228 176.62C165.399 176.424 165.518 176.195 165.578 175.951C165.637 175.706 165.635 175.452 165.571 175.209C165.196 173.904 164.472 172.706 163.462 171.722C162.453 170.738 161.191 170 159.79 169.574Z" fill="#CECDD3"/>
<path d="M195.737 160.801L178.373 160.81C177.69 160.811 177.035 161.06 176.553 161.501C176.071 161.942 175.8 162.54 175.8 163.164L175.806 170.956C175.806 171.579 176.078 172.177 176.56 172.617C177.043 173.057 177.698 173.305 178.38 173.304H180.078C180.078 173.304 182.325 175.957 183.14 176.791C183.284 176.933 183.458 177.046 183.653 177.123C183.847 177.201 184.056 177.241 184.268 177.241C184.48 177.241 184.69 177.201 184.884 177.123C185.078 177.046 185.253 176.933 185.397 176.791C186.213 175.957 188.456 173.299 188.456 173.299L195.748 173.294C196.086 173.294 196.42 173.233 196.732 173.115C197.044 172.997 197.327 172.823 197.565 172.605C197.804 172.386 197.992 172.127 198.121 171.842C198.249 171.557 198.314 171.251 198.313 170.943V163.152C198.313 162.528 198.041 161.93 197.558 161.489C197.075 161.048 196.42 160.801 195.737 160.801Z" fill="#CECDD3"/>
<path d="M194.097 163.213L180.017 163.222C179.816 163.222 179.622 163.296 179.48 163.426C179.337 163.556 179.257 163.732 179.257 163.916C179.257 164.1 179.337 164.277 179.48 164.407C179.622 164.537 179.816 164.61 180.017 164.61L194.094 164.605C194.296 164.605 194.489 164.532 194.632 164.402C194.774 164.272 194.854 164.095 194.854 163.911C194.855 163.82 194.836 163.729 194.798 163.645C194.76 163.56 194.705 163.483 194.634 163.419C194.564 163.354 194.48 163.302 194.388 163.267C194.296 163.232 194.197 163.213 194.097 163.213Z" fill="white"/>
<path d="M194.1 166.59L180.02 166.598C179.819 166.598 179.625 166.671 179.483 166.801C179.34 166.931 179.26 167.108 179.26 167.292C179.26 167.476 179.34 167.652 179.483 167.782C179.625 167.912 179.819 167.986 180.02 167.986L194.1 167.978C194.2 167.978 194.299 167.96 194.391 167.925C194.483 167.89 194.567 167.839 194.638 167.775C194.708 167.71 194.764 167.634 194.802 167.549C194.84 167.465 194.86 167.375 194.86 167.284C194.86 167.1 194.78 166.923 194.638 166.793C194.495 166.663 194.302 166.59 194.1 166.59Z" fill="white"/>
<path d="M186.368 169.967H180.023C179.821 169.967 179.628 170.04 179.485 170.17C179.343 170.3 179.263 170.477 179.263 170.661C179.264 170.844 179.344 171.02 179.487 171.15C179.629 171.28 179.821 171.354 180.023 171.355L186.371 171.35C186.47 171.35 186.569 171.332 186.661 171.297C186.754 171.262 186.837 171.211 186.908 171.146C186.979 171.082 187.035 171.005 187.073 170.921C187.111 170.837 187.131 170.747 187.131 170.656C187.129 170.472 187.048 170.296 186.905 170.167C186.762 170.038 186.569 169.966 186.368 169.967Z" fill="white"/>
<path d="M225.59 169.742V168.065C225.588 166.717 225.067 165.412 224.117 164.38C223.168 163.347 221.85 162.653 220.396 162.418V161.924C220.396 161.657 220.28 161.402 220.073 161.213C219.867 161.024 219.587 160.918 219.294 160.918C219.002 160.918 218.722 161.024 218.515 161.213C218.309 161.402 218.193 161.657 218.192 161.924V162.418C216.738 162.655 215.422 163.351 214.474 164.385C213.526 165.42 213.006 166.726 213.007 168.074V169.747C212.011 170.977 211.476 172.468 211.479 173.997V174.726C211.479 174.814 211.498 174.902 211.534 174.983C211.571 175.065 211.626 175.139 211.694 175.201C211.762 175.264 211.843 175.313 211.933 175.347C212.022 175.38 212.117 175.398 212.214 175.398H215.325C215.299 175.506 215.308 175.619 215.351 175.723C215.394 175.827 215.469 175.917 215.568 175.982C216.65 176.709 217.959 177.101 219.303 177.1C220.647 177.101 221.956 176.707 223.037 175.977C223.136 175.912 223.211 175.821 223.253 175.718C223.296 175.614 223.304 175.501 223.277 175.392H226.397C226.591 175.392 226.778 175.321 226.915 175.195C227.052 175.069 227.129 174.899 227.129 174.721V173.995C227.131 172.463 226.591 170.971 225.59 169.742Z" fill="#CECDD3"/>
<path d="M229.024 171.547C228.145 171.549 227.303 171.87 226.682 172.438C226.06 173.006 225.711 173.776 225.71 174.579C225.711 175.381 226.06 176.151 226.683 176.718C227.305 177.286 228.148 177.604 229.027 177.603C229.907 177.603 230.75 177.284 231.371 176.716C231.993 176.148 232.342 175.377 232.342 174.574C232.342 174.177 232.256 173.783 232.089 173.415C231.922 173.048 231.678 172.714 231.37 172.433C231.062 172.152 230.696 171.929 230.294 171.777C229.891 171.625 229.46 171.547 229.024 171.547Z" fill="#FE8046"/>
<path d="M409.498 161.987L394.773 167.995C394.524 168.096 394.308 168.254 394.144 168.453C393.98 168.651 393.874 168.885 393.836 169.131C393.798 169.378 393.83 169.629 393.927 169.861C394.024 170.093 394.185 170.299 394.393 170.459L403.18 177.251C403.373 177.399 403.601 177.504 403.847 177.557C404.093 177.611 404.348 177.61 404.594 177.557C404.839 177.504 405.068 177.398 405.261 177.25C405.454 177.101 405.606 176.914 405.705 176.702L411.641 163.903C411.766 163.631 411.798 163.331 411.733 163.042C411.669 162.753 411.511 162.489 411.281 162.282C411.05 162.076 410.757 161.938 410.439 161.885C410.121 161.832 409.794 161.868 409.498 161.987Z" fill="#CECDD3"/>
<path d="M421.638 114.887H148.364V151.091H421.638V114.887Z" fill="#FE8046"/>
<path d="M209.867 506.543H57.0551C51.0949 506.543 45.3787 508.705 41.1642 512.553C36.9496 516.402 34.5819 521.621 34.5819 527.064C34.5819 532.506 36.9496 537.725 41.1642 541.574C45.3787 545.422 51.0949 547.584 57.0551 547.584H176.909L187.768 557.503L198.632 547.584H209.867C215.828 547.584 221.544 545.422 225.758 541.574C229.973 537.725 232.341 532.506 232.341 527.064C232.341 521.621 229.973 516.402 225.758 512.553C221.544 508.705 215.828 506.543 209.867 506.543Z" fill="#F5C825"/>
<path d="M201.337 529.01H100.783C100.449 529.004 100.117 529.059 99.806 529.172C99.4954 529.285 99.2125 529.453 98.9739 529.666C98.7353 529.88 98.5457 530.135 98.4163 530.416C98.2869 530.698 98.2203 531 98.2203 531.305C98.2203 531.61 98.2869 531.912 98.4163 532.194C98.5457 532.475 98.7353 532.73 98.9739 532.944C99.2125 533.157 99.4954 533.326 99.806 533.438C100.117 533.551 100.449 533.606 100.783 533.6H201.337C201.996 533.588 202.622 533.341 203.083 532.912C203.544 532.483 203.802 531.906 203.802 531.305C203.802 530.704 203.544 530.127 203.083 529.698C202.622 529.269 201.996 529.022 201.337 529.01Z" fill="white"/>
<path d="M201.337 516.387H132.205C131.538 516.387 130.898 516.629 130.427 517.059C129.955 517.49 129.69 518.074 129.69 518.683C129.69 519.292 129.955 519.876 130.427 520.307C130.898 520.737 131.538 520.979 132.205 520.979H201.337C202.004 520.979 202.644 520.737 203.116 520.307C203.587 519.876 203.852 519.292 203.852 518.683C203.852 518.074 203.587 517.49 203.116 517.059C202.644 516.629 202.004 516.387 201.337 516.387Z" fill="white"/>
<path d="M541.453 235.281L533.448 242.514L533.523 229.477C533.527 228.85 533.396 228.229 533.137 227.648C532.877 227.068 532.496 226.54 532.013 226.094C531.53 225.648 530.956 225.294 530.323 225.051C529.69 224.808 529.011 224.682 528.325 224.678L489.034 224.488C487.646 224.482 486.313 224.978 485.327 225.869C484.34 226.759 483.782 227.971 483.773 229.238L483.564 265.117C483.558 266.384 484.103 267.601 485.079 268.5C486.055 269.4 487.383 269.909 488.769 269.915L528.06 270.104C528.746 270.107 529.427 269.987 530.063 269.751C530.698 269.514 531.277 269.165 531.765 268.724C532.253 268.283 532.641 267.759 532.907 267.181C533.173 266.603 533.312 265.983 533.315 265.356L533.393 252.322L541.311 259.627C541.745 260.028 542.299 260.302 542.904 260.415C543.508 260.528 544.136 260.475 544.707 260.262C545.279 260.049 545.768 259.687 546.114 259.22C546.459 258.753 546.646 258.203 546.649 257.64L546.763 237.322C546.767 236.759 546.588 236.208 546.248 235.738C545.908 235.267 545.423 234.9 544.855 234.681C544.286 234.463 543.66 234.403 543.054 234.51C542.449 234.617 541.891 234.885 541.453 235.281Z" fill="#5CCFFE"/>
<path d="M504.247 257.864L515.9 247.332L504.367 236.693L504.247 257.864Z" fill="#EB4201"/>
<path d="M480.7 323.059C474.872 323.058 469.174 324.636 464.328 327.593C459.482 330.55 455.704 334.752 453.474 339.669C451.243 344.586 450.659 349.996 451.796 355.216C452.933 360.436 455.74 365.231 459.861 368.994C463.983 372.757 469.233 375.32 474.95 376.359C480.666 377.397 486.592 376.864 491.976 374.827C497.361 372.791 501.964 369.342 505.202 364.917C508.44 360.492 510.168 355.289 510.168 349.967C510.169 346.433 509.407 342.934 507.926 339.67C506.445 336.405 504.274 333.438 501.538 330.94C498.802 328.441 495.553 326.459 491.978 325.107C488.402 323.754 484.57 323.058 480.7 323.059Z" fill="#FE8046"/>
<path d="M481.313 342.085C481.163 336.678 463.891 333.536 463.963 345.575C464.021 355.006 480.7 362.65 480.7 362.65C480.7 362.65 497.42 355.006 497.438 345.575C497.458 334.296 481.163 336.678 481.313 342.085Z" fill="white"/>
<path fill-rule="evenodd" clip-rule="evenodd" d="M278.825 137.525C276.78 137.525 274.756 137.893 272.867 138.607C270.978 139.321 269.261 140.368 267.815 141.689C266.369 143.009 265.222 144.576 264.44 146.301C263.657 148.026 263.255 149.874 263.255 151.741C263.254 153.608 263.657 155.457 264.439 157.182C265.221 158.907 266.368 160.475 267.814 161.795C269.26 163.115 270.977 164.163 272.866 164.877C274.755 165.591 276.78 165.958 278.825 165.958C280.87 165.958 282.894 165.591 284.784 164.876C286.673 164.162 288.389 163.115 289.835 161.795C291.281 160.474 292.428 158.907 293.21 157.182C293.992 155.457 294.395 153.608 294.395 151.741C294.394 147.971 292.754 144.355 289.834 141.689C286.914 139.023 282.954 137.525 278.825 137.525Z" fill="#CECDD3"/>
<path fill-rule="evenodd" clip-rule="evenodd" d="M278.825 137.525C277.096 137.543 275.383 137.827 273.757 138.363C274.599 138.212 275.454 138.134 276.312 138.13C292.307 138.13 292.282 160.794 276.312 160.794C266.039 160.794 262.413 151.467 265.332 144.778C263.989 146.895 263.274 149.295 263.258 151.741C263.258 153.608 263.66 155.457 264.442 157.182C265.225 158.906 266.371 160.474 267.817 161.794C269.262 163.114 270.978 164.161 272.867 164.876C274.756 165.59 276.78 165.958 278.825 165.958C280.87 165.958 282.894 165.591 284.783 164.876C286.673 164.162 288.389 163.115 289.835 161.795C291.281 160.474 292.427 158.907 293.21 157.182C293.992 155.457 294.395 153.608 294.395 151.741C294.394 147.971 292.754 144.355 289.834 141.689C286.914 139.023 282.954 137.525 278.825 137.525Z" fill="#5342F2"/>
<path fill-rule="evenodd" clip-rule="evenodd" d="M271.649 134.625C269.488 135.784 267.598 137.321 266.087 139.147C264.577 140.974 263.475 143.054 262.845 145.269C262.215 147.484 262.069 149.791 262.415 152.058C262.762 154.325 263.594 156.507 264.864 158.48C266.314 160.738 268.305 162.668 270.686 164.125C273.068 165.582 275.78 166.528 278.618 166.894C274.577 165.49 271.181 162.867 268.994 159.461C267.723 157.488 266.891 155.305 266.545 153.038C266.199 150.77 266.346 148.463 266.976 146.248C267.607 144.032 268.71 141.952 270.221 140.125C271.733 138.299 273.623 136.762 275.785 135.604C279.511 133.601 283.873 132.82 288.151 133.39C285.476 132.447 282.603 132.069 279.745 132.283C276.888 132.497 274.12 133.297 271.649 134.625Z" fill="#CECDD3"/>
<path fill-rule="evenodd" clip-rule="evenodd" d="M201.893 286.293C200.218 284.931 198.153 284.021 197.788 281.701C197.012 276.784 193.624 273.935 190.093 270.959C186.845 268.209 187.839 273.61 183.528 270.824C180.979 269.176 174.14 263.597 173.111 264.232C171.021 265.528 173.055 267.277 175.51 269.167C175.143 269.318 174.824 269.552 174.584 269.847C174.343 270.142 174.189 270.487 174.135 270.852C174.081 271.216 174.129 271.587 174.275 271.929C174.421 272.272 174.66 272.575 174.969 272.81C174.648 273.093 174.395 273.433 174.226 273.81C174.058 274.186 173.976 274.591 173.988 274.998C174 275.405 174.104 275.805 174.295 276.173C174.485 276.541 174.758 276.869 175.095 277.135C173.375 278.957 174.24 280.683 177.138 282.421C180.222 284.273 184.366 288.086 192.601 293.25C203.387 300.016 204.705 302.317 211.928 307.804C219.025 313.2 230.548 322.806 243.573 322.806C246.933 322.806 250.888 316.893 251.613 312.407C246.376 309.299 243.003 308.435 237.968 305.228C223.079 295.737 209.038 292.111 201.893 286.293Z" fill="#FFA578"/>
<path fill-rule="evenodd" clip-rule="evenodd" d="M235.214 317.218C223.856 312.979 215.319 305.273 205.612 298.623C196.872 292.638 187.259 284.05 181.61 275.458C180.922 274.498 180.492 273.404 180.353 272.264C180.215 271.124 180.373 269.97 180.813 268.896C177.785 266.672 173.878 263.768 173.118 264.238C171.028 265.534 173.062 267.283 175.517 269.173C175.15 269.324 174.832 269.559 174.591 269.853C174.351 270.148 174.196 270.494 174.142 270.858C174.088 271.222 174.136 271.593 174.282 271.936C174.428 272.278 174.667 272.581 174.977 272.816C174.656 273.099 174.403 273.439 174.234 273.816C174.065 274.193 173.984 274.597 173.996 275.004C174.007 275.411 174.112 275.811 174.302 276.179C174.493 276.547 174.765 276.875 175.102 277.142C173.383 278.963 174.247 280.689 177.146 282.428C180.229 284.28 184.373 288.092 192.609 293.256C203.394 300.022 204.713 302.324 211.935 307.81C219.033 313.206 230.555 322.812 243.58 322.812C246.94 322.812 250.895 316.899 251.621 312.413C249.444 311.12 248.253 311.059 246.467 310.215C245.022 315.274 241.775 319.663 235.214 317.218Z" fill="#E68969"/>
<path fill-rule="evenodd" clip-rule="evenodd" d="M185.564 262.027C184.133 263.979 184.693 266.409 187.378 268.518C187.645 270.743 188.669 272.837 190.306 274.503L195.626 276.589L191.098 268.002C188.993 266.224 187.134 264.218 185.564 262.027Z" fill="#FFA578"/>
<path d="M176.002 287.999C175.925 289.115 176.337 290.213 177.146 291.052C177.955 291.891 179.095 292.404 180.317 292.476C180.925 292.513 181.535 292.439 182.111 292.26C182.688 292.081 183.22 291.8 183.677 291.432C184.134 291.065 184.507 290.619 184.775 290.119C185.043 289.62 185.201 289.077 185.238 288.522L189.923 219.677L180.699 219.125L176.002 287.999Z" fill="#181F79"/>
<path d="M192.09 181.198L171.448 180.02L168.486 222.755L189.159 223.94C192.233 224.115 195.315 223.736 198.229 222.824C201.142 221.912 203.831 220.485 206.14 218.624C208.45 216.764 210.335 214.506 211.689 211.98C213.043 209.453 213.838 206.708 214.03 203.902C214.417 198.235 212.322 192.659 208.208 188.402C204.094 184.145 198.296 181.554 192.09 181.198Z" fill="#EB4201"/>
<path d="M90.6765 244.894L168.482 222.758L171.427 180.022L97.1926 149.113L90.6765 244.894Z" fill="#F5C825"/>
<path d="M94.4481 148.675C80.371 147.709 67.2031 168.581 65.0656 195.284C62.9005 221.958 72.5611 244.363 86.641 245.326C98.7811 246.132 110.237 230.726 114.542 209.36C115.251 205.831 115.746 202.269 116.024 198.691C116.31 195.131 116.386 191.561 116.252 187.994C115.453 166.266 106.59 149.481 94.4481 148.675Z" fill="#EB4201"/>
<path d="M99.8082 160.518C89.1824 159.792 79.2435 175.549 77.6294 195.704C75.9926 215.84 83.2877 232.755 93.9134 233.482C103.079 234.089 111.729 222.46 114.977 206.33C115.513 203.667 115.887 200.978 116.096 198.277C116.313 195.589 116.371 192.893 116.269 190.2C115.665 173.8 108.974 161.129 99.8082 160.518Z" fill="#181F79"/>
<path d="M112.261 186.044C107.729 185.76 103.568 191.016 103.029 197.834C102.489 204.652 105.734 210.403 110.296 210.716C111.851 210.79 113.376 210.303 114.543 209.361C115.252 205.833 115.746 202.271 116.024 198.692C116.31 195.133 116.386 191.562 116.252 187.995C115.255 186.89 113.821 186.189 112.261 186.044Z" fill="#F7F7F7"/>
<path d="M172.113 180.034C164.406 179.519 157.388 188.663 156.438 200.462C155.488 212.261 160.966 222.25 168.673 222.768C176.381 223.286 183.398 214.138 184.348 202.34C185.298 190.543 179.823 180.553 172.113 180.034Z" fill="#F5C825"/>
<path fill-rule="evenodd" clip-rule="evenodd" d="M175.287 265.186C174.147 264.406 173.073 264.454 172.731 265.023C172.398 265.575 172.261 266.289 173.635 267.3C175.822 268.929 178.146 270.397 180.586 271.692C182.628 272.805 184.109 271.936 181.554 269.86C179.56 268.199 177.467 266.639 175.287 265.186Z" fill="#FFA578"/>
<path fill-rule="evenodd" clip-rule="evenodd" d="M185.289 275.549C182.428 273.534 179.564 271.981 176.714 269.989C175.581 269.199 175.004 269.653 174.677 270.281C174.357 270.894 174.243 271.651 175.695 272.57C178.498 274.347 181.433 275.942 184.479 277.346C186.622 278.299 187.995 277.452 185.289 275.549Z" fill="#FFA578"/>
<path fill-rule="evenodd" clip-rule="evenodd" d="M184.276 278.353C181.622 276.655 179.124 275.501 176.486 273.822C175.441 273.153 174.797 273.756 174.468 274.378C174.148 274.978 174.022 275.705 175.371 276.472C177.982 277.953 180.713 279.25 183.541 280.35C185.535 281.096 186.78 279.962 184.276 278.353Z" fill="#FFA578"/>
<path fill-rule="evenodd" clip-rule="evenodd" d="M183.385 281.973C180.735 280.272 179.361 279.508 176.722 277.83C175.677 277.162 175.113 277.637 174.785 278.26C174.467 278.862 174.339 279.589 175.689 280.351C177.866 281.668 180.17 282.8 182.572 283.734C184.571 284.484 185.89 283.578 183.385 281.973Z" fill="#FFA578"/>
<path fill-rule="evenodd" clip-rule="evenodd" d="M277.193 154.245C244.133 160.924 252.147 188.141 253.708 195.323C256.77 209.413 270.816 217.746 288.924 217.746C312.806 217.746 326.152 185.26 312.623 166.453C302.339 152.163 286.55 152.353 277.193 154.245Z" fill="#CECDD3"/>
<path fill-rule="evenodd" clip-rule="evenodd" d="M277.193 154.245C276.989 154.285 276.806 154.331 276.606 154.382C277.023 154.45 277.443 154.509 277.855 154.595C280.616 155.236 283.197 156.402 285.431 158.016C291.495 160.603 296.239 165.22 298.68 170.911C301.203 176.213 301.724 182.131 300.161 187.733C298.491 193.898 293.253 199.201 287.288 202.254C281.129 205.407 273.194 207.192 266.27 205.095C262.131 203.874 258.354 201.801 255.231 199.037C255.012 198.846 254.814 198.586 254.6 198.378C258.919 210.602 272.175 217.746 288.928 217.746C312.81 217.746 326.156 185.26 312.627 166.453C302.339 152.163 286.55 152.353 277.193 154.245Z" fill="#5342F2"/>
<path fill-rule="evenodd" clip-rule="evenodd" d="M305.693 583.51C304.657 580.78 302.558 578.56 300.57 572.233C294.469 552.868 300.375 537.341 294.797 511.937C293.703 506.958 290.853 502.523 291.462 496.744C291.679 491.311 292.573 487.092 292.256 482.909C291.952 478.919 290.458 474.957 290.041 470.149C287.951 445.947 288.604 416.525 289.595 393.305L247.13 373.752C247.932 397.781 257.901 457.455 258.447 460.037C263.154 482.284 261.417 485.865 264.061 504.821C266.846 524.816 280.677 556.223 286.811 577.26C288.934 584.534 291.222 617.697 290.801 623.529C290.537 627.211 287.784 633.176 293.434 633.176C298.162 633.176 310.829 628.318 312.457 623.31C314.18 618.018 309.132 608.443 307.241 598.986C305.785 591.682 307.093 587.186 305.693 583.51Z" fill="#E68969"/>
<path fill-rule="evenodd" clip-rule="evenodd" d="M277.141 512.199C270.366 492.538 265.384 472.469 270.642 452.201C276.189 430.813 271.86 408.742 276.152 387.117L247.134 373.752C247.936 397.786 257.905 457.457 258.451 460.04C263.157 482.287 261.421 485.867 264.065 504.824C266.847 524.819 280.677 556.225 286.814 577.263C288.938 584.536 291.226 617.699 290.804 623.531C290.54 627.214 287.788 633.178 293.438 633.178C295.813 633.178 300.176 631.953 304.144 630.106C303.452 612.276 293.215 594.306 292.297 576.42C291.101 553.173 284.724 534.202 277.141 512.199Z" fill="#FFA578"/>
<path fill-rule="evenodd" clip-rule="evenodd" d="M309.016 606.704C308.267 610.594 307.211 615.098 304.482 618.506C300.307 623.723 291.685 621.591 290.769 617.624C290.864 620.331 290.883 622.427 290.802 623.53C290.538 627.212 287.786 633.177 293.436 633.177C298.164 633.177 310.83 628.319 312.458 623.311C313.739 619.377 311.279 613.075 309.155 606.213C309.116 606.383 309.049 606.538 309.016 606.704Z" fill="#EB4201"/>
<path fill-rule="evenodd" clip-rule="evenodd" d="M309.016 606.704C308.267 610.594 307.211 615.098 304.483 618.506C304.101 618.972 303.654 619.39 303.153 619.749C303.141 620.141 303.077 620.531 302.963 620.91C300.606 628.521 291.983 630.692 289.97 630.377C290.126 631.988 290.942 633.177 293.436 633.177C298.164 633.177 310.83 628.319 312.459 623.311C313.739 619.377 311.279 613.075 309.156 606.213C309.117 606.383 309.049 606.538 309.016 606.704Z" fill="#181F79"/>
<path fill-rule="evenodd" clip-rule="evenodd" d="M303.119 231.716C290.444 234.892 293.286 222.066 291.638 210.846L274.415 216.384C276.553 226.928 278.19 234.409 268.864 237.713C262.72 239.766 256.457 241.508 250.104 242.933C241.805 244.735 238.407 293.496 236.781 307.866L251.438 313.205C254.702 302.882 260.224 291.194 260.224 278.668L315.977 271.971L311.385 254.717L330.175 248.616C325.448 230.511 318.228 227.931 303.119 231.716Z" fill="#FFA578"/>
<path fill-rule="evenodd" clip-rule="evenodd" d="M307.549 244.891C307.549 244.891 331.914 284.895 340.063 292.641L350.063 282.248C345.782 274.813 336.35 249.755 325.468 236.131L307.549 244.891Z" fill="#FFA578"/>
<path fill-rule="evenodd" clip-rule="evenodd" d="M332.003 262.908C332.996 260.087 335.966 253.573 334.65 250.476C331.187 242.328 318.975 246.978 316.536 241.225C316.447 241.011 316.419 240.805 316.346 240.592L307.551 244.892C307.551 244.892 331.916 284.895 340.065 292.642L345.628 286.858C344.217 286.256 338.306 285.857 337.173 284.291C331.645 276.667 331.493 264.351 332.003 262.908Z" fill="#E68969"/>
<path fill-rule="evenodd" clip-rule="evenodd" d="M395.477 230.603C395.711 230.256 395.864 229.869 395.925 229.465C395.987 229.062 395.955 228.651 395.833 228.259C395.711 227.867 395.5 227.503 395.215 227.189C394.93 226.876 394.576 226.62 394.177 226.439C394.395 226.13 394.524 225.776 394.551 225.409C394.578 225.042 394.502 224.675 394.331 224.342C394.16 224.01 393.9 223.722 393.573 223.506C393.247 223.291 392.867 223.155 392.467 223.11C394.19 220.635 395.559 218.409 393.132 217.745C391.944 217.417 387.249 224.615 385.355 226.881C382.155 230.719 381.331 225.296 379.133 228.803C376.618 232.603 375.598 237.073 376.244 241.474C376.851 246.071 355.785 262.974 342.322 273.754C337.704 277.45 336.82 280.891 337.251 286.583C337.354 287.971 339.01 294.2 343.385 292.794C364.602 285.979 375.982 260.168 384.053 250.765C390.218 243.583 392.923 238.816 395.263 236.203C397.45 233.757 397.717 231.876 395.477 230.603Z" fill="#FFA578"/>
<path fill-rule="evenodd" clip-rule="evenodd" d="M395.477 230.603C395.711 230.257 395.864 229.869 395.925 229.466C395.987 229.062 395.955 228.651 395.833 228.259C395.711 227.868 395.5 227.503 395.215 227.19C394.93 226.877 394.576 226.621 394.177 226.439C394.395 226.13 394.524 225.776 394.551 225.409C394.578 225.043 394.502 224.676 394.331 224.343C394.16 224.01 393.9 223.722 393.573 223.507C393.247 223.291 392.867 223.155 392.467 223.111C394.19 220.635 395.559 218.409 393.132 217.743C391.944 217.418 387.249 224.615 385.355 226.882C384.889 227.625 384.513 228.412 384.234 229.23C383.24 231.564 382.921 234.093 383.307 236.572C383.903 240.585 384.363 245.063 382.678 247.155C377.415 253.677 368.175 257.912 362.823 264.36C357.503 270.765 352.545 277.016 345.712 282.171C344.558 283.095 343.189 283.766 341.708 284.133C340.227 284.5 338.674 284.554 337.167 284.29C337.167 285.017 337.192 285.774 337.254 286.587C337.357 287.975 339.012 294.204 343.388 292.798C364.604 285.983 375.984 260.172 384.056 250.769C386.545 247.87 386.695 245.465 388.258 243.336C390.569 240.192 393.863 237.762 395.261 236.207C397.453 233.757 397.717 231.877 395.477 230.603Z" fill="#E68969"/>
<path fill-rule="evenodd" clip-rule="evenodd" d="M381.02 219.383C380.241 221.902 379.126 224.324 377.7 226.595L376.194 236.028L381.324 232.168C382.107 230.59 382.021 228.54 381.414 226.069C383.292 223.322 383.027 220.849 381.02 219.383Z" fill="#FFA578"/>
<path fill-rule="evenodd" clip-rule="evenodd" d="M303.118 231.716C290.443 234.892 293.286 222.066 291.638 210.846L274.415 216.384C274.833 218.445 275.228 220.381 275.528 222.201C280.183 228.595 289.422 238.486 297.568 237.574C301.968 237.08 305.982 232.456 311.058 231.894C314.674 231.522 318.336 231.835 321.813 232.813C317.374 229.497 311.449 229.629 303.118 231.716Z" fill="#E68969"/>
<path fill-rule="evenodd" clip-rule="evenodd" d="M252.731 280.232C252.541 282.754 252.351 285.33 252.274 288.009C252.047 295.781 247.839 304.989 245.814 312.125L251.439 313.207C254.056 304.94 259.704 295.632 260.076 285.978C257.908 285.265 253.21 280.965 252.731 280.232Z" fill="#E68969"/>
<path fill-rule="evenodd" clip-rule="evenodd" d="M292.7 167.796C288.907 166.047 284.014 165.433 277.774 166.434C262.742 168.863 259.374 180.681 260.365 192.401C260.935 199.004 261.395 204.737 264.763 209.917C266.394 212.377 276.321 222.964 283.377 222.964C291.072 222.929 300.324 211.114 301.674 207.843C303.194 204.153 303.8 199.589 304.049 192.821C304.085 192.335 304.085 191.883 304.085 191.433C304.19 181.199 301.211 171.649 292.7 167.796Z" fill="#FFA578"/>
<path fill-rule="evenodd" clip-rule="evenodd" d="M292.7 167.795C287.527 166.407 280.895 166.469 272.492 169.025C272.492 169.025 279.405 190.327 304.084 191.43C304.19 181.198 301.211 171.648 292.7 167.795Z" fill="#E68969"/>
<path fill-rule="evenodd" clip-rule="evenodd" d="M290.53 359.043C277.009 384.482 279.985 400.594 280.402 434.573C280.68 457.059 280.468 463.188 279.127 478.668C278.71 483.479 277.218 487.441 276.914 491.428C276.597 495.614 277.484 499.83 277.708 505.263C278.315 511.042 275.465 515.478 274.37 520.456C268.793 545.86 274.972 564.176 268.876 583.538C266.881 589.861 264.513 589.297 263.475 592.027C262.077 595.706 263.38 600.2 261.927 607.506C260.038 616.962 254.872 626.571 256.709 631.83C257.886 635.204 266.73 644.542 271.459 644.542C276.934 644.542 276.466 635.733 276.929 632.068C277.385 628.48 277.872 601.859 278.055 599.773C278.726 592.079 301.164 535.633 303.953 515.637C306.594 496.684 305.228 487.879 309.938 465.634C316.24 435.849 321.161 408.584 322.036 382.271L318.711 359.134L290.53 359.043Z" fill="#FFA578"/>
<path fill-rule="evenodd" clip-rule="evenodd" d="M272.573 631.862C262.823 631.862 260.243 616.247 259.918 614.992C257.785 621.758 255.358 627.97 256.709 631.831C257.886 635.206 266.731 644.54 271.46 644.54C276.935 644.54 276.466 635.735 276.932 632.07C277.001 631.51 277.073 630.347 277.143 628.852C275.843 629.922 274.507 631.862 272.573 631.862Z" fill="#EB4201"/>
<path fill-rule="evenodd" clip-rule="evenodd" d="M272.573 631.862C271.492 631.86 270.424 631.651 269.438 631.247C269.565 632.287 269.538 633.337 269.357 634.37C268.92 636.993 265.349 638.371 262.817 637.761C261.932 637.54 261.072 637.245 260.246 636.881C263.563 640.579 268.384 644.543 271.464 644.543C276.939 644.543 276.471 635.738 276.936 632.073C277.006 631.513 277.078 630.35 277.147 628.855C275.843 629.922 274.507 631.862 272.573 631.862Z" fill="#181F79"/>
<path fill-rule="evenodd" clip-rule="evenodd" d="M331.785 331.988C323.338 333.969 272.292 341.366 253.638 331.531C252.228 338.991 237.507 349.357 237.507 373.035C237.507 407.569 253.5 476.863 253.5 476.863C253.5 476.863 289.177 485.892 314.421 478.204C324.633 433.332 338.696 386.55 334.513 352.624C334.387 351.606 331.969 333.076 331.785 331.988Z" fill="#5CCFFE"/>
<path fill-rule="evenodd" clip-rule="evenodd" d="M331.848 332.41C331.708 332.55 331.619 332.702 331.468 332.844C313.675 349.483 285.667 350.235 290.523 359.051C293.987 365.313 312.55 376.993 317.219 380.918C327.271 389.362 298.808 400.455 300.762 420.151C301.669 429.3 296.559 445.852 293.876 454.706C289.757 468.31 268.624 467.309 259.097 478.08C270.121 480.248 295.268 484.039 314.422 478.206C324.633 433.334 338.696 386.552 334.513 352.626C334.4 351.672 332.273 335.383 331.848 332.41Z" fill="#4497B7"/>
<path fill-rule="evenodd" clip-rule="evenodd" d="M334.552 236.501C325.242 227.195 305.19 229.724 305.19 229.724C297.7 235.909 283.016 245.472 283.016 245.472L261.479 239.325C261.479 239.325 240.029 240.019 237.435 258.421C236.566 264.586 250.413 263.783 250.413 272.606C250.413 278.411 253.783 283.483 258.426 286.948C259.915 295.51 260.473 304.185 260.093 312.847C259.366 324.519 251.688 323.576 252.89 330.088C254.944 341.174 326.589 338.881 332.595 332.38C338.949 325.501 332.706 284.417 329.967 262.866C328.34 250.077 339.841 241.793 334.552 236.501Z" fill="#FE8046"/>
<path fill-rule="evenodd" clip-rule="evenodd" d="M334.552 236.501C325.242 227.195 305.189 229.724 305.189 229.724C297.699 235.909 283.015 245.472 283.015 245.472L261.479 239.325C257.208 239.627 253.049 240.722 249.258 242.544C250.986 243.141 254.59 245.644 257.988 245.914C264.163 246.401 271.05 250.643 270.399 257.243C270.471 258.408 270.957 259.521 271.785 260.41C279.18 264.544 274.255 279.808 265.523 283.623C259.569 286.22 288.551 302.707 288.551 318.719C288.551 325.515 306.186 318.77 312.206 314.577C317.652 310.78 321.293 314.353 315.924 318.094C305.932 325.057 295.999 332.186 277.933 332.407C272.657 332.648 267.461 333.684 262.556 335.475C282.759 339.985 327.881 337.482 332.593 332.379C338.946 325.5 332.704 284.416 329.965 262.865C328.34 250.077 339.84 241.793 334.552 236.501ZM322.559 269.135C320.179 272.35 318.189 276.855 319.256 280.772C320.906 286.848 315.865 288.988 310.136 285.571C306.843 283.606 293.932 290.602 286.414 289.445C279.669 288.405 284.297 285.413 286.674 285.705C294.327 286.651 309.899 270.556 313.078 263.694C314.747 260.091 321.207 258.782 323.473 261.139C325.514 262.431 324.366 266.701 322.559 269.135Z" fill="#EB4201"/>
<path fill-rule="evenodd" clip-rule="evenodd" d="M282.835 205.883C281.476 205.796 280.132 206.177 279.066 206.951C278.512 207.637 280.028 208.016 280.788 208.064C281.217 208.1 281.642 208.163 282.061 208.252C282.706 208.39 283.378 208.39 284.023 208.252C284.442 208.163 284.866 208.1 285.294 208.064C286.054 208.016 287.39 207.734 287.02 206.951C286.865 206.626 284.877 205.874 282.835 205.883Z" fill="#E68969"/>
<path fill-rule="evenodd" clip-rule="evenodd" d="M391.855 218.914C390.35 220.958 388.967 223.074 387.711 225.254C386.086 228.001 387.806 228.36 389.306 226.675C391.116 224.7 392.752 222.598 394.199 220.388C395.115 219.005 394.72 218.378 394.199 217.963C393.678 217.549 392.635 217.823 391.855 218.914Z" fill="#FFA578"/>
<path fill-rule="evenodd" clip-rule="evenodd" d="M392.312 223.87C390.378 226.629 388.265 228.982 386.327 231.763C384.495 234.399 386.105 234.767 387.76 233.202C390.099 230.933 392.261 228.518 394.231 225.974C395.25 224.658 394.86 223.979 394.334 223.504C393.792 223.02 393.08 222.774 392.312 223.87Z" fill="#FFA578"/>
<path fill-rule="evenodd" clip-rule="evenodd" d="M393.959 227.401C392.106 229.803 390.191 231.668 388.332 234.09C386.579 236.382 388.171 237.061 389.771 235.738C392.019 233.823 394.103 231.752 396.003 229.545C396.982 228.406 396.59 227.761 396.067 227.296C395.946 227.137 395.783 227.01 395.593 226.925C395.403 226.841 395.192 226.802 394.981 226.812C394.77 226.823 394.565 226.882 394.387 226.985C394.208 227.088 394.061 227.231 393.959 227.401Z" fill="#FFA578"/>
<path fill-rule="evenodd" clip-rule="evenodd" d="M395.237 231.242C393.384 233.643 392.376 234.789 390.522 237.214C388.768 239.506 390.346 239.943 391.947 238.619C393.855 236.991 395.596 235.208 397.149 233.292C398.132 232.154 397.739 231.51 397.216 231.043C396.673 230.561 395.972 230.288 395.237 231.242Z" fill="#FFA578"/>
<path fill-rule="evenodd" clip-rule="evenodd" d="M270.268 164.127C270.268 164.127 280.062 190.733 316.194 187.342C316.194 187.34 311.911 152.937 270.268 164.127Z" fill="#CECDD3"/>
<path d="M114.867 466.022C134.402 463.113 147.655 446.294 144.468 428.456C141.282 410.619 122.862 398.517 103.328 401.427C83.7927 404.337 70.5398 421.155 73.7263 438.993C76.9129 456.831 95.3322 468.932 114.867 466.022Z" fill="#F5C825"/>
<path d="M177.04 41.9706C177.04 37.7681 175.212 33.7375 171.957 30.7656C168.703 27.7937 164.29 26.1237 159.687 26.123H59.4554C54.8527 26.1235 50.4388 27.7934 47.1844 30.7653C43.93 33.7373 42.1017 37.7679 42.1017 41.9706V79.4743C42.1022 83.6767 43.9308 87.7068 47.1851 90.6782C50.4395 93.6496 54.8532 95.3191 59.4554 95.3193H159.687C164.289 95.3188 168.703 93.6493 171.957 90.6779C175.211 87.7065 177.039 83.6765 177.04 79.4743V66.9578L202.351 44.6546L177.04 48.0593V41.9706Z" fill="white"/>
<path d="M162.659 70.9297H105.926V76.7928H162.659V70.9297Z" fill="#5CCFFE"/>
<path d="M162.659 62.1738H105.926V68.037H162.659V62.1738Z" fill="#5CCFFE"/>
<path d="M162.659 53.4141H105.926V59.2746H162.659V53.4141Z" fill="#5CCFFE"/>
<path d="M145.489 44.6562H105.926V50.5168H145.489V44.6562Z" fill="#5CCFFE"/>
<path d="M87.9581 37.7832H66.8415C60.8068 37.7832 55.9146 42.2503 55.9146 47.7607V73.6829C55.9146 79.1934 60.8068 83.6604 66.8415 83.6604H87.9581C93.9929 83.6604 98.885 79.1934 98.885 73.6829V47.7607C98.885 42.2503 93.9929 37.7832 87.9581 37.7832Z" fill="#FE8046"/>
</svg>
