<svg width="428" height="334" viewBox="0 0 428 334" fill="none" xmlns="http://www.w3.org/2000/svg">
<g clip-path="url(#clip0_83_8753)">
<path d="M374.89 0H28C12.536 0 0 12.536 0 28V234.198C0 252.633 17.6596 266.413 36.0071 264.617C69.4991 261.34 116.752 262.377 166.962 277.955C171.752 279.437 176.563 281.055 181.394 282.809C271.214 315.473 355.158 328.288 427.531 290.542C427.583 290.51 427.615 290.453 427.615 290.392L427.539 27.9922C427.535 12.5314 415 0.00030375 399.539 0.000186668L374.89 0Z" fill="#228FF8"/>
<path d="M138.054 314.86C139.989 315.306 139.796 316.221 131.105 317.96C118.202 320.543 158.188 328.856 167.712 328.559C171.482 328.443 186.082 326.15 182.425 325.228C173.663 323.018 165.726 318.166 165.726 318.166L188.989 315.496C188.989 315.496 182.409 313.205 183.738 312.742C188.195 311.193 201.391 306.51 201.391 306.51H113.787C125.645 312.726 129.795 312.956 138.054 314.86Z" fill="#CECDD3"/>
<path d="M247.813 55.8867H100.985V107.643H247.813V55.8867Z" fill="#5CCFFE"/>
<path d="M141.042 118.902H100.985V163.413H141.042V118.902Z" fill="#5CCFFE"/>
<path d="M192.399 118.902H152.342V163.413H192.399V118.902Z" fill="#5CCFFE"/>
<path d="M246.131 118.902H206.075V163.413H246.131V118.902Z" fill="#5CCFFE"/>
<path d="M244.556 200.367H204.498V244.877H244.556V200.367Z" fill="#5CCFFE"/>
<path d="M244.556 289.49H204.498V334H244.556V289.49Z" fill="#5CCFFE"/>
<path d="M198.51 200.367H102.918V244.877H198.51V200.367Z" fill="#5CCFFE"/>
<path d="M326.028 89.0254H254.474V119.184H326.028V89.0254Z" fill="#5CCFFE"/>
<path d="M326.028 153.955H254.474V223.314H326.028V153.955Z" fill="#5CCFFE"/>
<path d="M326.028 251.617H254.474V320.976H326.028V251.617Z" fill="#5CCFFE"/>
<path d="M174.479 212.396C169.19 212.399 164.114 214.481 160.348 218.194L158.783 219.734C155.005 223.458 149.913 225.547 144.608 225.55C141.351 225.55 138.142 226.339 135.256 227.848C133.923 228.547 132.378 228.727 130.92 228.354L126.489 227.22L126.364 227.188C120.415 225.712 114.184 228.227 110.609 233.232L106.72 238.674H192.466V205.676L183.632 210.192C180.798 211.64 177.661 212.396 174.479 212.396Z" fill="#5342F2"/>
<path d="M176.997 225.575L171.067 225.639C168.055 225.673 165.174 226.874 163.029 228.988C160.853 231.133 157.921 232.336 154.865 232.337H136.692C132.244 232.337 127.817 232.942 123.533 234.135L107.231 238.671H192.466V219.299L181.947 224.408C180.403 225.157 178.713 225.556 176.997 225.575Z" fill="#FE8046"/>
<path d="M314.389 94.502L314.405 97.9684C316.08 97.9927 317.678 98.6737 318.856 99.8647C320.033 101.056 320.696 102.661 320.701 104.336C320.712 106.011 320.064 107.623 318.898 108.825C317.732 110.028 316.14 110.724 314.465 110.764L314.483 114.23C317.075 114.181 319.542 113.113 321.351 111.258C323.16 109.403 324.165 106.909 324.148 104.318C324.14 101.728 323.112 99.2444 321.285 97.4068C319.458 95.5693 316.98 94.5256 314.389 94.502Z" fill="#181F79"/>
<path d="M314.369 110.768C312.676 110.769 311.052 110.099 309.853 108.905C308.654 107.711 307.978 106.09 307.972 104.398C307.962 102.706 308.623 101.079 309.81 99.8731C310.998 98.6675 312.615 97.9818 314.308 97.9664C314.34 97.9664 314.372 97.9688 314.405 97.9688L314.388 94.5024C314.356 94.5024 314.324 94.5 314.289 94.5C311.68 94.523 309.187 95.5798 307.357 97.4386C305.526 99.2973 304.508 101.806 304.526 104.414C304.533 107.023 305.576 109.522 307.424 111.363C309.272 113.204 311.776 114.237 314.385 114.234C314.42 114.234 314.452 114.232 314.485 114.231L314.466 110.765L314.369 110.768Z" fill="white"/>
<path d="M290.684 94.5098V97.977C292.34 98.0352 293.91 98.7347 295.06 99.9278C296.211 101.121 296.853 102.714 296.85 104.372C296.853 106.064 296.185 107.688 294.991 108.889C293.798 110.089 292.177 110.766 290.484 110.773C288.792 110.766 287.171 110.088 285.978 108.888C284.786 107.688 284.117 106.064 284.12 104.372C284.12 104.284 284.123 104.196 284.128 104.107H280.679C280.676 104.195 280.671 104.284 280.671 104.372C280.667 106.98 281.697 109.484 283.536 111.334C285.375 113.184 287.873 114.229 290.482 114.239C293.092 114.229 295.59 113.184 297.43 111.334C299.27 109.484 300.301 106.98 300.296 104.372C300.3 101.798 299.296 99.3256 297.5 97.4825C295.703 95.6394 293.257 94.5724 290.684 94.5098Z" fill="#FE8046"/>
<path d="M280.679 104.106H284.126C284.191 102.461 284.888 100.905 286.072 99.7624C287.257 98.6193 288.836 97.9773 290.483 97.9703C290.55 97.9703 290.615 97.9735 290.681 97.9758V94.5087C290.614 94.5087 290.549 94.5039 290.483 94.5039C287.92 94.5143 285.462 95.523 283.632 97.3159C281.801 99.1088 280.742 101.545 280.679 104.106Z" fill="white"/>
<path d="M256.797 104.281H260.244C260.264 102.605 260.942 101.004 262.132 99.8238C263.322 98.6433 264.929 97.9776 266.605 97.9703C266.647 97.9703 266.686 97.9735 266.728 97.9735V94.5063C266.688 94.5063 266.649 94.5039 266.605 94.5039C264.012 94.5147 261.528 95.5473 259.691 97.3778C257.855 99.2082 256.815 101.689 256.797 104.281Z" fill="white"/>
<path d="M266.728 94.5039V97.9711C268.398 98.0096 269.987 98.7008 271.154 99.8965C272.321 101.092 272.973 102.697 272.971 104.368C272.974 106.06 272.305 107.685 271.112 108.885C269.918 110.085 268.298 110.763 266.605 110.77C264.913 110.762 263.292 110.084 262.099 108.884C260.906 107.684 260.238 106.06 260.241 104.368C260.241 104.338 260.244 104.309 260.244 104.279H256.796C256.796 104.309 256.794 104.338 256.794 104.368C256.789 106.976 257.819 109.48 259.658 111.33C261.498 113.18 263.996 114.225 266.605 114.236C269.214 114.226 271.713 113.181 273.553 111.331C275.393 109.481 276.423 106.977 276.418 104.368C276.422 101.781 275.408 99.296 273.595 97.4503C271.782 95.6046 269.315 94.5462 266.728 94.5039Z" fill="#2B1BED"/>
<path d="M247.813 59.2402H100.986V59.4236H247.813V59.2402Z" fill="white"/>
<path d="M247.813 67.5312H100.986V67.7146H247.813V67.5312Z" fill="white"/>
<path d="M247.813 75.8223H100.986V76.0056H247.813V75.8223Z" fill="white"/>
<path d="M247.813 84.1133H100.985V84.2966H247.813V84.1133Z" fill="white"/>
<path d="M247.813 92.4082H100.985V92.5915H247.813V92.4082Z" fill="white"/>
<path d="M247.813 100.697H100.986V100.881H247.813V100.697Z" fill="white"/>
<path d="M119.935 124.645C115.542 124.672 111.333 126.414 108.205 129.498C105.078 132.583 103.278 136.767 103.191 141.158C103.104 145.55 104.735 149.801 107.737 153.008C110.74 156.215 114.876 158.122 119.265 158.324L119.225 156.669C115.276 156.462 111.563 154.725 108.874 151.825C106.185 148.926 104.733 145.093 104.825 141.14C104.917 137.187 106.547 133.426 109.368 130.656C112.19 127.885 115.98 126.323 119.935 126.301C122.662 126.306 125.338 127.049 127.677 128.451C130.016 129.853 131.932 131.862 133.222 134.266L134.755 133.644C133.341 130.935 131.212 128.665 128.6 127.079C125.988 125.493 122.991 124.651 119.935 124.645Z" fill="white"/>
<path d="M133.222 134.268C134.466 136.576 135.093 139.168 135.04 141.79C134.987 144.413 134.256 146.977 132.919 149.233C131.582 151.49 129.683 153.363 127.408 154.669C125.133 155.975 122.559 156.671 119.935 156.688C119.697 156.688 119.46 156.681 119.225 156.671L119.265 158.327C119.488 158.336 119.711 158.344 119.935 158.344C122.829 158.326 125.669 157.563 128.183 156.129C130.697 154.696 132.799 152.64 134.287 150.159C135.776 147.678 136.601 144.856 136.683 141.964C136.765 139.072 136.101 136.208 134.755 133.646L133.222 134.268Z" fill="#FE8046"/>
<path d="M187.763 136.197C188.551 138.478 188.785 140.915 188.444 143.305C188.103 145.694 187.197 147.968 185.802 149.939C184.406 151.909 182.562 153.518 180.42 154.633C178.279 155.749 175.903 156.338 173.488 156.352H173.454L173.486 158.008H173.488C176.162 157.992 178.793 157.341 181.165 156.108C183.537 154.875 185.581 153.095 187.129 150.916C188.677 148.737 189.685 146.221 190.068 143.576C190.452 140.93 190.2 138.232 189.335 135.703L187.763 136.197Z" fill="#181F79"/>
<path d="M173.488 124.307C169.033 124.325 164.768 126.109 161.627 129.267C158.486 132.426 156.726 136.701 156.734 141.155C156.726 145.608 158.485 149.883 161.625 153.042C164.766 156.201 169.031 157.985 173.486 158.004L173.454 156.348C169.442 156.315 165.606 154.697 162.783 151.848C159.96 148.998 158.378 145.148 158.382 141.137C158.387 137.127 159.977 133.28 162.807 130.437C165.637 127.594 169.477 125.985 173.488 125.961C176.636 125.971 179.703 126.961 182.262 128.795C184.821 130.629 186.744 133.214 187.763 136.192L189.335 135.699C188.211 132.385 186.079 129.506 183.238 127.464C180.397 125.421 176.988 124.317 173.488 124.307Z" fill="white"/>
<path d="M226.391 124.645C221.963 124.673 217.724 126.442 214.591 129.571C211.457 132.699 209.682 136.935 209.647 141.362C209.613 145.789 211.323 150.051 214.408 153.227C217.493 156.404 221.704 158.239 226.131 158.335L226.103 156.679C222.116 156.578 218.328 154.914 215.557 152.046C212.786 149.178 211.254 145.336 211.292 141.348C211.33 137.361 212.934 133.548 215.759 130.733C218.584 127.918 222.403 126.326 226.391 126.301C229.169 126.307 231.892 127.079 234.26 128.531C236.628 129.984 238.549 132.061 239.813 134.534L241.384 133.989C240.003 131.19 237.868 128.832 235.219 127.181C232.57 125.53 229.513 124.652 226.391 124.645Z" fill="white"/>
<path d="M239.814 134.539C241.003 136.849 241.579 139.425 241.489 142.02C241.399 144.616 240.645 147.146 239.299 149.367C237.952 151.589 236.059 153.428 233.8 154.711C231.54 155.993 228.99 156.674 226.392 156.691C226.294 156.691 226.199 156.686 226.104 156.683L226.132 158.34C226.218 158.342 226.303 158.346 226.392 158.346C229.253 158.329 232.062 157.584 234.556 156.181C237.049 154.778 239.145 152.764 240.645 150.328C242.144 147.892 242.999 145.114 243.129 142.257C243.259 139.399 242.659 136.556 241.386 133.994L239.814 134.539Z" fill="#2B1BED"/>
<path d="M276.688 59.2402H254.474V61.0845H276.688V59.2402Z" fill="#5CCFFE"/>
<path d="M322.472 59.2402H318.421V61.0845H322.472V59.2402Z" fill="#5CCFFE"/>
<path d="M313.839 59.2402H283.972V61.0845H313.839V59.2402Z" fill="#5CCFFE"/>
<path d="M322.472 63.2227H305.137V65.0669H322.472V63.2227Z" fill="#5CCFFE"/>
<path d="M299.653 63.2227H254.474V65.0669H299.653V63.2227Z" fill="#5CCFFE"/>
<path d="M322.472 67.1992H276.542V69.0435H322.472V67.1992Z" fill="#5CCFFE"/>
<path d="M266.332 67.1992H254.474V69.0435H266.332V67.1992Z" fill="#5CCFFE"/>
<path d="M322.472 71.1797H316.621V73.024H322.472V71.1797Z" fill="#5CCFFE"/>
<path d="M285.019 71.1797H254.474V73.024H285.019V71.1797Z" fill="#5CCFFE"/>
<path d="M311.589 71.1797H291.178V73.024H311.589V71.1797Z" fill="#5CCFFE"/>
<path d="M322.472 75.1582H302.434V77.0025H322.472V75.1582Z" fill="#5CCFFE"/>
<path d="M297.628 75.1582H263.257V77.0025H297.628V75.1582Z" fill="#5CCFFE"/>
<path d="M202.595 178.852H182.919V180.696H202.595V178.852Z" fill="#5CCFFE"/>
<path d="M243.145 178.852H239.556V180.696H243.145V178.852Z" fill="#5CCFFE"/>
<path d="M235.499 178.852H209.047V180.696H235.499V178.852Z" fill="#5CCFFE"/>
<path d="M243.145 182.832H227.792V184.678H243.145V182.832Z" fill="#5CCFFE"/>
<path d="M222.936 182.832H182.919V184.678H222.936V182.832Z" fill="#5CCFFE"/>
<path d="M243.145 186.811H202.465V188.655H243.145V186.811Z" fill="#5CCFFE"/>
<path d="M193.422 186.811H182.919V188.655H193.422V186.811Z" fill="#5CCFFE"/>
<path d="M167.338 178.852H162.158V180.696H167.338V178.852Z" fill="#5CCFFE"/>
<path d="M134.167 178.852H107.115V180.696H134.167V178.852Z" fill="#5CCFFE"/>
<path d="M157.701 178.852H139.624V180.696H157.701V178.852Z" fill="#5CCFFE"/>
<path d="M167.338 182.832H149.593V184.678H167.338V182.832Z" fill="#5CCFFE"/>
<path d="M145.336 182.832H114.894V184.678H145.336V182.832Z" fill="#5CCFFE"/>
<path d="M167.339 186.809H133.639V188.654H167.339V186.809Z" fill="#5CCFFE"/>
<path d="M128.584 186.809H107.115V188.654H128.584V186.809Z" fill="#5CCFFE"/>
<path d="M322.472 131.463H305.137V133.307H322.472V131.463Z" fill="#5CCFFE"/>
<path d="M299.653 131.463H254.474V133.307H299.653V131.463Z" fill="#5CCFFE"/>
<path d="M322.472 135.445H276.542V137.29H322.472V135.445Z" fill="#5CCFFE"/>
<path d="M266.331 135.445H254.474V137.29H266.331V135.445Z" fill="#5CCFFE"/>
<path d="M322.472 139.42H316.621V141.264H322.472V139.42Z" fill="#5CCFFE"/>
<path d="M285.019 139.42H254.474V141.264H285.019V139.42Z" fill="#5CCFFE"/>
<path d="M311.589 139.42H291.178V141.264H311.589V139.42Z" fill="#5CCFFE"/>
<path d="M322.472 143.402H302.434V145.247H322.472V143.402Z" fill="#5CCFFE"/>
<path d="M297.628 143.402H263.257V145.247H297.628V143.402Z" fill="#5CCFFE"/>
<path d="M322.952 234.398H281.053V236.243H322.952V234.398Z" fill="#5CCFFE"/>
<path d="M271.736 234.398H260.921V236.243H271.736V234.398Z" fill="#5CCFFE"/>
<path d="M322.951 238.379H317.613V240.224H322.951V238.379Z" fill="#5CCFFE"/>
<path d="M288.783 238.379H260.921V240.224H288.783V238.379Z" fill="#5CCFFE"/>
<path d="M313.024 238.379H294.405V240.224H313.024V238.379Z" fill="#5CCFFE"/>
<path d="M322.952 242.355H304.673V244.201H322.952V242.355Z" fill="#5CCFFE"/>
<path d="M300.288 242.355H268.932V244.201H300.288V242.355Z" fill="#5CCFFE"/>
<path d="M235.499 258.932H217.464V260.776H235.499V258.932Z" fill="#5CCFFE"/>
<path d="M211.759 258.932H164.749V260.776H211.759V258.932Z" fill="#5CCFFE"/>
<path d="M235.499 262.91H187.71V264.754H235.499V262.91Z" fill="#5CCFFE"/>
<path d="M177.087 262.91H164.749V264.754H177.087V262.91Z" fill="#5CCFFE"/>
<path d="M235.499 266.889H229.411V268.733H235.499V266.889Z" fill="#5CCFFE"/>
<path d="M196.531 266.889H164.749V268.733H196.531V266.889Z" fill="#5CCFFE"/>
<path d="M224.178 266.889H202.941V268.733H224.178V266.889Z" fill="#5CCFFE"/>
<path d="M235.499 270.867H214.652V272.713H235.499V270.867Z" fill="#5CCFFE"/>
<path d="M209.65 270.867H173.888V272.713H209.65V270.867Z" fill="#5CCFFE"/>
<path d="M322.472 159.107H310.554V168.932H322.472V159.107Z" fill="#2B1BED"/>
<path d="M322.472 168.932H310.554V184.112H322.472V168.932Z" fill="#FE8046"/>
<path d="M322.472 184.115H310.554V198.928H322.472V184.115Z" fill="#181F79"/>
<path d="M322.472 198.928H310.554V218.517H322.472V198.928Z" fill="white"/>
<path d="M309.45 159.107H297.534V163.056H309.45V159.107Z" fill="#2B1BED"/>
<path d="M309.45 163.055H297.535V175.298H309.45V163.055Z" fill="#FE8046"/>
<path d="M309.45 175.299H297.534V190.358H309.45V175.299Z" fill="#181F79"/>
<path d="M309.45 190.359H297.534V218.518H309.45V190.359Z" fill="white"/>
<path d="M296.43 159.107H284.512V160.607H296.43V159.107Z" fill="#2B1BED"/>
<path d="M296.43 160.607H284.512V175.054H296.43V160.607Z" fill="#FE8046"/>
<path d="M284.512 186.928V195.62H296.43V175.053H284.512V186.928Z" fill="#181F79"/>
<path d="M296.43 195.619H284.512V218.514H296.43V195.619Z" fill="white"/>
<path d="M283.411 159.107H271.493V164.403H283.411V159.107Z" fill="#2B1BED"/>
<path d="M283.411 164.402H271.493V177.133H283.411V164.402Z" fill="#FE8046"/>
<path d="M283.411 177.129H271.493V193.045H283.411V177.129Z" fill="#181F79"/>
<path d="M283.411 193.049H271.493V218.515H283.411V193.049Z" fill="white"/>
<path d="M270.389 189.375H258.471V218.513H270.389V189.375Z" fill="white"/>
<path d="M270.389 166.119H258.471V176.157H270.389V166.119Z" fill="#FE8046"/>
<path d="M270.389 159.107H258.471V166.117H270.389V159.107Z" fill="#2B1BED"/>
<path d="M270.389 176.158H258.471V189.38H270.389V176.158Z" fill="#181F79"/>
<path d="M225.097 207.758V237.889C233.084 237.889 239.557 231.144 239.557 222.824C239.557 214.503 233.084 207.758 225.097 207.758Z" fill="white"/>
<path d="M212.859 212.27L224.175 222.168V206.578C221.978 206.588 219.812 207.108 217.849 208.095C215.885 209.083 214.177 210.512 212.859 212.27Z" fill="#2B1BED"/>
<path d="M210.847 229.973C213.151 235.113 218.153 238.677 223.957 238.677V224.135L223.772 223.973L210.847 229.973Z" fill="#181F79"/>
<path d="M209.497 222.567C209.493 224.759 209.953 226.927 210.847 228.929L223.772 222.929L212.641 213.193C210.591 215.888 209.486 219.182 209.497 222.567Z" fill="#FE8046"/>
<path d="M222.734 82.2149C219.178 78.9214 215.503 75.5176 211.03 75.5176C206.685 75.5176 203.776 77.6409 200.964 79.6945C198.159 81.7438 195.51 83.6783 191.51 83.6783C187.304 83.6783 184.012 82.6147 180.818 81.5827C177.72 80.5844 174.799 79.6391 171.183 79.6391C167.394 79.6391 164.169 81.5467 161.049 83.3897C158.059 85.1579 154.964 86.986 151.48 86.986C148.004 86.986 145.188 86.2156 142.186 85.3947C139.103 84.5515 135.915 83.6783 131.873 83.6783C126.503 83.6783 119.394 87.5089 114.68 90.0514C112.722 91.1055 110.876 92.1026 110.379 92.1026H102.92V92.9018H110.379C111.07 92.9018 112.56 92.0995 115.056 90.754C119.691 88.255 126.697 84.4791 131.873 84.4791C135.808 84.4791 138.942 85.3361 141.984 86.1685C145.025 87.001 147.89 87.7852 151.48 87.7852C155.18 87.7852 158.369 85.9029 161.453 84.0801C164.478 82.2893 167.608 80.4383 171.183 80.4383C174.674 80.4383 177.542 81.365 180.579 82.3475C183.825 83.3945 187.177 84.4791 191.51 84.4791C195.77 84.4791 198.649 82.3752 201.431 80.3433C204.14 78.3641 206.942 76.3168 211.03 76.3168C215.192 76.3168 218.754 79.6142 222.196 82.8031C225.625 85.9797 228.866 88.9782 232.682 88.9782H244.737V88.1802H232.682C229.177 88.1802 226.047 85.2834 222.734 82.2149Z" fill="#181F79"/>
<path d="M110.379 91.5664C110.133 91.5676 109.897 91.6663 109.723 91.841C109.549 92.0158 109.451 92.2523 109.451 92.4988C109.451 92.7454 109.549 92.982 109.723 93.1568C109.896 93.3316 110.133 93.4304 110.379 93.4317C110.626 93.4304 110.862 93.3316 111.036 93.1568C111.209 92.9819 111.307 92.7454 111.307 92.4988C111.307 92.2523 111.209 92.0158 111.036 91.8411C110.862 91.6663 110.626 91.5676 110.379 91.5664Z" fill="#181F79"/>
<path d="M110.379 97.293C110.133 97.2941 109.897 97.3929 109.723 97.5676C109.549 97.7424 109.451 97.9789 109.451 98.2254C109.451 98.4718 109.549 98.7081 109.723 98.8827C109.897 99.0573 110.133 99.1559 110.379 99.1571C110.625 99.1559 110.861 99.0572 111.035 98.8827C111.209 98.7081 111.307 98.4718 111.307 98.2254C111.307 97.9789 111.209 97.7424 111.036 97.5676C110.862 97.3929 110.626 97.2941 110.379 97.293Z" fill="#2B1BED"/>
<path d="M131.874 91.5664C131.627 91.5676 131.391 91.6663 131.217 91.841C131.043 92.0158 130.945 92.2523 130.945 92.4988C130.945 92.7454 131.043 92.982 131.217 93.1568C131.391 93.3316 131.627 93.4304 131.874 93.4317C132.12 93.4303 132.356 93.3314 132.529 93.1565C132.703 92.9817 132.8 92.7452 132.799 92.4988C132.8 92.2525 132.703 92.0161 132.529 91.8413C132.356 91.6665 132.12 91.5677 131.874 91.5664Z" fill="#2B1BED"/>
<path d="M150.932 74.9844C150.685 74.9855 150.449 75.0843 150.275 75.2592C150.101 75.434 150.004 75.6706 150.004 75.9172C150.004 76.1636 150.102 76.3998 150.276 76.5744C150.45 76.7489 150.686 76.8474 150.932 76.8485C151.178 76.8472 151.414 76.7485 151.587 76.574C151.76 76.3994 151.858 76.1633 151.857 75.9172C151.858 75.6709 151.761 75.4344 151.587 75.2596C151.414 75.0847 151.178 74.9857 150.932 74.9844Z" fill="#2B1BED"/>
<path d="M171.445 83.1465C171.198 83.1477 170.962 83.2466 170.788 83.4214C170.614 83.5962 170.517 83.8327 170.517 84.0793C170.517 84.3258 170.615 84.5621 170.788 84.7367C170.962 84.9112 171.198 85.0097 171.445 85.0106C171.691 85.0096 171.927 84.911 172.1 84.7364C172.274 84.5618 172.371 84.3255 172.371 84.0793C172.371 83.833 172.274 83.5965 172.101 83.4216C171.927 83.2468 171.691 83.1478 171.445 83.1465Z" fill="#2B1BED"/>
<path d="M191.508 79.1035C191.261 79.1049 191.026 79.204 190.852 79.3791C190.678 79.5542 190.581 79.791 190.582 80.0375C190.582 80.2837 190.679 80.5199 190.853 80.6944C191.026 80.869 191.262 80.9676 191.508 80.9688C191.754 80.9682 191.991 80.8697 192.165 80.6951C192.339 80.5205 192.436 80.284 192.436 80.0375C192.437 79.7906 192.339 79.5535 192.165 79.3784C191.991 79.2032 191.755 79.1044 191.508 79.1035Z" fill="#2B1BED"/>
<path d="M211.031 88.8398C210.784 88.8411 210.548 88.9399 210.374 89.1147C210.2 89.2895 210.103 89.5261 210.103 89.7727C210.103 90.0192 210.2 90.2557 210.374 90.4305C210.548 90.6052 210.784 90.704 211.031 90.7051C211.277 90.704 211.513 90.6052 211.687 90.4305C211.861 90.2557 211.959 90.0192 211.959 89.7727C211.959 89.5261 211.861 89.2895 211.687 89.1147C211.513 88.9399 211.277 88.8411 211.031 88.8398Z" fill="#2B1BED"/>
<path d="M232.682 70.5625C232.436 70.5639 232.2 70.6628 232.027 70.8377C231.853 71.0125 231.756 71.249 231.757 71.4953C231.756 71.7416 231.853 71.9781 232.027 72.1529C232.2 72.3277 232.436 72.4265 232.682 72.4278C232.929 72.4266 233.165 72.3279 233.339 72.1531C233.513 71.9784 233.61 71.7419 233.61 71.4953C233.61 71.2488 233.513 71.0122 233.339 70.8374C233.165 70.6626 232.929 70.5638 232.682 70.5625Z" fill="#2B1BED"/>
<path d="M131.874 83.1465C131.627 83.1477 131.391 83.2466 131.217 83.4214C131.043 83.5962 130.945 83.8327 130.945 84.0793C130.945 84.3258 131.043 84.5621 131.217 84.7367C131.391 84.9112 131.627 85.0097 131.874 85.0106C132.12 85.0096 132.355 84.911 132.529 84.7364C132.703 84.5618 132.8 84.3255 132.799 84.0793C132.8 83.833 132.703 83.5965 132.529 83.4216C132.356 83.2468 132.12 83.1478 131.874 83.1465Z" fill="#181F79"/>
<path d="M151.48 86.4512C151.233 86.4523 150.997 86.5511 150.823 86.7258C150.649 86.9006 150.552 87.1371 150.552 87.3836C150.552 87.6302 150.649 87.8667 150.823 88.0414C150.997 88.2162 151.233 88.3151 151.48 88.3164C151.726 88.3149 151.962 88.2158 152.135 88.041C152.308 87.8662 152.405 87.6298 152.405 87.3836C152.406 87.1374 152.308 86.901 152.135 86.7262C151.962 86.5514 151.726 86.4525 151.48 86.4512Z" fill="#181F79"/>
<path d="M171.183 79.1035C170.936 79.1048 170.7 79.2038 170.526 79.3788C170.352 79.5539 170.254 79.7907 170.255 80.0375C170.255 80.2839 170.353 80.5202 170.527 80.6947C170.701 80.8692 170.936 80.9677 171.183 80.9688C171.429 80.9677 171.665 80.8692 171.839 80.6947C172.013 80.5202 172.111 80.2839 172.111 80.0375C172.111 79.7907 172.014 79.5539 171.84 79.3788C171.666 79.2038 171.43 79.1048 171.183 79.1035Z" fill="#181F79"/>
<path d="M191.508 83.1465C191.262 83.1478 191.026 83.2468 190.852 83.4216C190.679 83.5965 190.582 83.833 190.582 84.0793C190.582 84.3255 190.679 84.5618 190.853 84.7364C191.026 84.911 191.262 85.0096 191.508 85.0106C191.63 85.0104 191.751 84.9861 191.864 84.9392C191.976 84.8923 192.079 84.8236 192.165 84.7372C192.251 84.6507 192.319 84.5481 192.366 84.4352C192.412 84.3223 192.436 84.2014 192.436 84.0793C192.436 83.8326 192.339 83.5958 192.165 83.4209C191.991 83.246 191.755 83.1473 191.508 83.1465Z" fill="#181F79"/>
<path d="M211.031 74.9844C210.784 74.9856 210.548 75.0845 210.374 75.2593C210.2 75.4341 210.103 75.6706 210.103 75.9172C210.103 76.1635 210.201 76.3998 210.375 76.5742C210.548 76.7487 210.784 76.8473 211.031 76.8485C211.277 76.8473 211.513 76.7487 211.687 76.5742C211.861 76.3998 211.958 76.1635 211.959 75.9172C211.959 75.6706 211.861 75.4341 211.687 75.2593C211.513 75.0845 211.277 74.9856 211.031 74.9844Z" fill="#181F79"/>
<path d="M232.682 87.6484C232.436 87.6497 232.201 87.7484 232.027 87.9231C231.854 88.0977 231.756 88.3339 231.757 88.5801C231.756 88.8264 231.853 89.0629 232.027 89.2378C232.2 89.4126 232.436 89.5116 232.682 89.5129C232.929 89.5117 233.165 89.4128 233.339 89.238C233.513 89.0632 233.61 88.8267 233.61 88.5801C233.61 88.3337 233.512 88.0974 233.339 87.9228C233.165 87.7482 232.929 87.6496 232.682 87.6484Z" fill="#181F79"/>
<path d="M221.64 80.3501C218.754 84.7859 215.772 89.3754 211.029 89.3754C206.449 89.3754 204.47 87.2022 202.373 84.9C200.018 82.3151 197.582 79.6408 191.508 79.6408C188.757 79.6408 186.984 80.3576 184.932 81.1846C182.178 82.2957 178.749 83.6784 171.443 83.6784C167.397 83.6784 164.527 81.7387 161.49 79.6891C158.453 77.6394 155.317 75.5177 150.93 75.5177C146.241 75.5177 143.059 80.1669 139.975 84.6688C137.356 88.491 134.883 92.1011 131.872 92.1011C123.29 92.1011 119.826 94.1065 117.045 95.7172C115.089 96.8481 113.402 97.8254 110.377 97.8254H102.918V98.6235H110.379C113.613 98.6235 115.388 97.597 117.441 96.4067C120.144 94.8435 123.508 92.8988 131.874 92.8988C135.305 92.8988 137.894 89.1181 140.636 85.1149C143.596 80.7879 146.661 76.3137 150.932 76.3137C155.075 76.3137 158.112 78.3666 161.049 80.3513C164.051 82.3796 167.155 84.4764 171.445 84.4764C178.904 84.4764 182.409 83.0601 185.23 81.9236C187.207 81.126 188.913 80.4356 191.51 80.4356C197.236 80.4356 199.552 82.9781 201.79 85.4375C204.007 87.8719 206.1 90.1714 211.031 90.1714C216.202 90.1714 219.303 85.3995 222.303 80.7848C225.275 76.2124 228.084 71.8949 232.683 71.8949H244.737V71.0957H232.683C227.653 71.0969 224.595 75.8019 221.64 80.3501Z" fill="#2B1BED"/>
<path d="M110.379 83.2715C110.133 83.2726 109.897 83.3713 109.723 83.5458C109.549 83.7204 109.452 83.9567 109.451 84.2031C109.451 84.4497 109.549 84.6862 109.723 84.8609C109.897 85.0357 110.133 85.1344 110.379 85.1356C110.626 85.1344 110.862 85.0357 111.036 84.8609C111.21 84.6862 111.307 84.4496 111.307 84.2031C111.307 83.9568 111.209 83.7204 111.035 83.5459C110.862 83.3713 110.626 83.2726 110.379 83.2715Z" fill="white"/>
<path d="M131.874 88.0488C131.627 88.05 131.391 88.1487 131.217 88.3235C131.043 88.4982 130.946 88.7347 130.946 88.9813C130.946 89.2277 131.043 89.464 131.217 89.6386C131.391 89.8131 131.627 89.9118 131.874 89.9129C132.12 89.9117 132.355 89.8129 132.529 89.6383C132.702 89.4637 132.8 89.2274 132.799 88.9813C132.8 88.735 132.703 88.4985 132.529 88.3237C132.356 88.1489 132.12 88.0501 131.874 88.0488Z" fill="white"/>
<path d="M151.48 83.2715C151.233 83.2725 150.997 83.3711 150.823 83.5457C150.649 83.7203 150.552 83.9567 150.552 84.2031C150.552 84.4497 150.649 84.6863 150.823 84.861C150.997 85.0358 151.233 85.1345 151.48 85.1356C151.726 85.1343 151.962 85.0354 152.135 84.8606C152.309 84.6858 152.406 84.4494 152.405 84.2031C152.405 83.957 152.308 83.7209 152.135 83.5462C151.961 83.3716 151.726 83.2728 151.48 83.2715Z" fill="white"/>
<path d="M171.183 86.4473C170.936 86.4484 170.7 86.5472 170.526 86.7219C170.353 86.8966 170.255 87.1332 170.255 87.3797C170.255 87.6262 170.353 87.8627 170.527 88.0374C170.701 88.2122 170.936 88.3111 171.183 88.3125C171.429 88.3111 171.665 88.2122 171.839 88.0374C172.013 87.8627 172.111 87.6262 172.111 87.3797C172.111 87.1332 172.013 86.8966 171.839 86.7219C171.666 86.5472 171.43 86.4484 171.183 86.4473Z" fill="white"/>
<path d="M191.508 74.9785C191.262 74.9799 191.026 75.0788 190.852 75.2537C190.679 75.4285 190.582 75.665 190.582 75.9113C190.582 76.1574 190.679 76.3936 190.853 76.5681C191.026 76.7427 191.262 76.8413 191.508 76.8426C191.754 76.8419 191.99 76.7434 192.164 76.5688C192.338 76.3943 192.436 76.1578 192.436 75.9113C192.436 75.6646 192.339 75.4278 192.165 75.253C191.991 75.0781 191.755 74.9794 191.508 74.9785Z" fill="white"/>
<path d="M211.03 66.6875C210.784 66.6887 210.548 66.7874 210.374 66.9621C210.2 67.1369 210.102 67.3734 210.102 67.6199C210.102 67.8665 210.2 68.1031 210.374 68.2779C210.548 68.4527 210.784 68.5515 211.03 68.5528C211.277 68.5515 211.513 68.4527 211.687 68.2779C211.861 68.1031 211.959 67.8665 211.959 67.6199C211.959 67.3734 211.861 67.1369 211.687 66.9621C211.513 66.7874 211.277 66.6887 211.03 66.6875Z" fill="white"/>
<path d="M232.683 79.0996C232.436 79.101 232.2 79.2001 232.027 79.3752C231.853 79.5503 231.756 79.7871 231.757 80.0336C231.757 80.2797 231.854 80.516 232.027 80.6905C232.201 80.8651 232.436 80.9637 232.683 80.9649C232.929 80.9638 233.165 80.8653 233.339 80.6908C233.513 80.5163 233.61 80.28 233.611 80.0336C233.611 79.7868 233.513 79.55 233.339 79.3749C233.166 79.1999 232.929 79.1009 232.683 79.0996Z" fill="white"/>
<path d="M225.537 75.0188C221.6 71.5441 216.698 67.2207 211.031 67.2207C206.258 67.2207 203.89 69.2945 201.6 71.2979C199.236 73.3693 196.788 75.5112 191.51 75.5112C184.423 75.5112 181.052 79.2421 178.075 82.5355C175.92 84.9197 174.057 86.9796 171.183 86.9796C167.919 86.9796 165.371 86.2837 162.67 85.5463C159.534 84.6901 156.288 83.8046 151.479 83.8046C146.774 83.8046 143.772 85.0907 140.865 86.3352C138.169 87.4903 135.624 88.5804 131.873 88.5804C127.743 88.5804 123.79 87.2686 119.957 85.9964C116.566 84.8694 113.364 83.8046 110.378 83.8046H102.921V84.6014H110.379C113.23 84.6014 116.374 85.646 119.71 86.7524C123.594 88.0433 127.609 89.378 131.874 89.378C135.787 89.378 138.407 88.2566 141.178 87.0691C144.011 85.8562 146.939 84.6014 151.479 84.6014C156.17 84.6014 159.362 85.4723 162.464 86.319C165.215 87.0711 167.811 87.7776 171.182 87.7776C174.409 87.7776 176.381 85.5965 178.665 83.0707C181.528 79.9012 184.776 76.3093 191.511 76.3093C197.083 76.3093 199.645 74.0676 202.122 71.8992C204.402 69.9021 206.556 68.0175 211.031 68.0175C216.403 68.0175 221.178 72.2333 225.025 75.6288C227.946 78.2054 230.467 80.4308 232.683 80.4308H244.737V79.6332H232.683C230.761 79.6332 228.342 77.496 225.537 75.0188Z" fill="white"/>
<path d="M261.589 287.801H264.608V311.7H268.651V287.801H271.672L266.63 278.484L261.589 287.801Z" fill="white"/>
<path d="M277.036 281.031H280.054V311.703H284.1V281.031H287.119L282.077 271.715L277.036 281.031Z" fill="#FE8046"/>
<path d="M291.614 274.94H294.632V311.704H298.676V274.94H301.697L296.656 265.623L291.614 274.94Z" fill="#2B1BED"/>
<path d="M309.271 268.104H312.292V311.703H316.336V268.104H319.354L314.313 258.787L309.271 268.104Z" fill="#181F79"/>
<path d="M166.782 308.503C164.072 307.528 160.462 305.532 159.318 304.488C158.581 303.802 158.398 302.743 158.358 301.697C157.506 302.07 156.581 302.252 155.651 302.229C154.72 302.229 153.797 302.063 152.925 301.739C152.85 303.289 152.876 304.852 152.687 306.386C152.592 307.138 152.416 307.947 152.797 308.592C153.297 309.452 154.497 309.55 155.492 309.563C157.749 309.595 160.006 309.731 162.246 309.981C164.181 310.181 166.182 310.469 168.032 309.844C168.408 309.728 168.844 309.426 168.714 309.045C168.054 308.926 167.407 308.744 166.782 308.503Z" fill="#FFA578"/>
<path d="M166.782 308.502C166.723 308.492 166.665 308.474 166.61 308.449C165.77 308.619 164.912 308.683 164.056 308.639C160.298 308.448 156.618 305.886 155.651 302.227C154.72 302.227 153.797 302.06 152.925 301.736C152.85 303.287 152.876 304.849 152.687 306.383C152.592 307.135 152.416 307.944 152.797 308.59C153.297 309.45 154.497 309.547 155.492 309.561C157.749 309.592 160.006 309.729 162.246 309.978C164.181 310.179 166.182 310.467 168.032 309.842C168.408 309.726 168.844 309.424 168.714 309.042C168.054 308.924 167.407 308.743 166.782 308.502Z" fill="#E68969"/>
<path d="M169.222 308.784C168.826 308.616 165.28 307.335 163.269 306.628C162.517 306.364 161.93 307.394 161.928 308.001C157.344 307.983 153.36 304.88 152.732 305.344C151.569 306.204 150.664 308.909 152.966 309.955C153.267 310.093 153.986 310.177 156.425 310.187C158.606 310.195 160.761 311.449 162.116 311.454C164.449 311.463 168.6 311.479 169.231 311.483C169.99 311.486 170.503 309.328 169.222 308.784Z" fill="#F5C825"/>
<path d="M168.264 309.898C165.323 310.357 161.98 309.69 159.054 309.23C156.489 308.846 154.03 307.942 151.827 306.574C151.329 307.726 151.373 309.232 152.965 309.955C153.266 310.092 153.985 310.176 156.423 310.187C158.604 310.195 160.759 311.448 162.114 311.453L169.229 311.481C169.902 311.485 170.376 309.797 169.586 309.032C169.446 309.268 169.255 309.468 169.026 309.618C168.797 309.768 168.536 309.864 168.264 309.898Z" fill="#FE8046"/>
<path d="M156.927 310.091L151.642 308.547L152.755 311.418L157.229 311.436C157.009 311.024 156.904 310.559 156.927 310.091Z" fill="#FE8046"/>
<path fill-rule="evenodd" clip-rule="evenodd" d="M135.258 190.29C133.878 190.442 132.613 191.134 131.741 192.214C130.868 193.295 130.46 194.677 130.603 196.058C130.747 197.44 131.432 198.708 132.508 199.586C133.584 200.464 134.964 200.881 136.346 200.745C142.615 200.114 152.394 198.576 158.483 195.675L157.382 189.189C154.396 189.706 145.004 189.246 135.258 190.29Z" fill="#F5C825"/>
<path fill-rule="evenodd" clip-rule="evenodd" d="M177.14 170.313C177.229 170.164 177.285 169.997 177.306 169.824C177.326 169.652 177.311 169.477 177.26 169.31C177.209 169.144 177.124 168.99 177.01 168.859C176.897 168.727 176.757 168.62 176.6 168.546C176.683 168.412 176.731 168.26 176.739 168.103C176.747 167.946 176.715 167.789 176.645 167.648C176.576 167.507 176.471 167.386 176.342 167.296C176.213 167.207 176.063 167.151 175.906 167.136C176.558 166.067 177.076 165.106 176.124 164.84C175.658 164.71 173.883 167.816 173.164 168.798C171.946 170.461 171.58 168.149 170.751 169.664C169.851 171.306 169.346 173.008 169.722 175.095C169.901 176.081 169.202 176.687 168.766 177.446C166.91 180.686 160.672 185.578 155.505 190.278C153.735 191.89 155.661 195.993 157.468 195.903C162.024 195.675 169.768 183.082 172.842 179.007C175.19 175.897 176.208 173.839 177.099 172.708C177.932 171.647 178.024 170.841 177.14 170.313Z" fill="#FFA578"/>
<path fill-rule="evenodd" clip-rule="evenodd" d="M168.192 176.944C166.336 180.184 159.402 185.442 154.233 190.144C152.463 191.754 155.365 196.345 157.172 196.254C161.692 196.029 170.255 184.052 173.377 179.874C171.999 179.458 169.526 177.449 168.529 176.43C168.413 176.6 168.294 176.765 168.192 176.944Z" fill="#F5C825"/>
<path fill-rule="evenodd" clip-rule="evenodd" d="M157.033 193.081C153.001 196.067 149.424 195.314 144.839 195.905C139.992 196.532 136.315 199.267 131.824 198.932C133.028 200.704 134.71 200.907 136.348 200.741C142.182 200.153 151.056 198.779 157.169 196.252H157.174C161.693 196.027 170.256 184.05 173.379 179.871C172.681 179.611 172.024 179.255 171.425 178.812C167.863 184.58 161.976 189.423 157.033 193.081Z" fill="#FE8046"/>
<path fill-rule="evenodd" clip-rule="evenodd" d="M171.413 165.621C171.128 166.703 170.712 167.746 170.174 168.727L169.659 172.764L171.346 171.26C171.726 170.382 171.822 169.407 171.62 168.472C172.329 167.288 172.206 166.235 171.413 165.621Z" fill="#FFA578"/>
<path fill-rule="evenodd" clip-rule="evenodd" d="M175.452 165.493C174.841 166.349 174.278 167.239 173.765 168.159C173.099 169.316 173.765 169.486 174.371 168.781C175.098 167.955 175.76 167.074 176.35 166.145C176.722 165.564 176.573 165.293 176.376 165.111C176.171 164.923 175.767 165.032 175.452 165.493Z" fill="#FFA578"/>
<path fill-rule="evenodd" clip-rule="evenodd" d="M175.575 167.617C174.788 168.775 173.939 169.759 173.152 170.929C172.41 172.035 173.033 172.209 173.698 171.557C174.635 170.612 175.504 169.602 176.301 168.536C176.714 167.984 176.567 167.691 176.368 167.483C176.161 167.269 175.885 167.156 175.575 167.617Z" fill="#FFA578"/>
<path fill-rule="evenodd" clip-rule="evenodd" d="M176.178 169.141C175.429 170.147 174.66 170.925 173.909 171.941C173.199 172.902 173.811 173.208 174.452 172.659C175.349 171.863 176.185 171 176.95 170.077C177.346 169.602 177.198 169.321 176.999 169.116C176.954 169.047 176.892 168.991 176.819 168.953C176.745 168.915 176.664 168.896 176.581 168.899C176.499 168.901 176.419 168.925 176.348 168.967C176.277 169.009 176.219 169.069 176.178 169.141Z" fill="#FFA578"/>
<path fill-rule="evenodd" clip-rule="evenodd" d="M176.633 170.791C175.883 171.798 175.48 172.277 174.728 173.295C174.018 174.256 174.628 174.458 175.268 173.909C176.03 173.233 176.729 172.488 177.356 171.686C177.752 171.211 177.607 170.934 177.407 170.726C177.201 170.515 176.93 170.391 176.633 170.791Z" fill="#FFA578"/>
<path d="M154.792 301.333V301.318C154.709 301.36 154.642 301.415 154.558 301.457C154.642 301.415 154.709 301.374 154.792 301.333Z" fill="#D0AECF"/>
<path d="M133.46 304.522C132.18 303.361 132.565 301.096 132.475 299.632C132.368 297.918 127.273 299.363 127.236 299.624C126.911 301.88 127.108 304.191 126.837 306.456C126.748 307.199 126.575 308.009 126.953 308.654C127.463 309.518 128.653 309.608 129.658 309.618C131.915 309.642 134.168 309.769 136.411 310.003C138.346 310.205 140.355 310.476 142.197 309.853C142.569 309.727 142.997 309.417 142.872 309.05C140.378 308.685 134.931 305.856 133.46 304.522Z" fill="#FFA578"/>
<path d="M129.482 299.389C129.551 299.222 129.64 299.066 129.719 298.906C128.464 299.094 127.253 299.498 127.235 299.625C126.91 301.881 127.107 304.191 126.836 306.457C126.747 307.2 126.573 308.01 126.952 308.655C127.462 309.52 128.652 309.609 129.657 309.619C131.749 309.64 133.839 309.763 135.92 309.965C131.79 308.056 127.468 304.271 129.482 299.389Z" fill="#E68969"/>
<path d="M143.378 308.783C142.982 308.618 139.434 307.35 137.418 306.652C136.662 306.39 136.084 307.422 136.084 308.029C131.5 308.029 127.503 304.942 126.876 305.41C125.716 306.275 124.823 308.984 127.129 310.021C127.431 310.157 128.15 310.239 130.588 310.239C132.769 310.239 134.929 311.483 136.284 311.483H143.399C144.159 311.483 144.666 309.321 143.378 308.783Z" fill="#F5C825"/>
<path d="M142.162 309.781C140.916 310.108 139.606 310.104 138.361 309.769C137.498 309.538 132.399 308.921 130.777 308.836C129.855 308.813 128.953 308.558 128.155 308.095C127.357 307.632 126.688 306.976 126.209 306.188C125.488 307.361 125.309 309.206 127.128 310.024C127.429 310.16 128.148 310.242 130.587 310.242C132.768 310.242 134.928 311.486 136.283 311.486H143.398C144.068 311.486 144.534 309.816 143.764 309.047C143.274 309.378 142.733 309.626 142.162 309.781Z" fill="#FE8046"/>
<path d="M140.102 184.053C141.485 181.757 138.08 180.123 135.544 179.108C134.047 178.508 132.521 177.977 130.976 177.518C130.84 177.453 130.691 177.424 130.541 177.433C130.391 177.443 130.246 177.49 130.12 177.571C129.858 177.825 130.008 178.265 130.182 178.586C131.349 180.763 130.867 188.375 129.978 191.401C129.918 191.604 140.564 193.186 140.564 193.186C140.564 193.186 138.402 186.877 140.102 184.053Z" fill="#FFA578"/>
<path d="M136.817 180.044C135.53 179.547 132.298 177.91 130.976 177.517C130.688 177.431 130.335 177.363 130.12 177.57C129.858 177.824 130.008 178.264 130.182 178.585C131.349 180.762 130.867 188.374 129.978 191.4C129.936 191.541 135.054 192.346 138.186 192.825C136.746 190.633 135.824 183.328 136.817 180.044Z" fill="#E68969"/>
<path d="M127.405 258.324C128.039 267.818 126.076 270.43 125.577 275.896C125.069 281.443 126.561 302.418 126.561 302.418C126.561 302.418 130.21 303.341 133.208 302.418C133.208 302.418 136.191 276.728 137.534 271.406C139.548 263.41 141.332 237.863 141.332 237.863L125.083 236.387C125.083 236.387 126.772 248.831 127.405 258.324Z" fill="#2B1BED"/>
<path d="M127.405 258.325C128.039 267.819 126.076 270.431 125.577 275.897C125.069 281.444 126.561 302.419 126.561 302.419C127.684 302.674 128.831 302.81 129.983 302.825C129.319 295.022 129.21 286.105 132.776 279.571C133.908 277.499 134.753 275.511 134.753 273.034C134.753 268.043 130.097 263.93 132.421 256.864C133.312 254.164 136.298 252.582 139.022 254.181C139.321 254.36 139.608 254.559 139.882 254.775C140.753 246.158 141.332 237.865 141.332 237.865L125.083 236.389C125.083 236.389 126.772 248.832 127.405 258.325Z" fill="#181F79"/>
<path d="M146.181 170.905C144.109 169.676 142.054 166.34 141.297 164.474C139.339 159.634 132.136 161.628 129.716 166.781C128.47 169.433 128.637 172.564 129.475 175.371C130.537 178.936 132.825 182.329 136.249 183.78C137.351 184.246 142.791 185.226 144.07 184.453C145.851 183.374 145.793 175.654 146.652 173.544C147.394 171.722 146.696 171.211 146.181 170.905Z" fill="#FFA578"/>
<path d="M133.108 178.092C130.333 174.715 129.435 170.576 130.95 166.396C131.421 165.073 132.195 163.88 133.212 162.912C131.697 163.836 130.482 165.18 129.716 166.781C128.47 169.433 128.637 172.563 129.475 175.37C130.537 178.935 132.825 182.329 136.249 183.779C137.279 184.215 142.111 185.102 143.772 184.578C143.066 184.551 142.365 184.456 141.677 184.296C138.418 183.507 135.211 180.653 133.108 178.092Z" fill="#E68969"/>
<path d="M127.839 232.738C127.507 233.724 127.753 235.046 128.266 236.211C129.582 239.193 143.712 269.989 143.559 272.391C142.984 281.381 147.479 285.805 152.296 304.444C154.175 304.979 157.85 305.41 159.711 303.763C159.24 297.781 151.946 246.759 150.208 236.633C150.081 236.561 133.528 234.589 127.839 232.738Z" fill="#2B1BED"/>
<path d="M152.18 285.33C150.663 282.24 148.894 279.327 148.062 275.949C147.083 271.983 148.076 268.159 147.303 264.215C146.561 260.434 145.541 256.76 144.617 253.017C143.988 250.466 143.752 247.792 142.327 245.549C141.358 244.022 139.901 243.055 138.889 241.572C137.198 239.091 136.949 237.192 137.497 234.784C133.709 234.158 129.995 233.44 127.839 232.738C127.507 233.724 127.753 235.046 128.266 236.211C129.582 239.193 143.712 269.989 143.559 272.391C142.984 281.381 147.479 285.805 152.296 304.444C153.365 304.749 154.899 305.25 156.263 304.911C155.078 301.969 154.871 297.673 154.294 294.945C153.56 291.478 153.78 288.598 152.18 285.33Z" fill="#181F79"/>
<path d="M149.489 204.913C149.489 202.268 144.32 194.252 140.555 192.131C136.79 190.01 133.799 190.548 130.648 189.54C127.507 188.533 124.106 197.276 124.106 210.859C124.106 211.931 124.076 235.2 123.707 237.172C127.892 239.817 146.821 239.693 151.554 238.237C149.902 230.9 147.643 217.319 147.643 211.736C147.643 209.795 149.489 209.032 149.489 204.913Z" fill="#F5C825"/>
<path d="M130.648 189.54C127.507 188.533 124.106 197.276 124.106 210.859C124.106 211.931 124.076 235.2 123.707 237.172C125.503 238.307 130.013 238.931 134.952 239.159C134.952 233.796 130.764 231.829 130.764 227.123C130.764 224.214 134.636 221.138 134.395 218.833C133.938 214.489 134.63 212.297 137.054 208.033C138.126 206.145 131.774 189.9 130.648 189.54Z" fill="#FE8046"/>
<path d="M139.605 170.824C140.404 170.217 141.483 165.937 140.285 163.648C139.397 161.946 137.453 160.064 135.272 159.674C123.586 157.589 121.046 165.7 121.285 171.846C121.531 178.157 127.992 183.553 130.602 184.378C130.952 184.488 136.887 183.982 139.571 178.084C140.109 176.902 139.348 176.453 138.749 176.118C136.624 174.925 135.81 171.457 136.697 170.581C138.061 169.227 138.704 171.511 139.605 170.824Z" fill="#FE8046"/>
<path d="M128.813 174.257C128.918 173.267 129.595 171.153 129.803 170.179C130.708 165.902 126.889 162.447 123.317 164.605C121.196 165.885 119.555 173.205 124.098 178.993C125.789 181.146 129.325 184.429 131.228 184.425C133.205 184.421 128.398 178.249 128.813 174.257Z" fill="#EB4201"/>
<path d="M120.814 163.014C119.539 163.013 118.293 163.391 117.232 164.099C116.172 164.807 115.346 165.813 114.858 166.991C114.369 168.168 114.241 169.464 114.49 170.714C114.738 171.965 115.352 173.113 116.254 174.015C117.155 174.916 118.303 175.53 119.554 175.779C120.804 176.028 122.101 175.901 123.279 175.413C124.457 174.925 125.464 174.099 126.172 173.04C126.881 171.98 127.259 170.734 127.259 169.459C127.259 167.75 126.58 166.111 125.372 164.902C124.163 163.694 122.524 163.014 120.814 163.014Z" fill="#FE8046"/>
<path fill-rule="evenodd" clip-rule="evenodd" d="M135.523 192.334C134.164 192.325 132.854 192.843 131.869 193.779C130.884 194.715 130.301 195.997 130.242 197.355C129.957 203.646 130.059 213.541 132.047 219.987L138.625 219.838C138.548 216.808 140.364 207.586 140.747 197.795C140.774 197.091 140.66 196.388 140.41 195.729C140.16 195.07 139.78 194.468 139.292 193.958C138.805 193.449 138.22 193.042 137.573 192.763C136.925 192.484 136.228 192.338 135.523 192.334Z" fill="#F5C825"/>
<path fill-rule="evenodd" clip-rule="evenodd" d="M156.512 238.407C155.047 236.96 157.383 236.935 156.007 235.895C154.513 234.766 152.9 234.019 150.78 234.091C149.778 234.125 149.282 233.345 148.592 232.804C145.655 230.498 141.721 223.618 137.819 217.825C136.48 215.838 132.139 217.149 131.967 218.95C131.528 223.489 142.868 232.976 146.455 236.61C149.193 239.384 151.081 240.687 152.074 241.733C153.002 242.713 153.787 242.918 154.436 242.121C154.571 242.23 154.728 242.31 154.896 242.355C155.063 242.4 155.239 242.41 155.411 242.384C155.583 242.358 155.747 242.297 155.894 242.204C156.041 242.11 156.167 241.988 156.264 241.843C156.384 241.945 156.528 242.014 156.682 242.045C156.836 242.076 156.996 242.066 157.146 242.018C157.296 241.97 157.431 241.885 157.538 241.77C157.646 241.655 157.722 241.515 157.761 241.363C158.723 242.164 159.6 242.814 160.002 241.912C160.198 241.469 157.383 239.262 156.512 238.407Z" fill="#FFA578"/>
<path fill-rule="evenodd" clip-rule="evenodd" d="M138.137 216.584C136.799 214.598 131.836 216.804 131.662 218.603C131.227 223.105 141.84 233.313 145.52 237.01C146.133 235.707 148.481 233.552 149.631 232.713C149.483 232.574 149.334 232.431 149.172 232.305C146.236 230 142.04 222.377 138.137 216.584Z" fill="#F5C825"/>
<path fill-rule="evenodd" clip-rule="evenodd" d="M134.822 218.929C132.451 214.506 133.713 211.076 133.793 206.454C133.853 201.991 133.483 197.533 132.688 193.141C130.758 194.074 130.315 195.708 130.239 197.354C129.974 203.21 130.048 212.188 131.664 218.6C131.663 218.601 131.662 218.603 131.662 218.606C131.227 223.108 141.84 233.315 145.52 237.012C145.88 236.36 146.328 235.761 146.852 235.231C141.664 230.874 137.724 224.348 134.822 218.929Z" fill="#FE8046"/>
<path fill-rule="evenodd" clip-rule="evenodd" d="M153.092 234.365L154.335 236.251C155.149 236.754 156.1 236.99 157.054 236.924C158.126 237.798 159.186 237.829 159.91 237.133C158.88 236.695 157.909 236.132 157.017 235.456L153.092 234.365Z" fill="#FFA578"/>
<path fill-rule="evenodd" clip-rule="evenodd" d="M157.056 239.09C156.008 238.264 155.744 238.899 156.354 239.599C157.064 240.439 157.84 241.222 158.674 241.939C159.195 242.391 159.486 242.284 159.695 242.115C159.91 241.941 159.859 241.524 159.451 241.146C158.691 240.417 157.891 239.731 157.056 239.09Z" fill="#FFA578"/>
<path fill-rule="evenodd" clip-rule="evenodd" d="M154.405 238.086C153.419 237.191 153.157 237.781 153.707 238.532C154.505 239.596 155.377 240.603 156.316 241.546C156.804 242.035 157.115 241.934 157.349 241.765C157.593 241.592 157.745 241.336 157.333 240.961C156.3 240.015 155.451 239.033 154.405 238.086Z" fill="#FFA578"/>
<path fill-rule="evenodd" clip-rule="evenodd" d="M153.296 238.686C152.447 237.843 152.057 238.406 152.507 239.118C153.164 240.122 153.897 241.073 154.7 241.965C155.115 242.425 155.412 242.321 155.642 242.154C155.879 241.981 156.089 241.69 155.737 241.337C154.849 240.449 154.194 239.577 153.296 238.686Z" fill="#FFA578"/>
<path fill-rule="evenodd" clip-rule="evenodd" d="M151.834 239.3C150.987 238.46 150.698 239.034 151.15 239.746C151.708 240.598 152.343 241.397 153.045 242.135C153.459 242.595 153.756 242.491 153.987 242.325C154.225 242.151 154.389 241.901 154.036 241.549C153.147 240.661 152.732 240.191 151.834 239.3Z" fill="#FFA578"/>
<path d="M131.093 310.143L125.801 308.621L126.926 311.487H131.404C131.18 311.076 131.073 310.611 131.093 310.143Z" fill="#FE8046"/>
</g>
<defs>
<clipPath id="clip0_83_8753">
<rect width="428" height="334" fill="white"/>
</clipPath>
</defs>
</svg>
