<svg width="771" height="944" viewBox="0 0 771 944" fill="none" xmlns="http://www.w3.org/2000/svg">
<path d="M313.118 543.867H168.829C188.358 555.564 195.196 555.999 208.799 559.583C211.983 560.423 211.663 562.145 197.353 565.417C176.101 570.278 241.964 585.924 257.649 585.37C263.856 585.146 287.903 580.834 281.879 579.096C267.449 574.938 254.379 565.803 254.379 565.803L292.69 560.783C292.69 560.783 281.853 556.462 284.042 555.597C291.383 552.682 313.118 543.867 313.118 543.867Z" fill="#CECDD3"/>
<path d="M409.252 92.0135C397.947 90.2865 396.81 73.4531 367.797 73.4531C339.67 73.4531 335.09 100.647 335.09 100.647H493.953C476.28 100.647 466.739 92.015 450.224 87.699C433.71 83.383 420.554 93.742 409.252 92.0135Z" fill="white"/>
<path d="M247.191 126.121C226.488 126.121 225.678 138.748 217.613 140.04C209.548 141.332 200.162 133.566 188.38 136.806C176.598 140.045 169.789 146.517 157.18 146.517H270.527C270.527 146.517 267.257 126.121 247.191 126.121Z" fill="white"/>
<path fill-rule="evenodd" clip-rule="evenodd" d="M552.673 508.1C552.673 512.926 548.76 516.838 543.934 516.838C539.108 516.838 535.195 512.926 535.195 508.1V440.17C535.195 434.085 532.784 428.247 528.489 423.937L502.318 397.669C498.023 393.358 495.612 387.521 495.612 381.436V332.882C495.612 330.721 493.86 328.97 491.7 328.97C489.54 328.97 487.789 327.219 487.789 325.059V309.727C487.789 301.308 480.964 294.483 472.544 294.483C464.125 294.483 457.3 301.308 457.3 309.727V398.954C457.3 406.508 451.176 412.632 443.622 412.632C436.068 412.632 429.944 418.756 429.944 426.31V436.865C429.944 442.05 425.741 446.253 420.556 446.253C415.372 446.253 411.169 442.05 411.169 436.865V283.575C411.169 270.872 400.871 260.575 388.169 260.575H375.54C362.838 260.575 352.54 270.872 352.54 283.575V452.885C352.54 460.439 346.416 466.563 338.862 466.563C331.308 466.563 325.184 460.439 325.184 452.885V230.774C325.184 226.459 321.686 222.962 317.372 222.962C313.057 222.962 309.56 219.464 309.56 215.149V208.286C309.56 201.737 304.251 196.428 297.702 196.428C291.153 196.428 285.844 191.12 285.844 184.571V178.581C285.844 168.725 277.854 160.734 267.997 160.734H254.375C241.673 160.734 231.375 171.032 231.375 183.734V413.909C231.375 418.439 227.703 422.112 223.172 422.112C218.642 422.112 214.97 418.439 214.97 413.909V263.755C214.97 251.053 204.672 240.755 191.97 240.755H167.698C154.996 240.755 144.698 251.053 144.698 263.755V567.295C144.698 579.998 154.996 590.295 167.698 590.295H568.945C581.648 590.295 591.945 579.998 591.945 567.295V390.322C591.945 379.478 583.154 370.686 572.309 370.686C561.465 370.686 552.673 379.478 552.673 390.322L552.673 508.1Z" fill="#228FF8"/>
<path d="M265.443 172.391H251.615V201.421H265.443V172.391Z" fill="#CECDD3"/>
<path d="M265.443 254.215H251.615V283.245H265.443V254.215Z" fill="#5CCFFE"/>
<path d="M376.561 386.641H360.472V410.711H376.561V386.641Z" fill="#CECDD3"/>
<path d="M376.561 429.102H360.472V464.615H376.561V429.102Z" fill="#CECDD3"/>
<path d="M374.789 280.008H362.245V354.959H374.789V280.008Z" fill="#CECDD3"/>
<path d="M264.801 304.605H252.257V397.151H264.801V304.605Z" fill="#5CCFFE"/>
<path d="M457.643 440.805H439.96V502.251H457.643V440.805Z" fill="#CECDD3"/>
<path d="M403.777 293.98H388.345V376.699H403.777V293.98Z" fill="#5CCFFE"/>
<path d="M478.169 303.523H465.797V316.358H478.169V303.523Z" fill="#5CCFFE"/>
<path d="M478.169 340.469H465.797V397.237H478.169V340.469Z" fill="#CECDD3"/>
<path d="M478.169 322.508H465.797V335.338H478.169V322.508Z" fill="#CECDD3"/>
<path d="M564.056 458.262H561.366V467.97H564.056V458.262Z" fill="#CECDD3"/>
<path d="M564.056 472.207H561.366V481.922H564.056V472.207Z" fill="#CECDD3"/>
<path d="M188.607 356.562H170.968V369.041H188.607V356.562Z" fill="#CECDD3"/>
<path d="M188.607 333.93H170.968V346.408H188.607V333.93Z" fill="#CECDD3"/>
<path d="M188.607 311.289H170.968V323.768H188.607V311.289Z" fill="#CECDD3"/>
<path d="M188.607 288.648H170.968V301.129H188.607V288.648Z" fill="#5CCFFE"/>
<path d="M188.607 266.008H170.968V278.489H188.607V266.008Z" fill="#CECDD3"/>
<path d="M519.781 336.906H501.346V618.09H519.781V336.906Z" fill="#CECDD3"/>
<path d="M329.347 336.906H310.914V618.09H329.347V336.906Z" fill="#CECDD3"/>
<path d="M519.781 336.906H501.346V351.921H519.781V336.906Z" fill="#181F79"/>
<path d="M329.347 336.906H310.914V351.921H329.347V336.906Z" fill="#181F79"/>
<path d="M571.153 339.356L581.504 339.443V306.587L571.153 301.121V339.356Z" fill="#5342F2"/>
<path d="M571.22 336.906H249.226V339.325H571.22V336.906Z" fill="#CECDD3"/>
<path d="M553.75 310.047H550.251V336.903H553.75V310.047Z" fill="#CECDD3"/>
<path d="M562.454 310.047H558.955V336.903H562.454V310.047Z" fill="#CECDD3"/>
<path d="M571.155 310.047H567.658V336.903H571.155V310.047Z" fill="#CECDD3"/>
<path d="M549.397 310.047H545.898V336.903H549.397V310.047Z" fill="#5342F2"/>
<path d="M550.25 310.047H549.396V336.903H550.25V310.047Z" fill="#5342F2"/>
<path d="M554.602 310.047H553.75V336.903H554.602V310.047Z" fill="#CECDD3"/>
<path d="M563.305 310.047H562.454V336.903H563.305V310.047Z" fill="#CECDD3"/>
<path d="M558.099 310.047H554.601V336.903H558.099V310.047Z" fill="#5342F2"/>
<path d="M566.803 310.047H563.305V336.903H566.803V310.047Z" fill="#5342F2"/>
<path d="M558.955 310.047H558.1V336.903H558.955V310.047Z" fill="#5342F2"/>
<path d="M567.658 310.047H566.804V336.903H567.658V310.047Z" fill="#5342F2"/>
<path d="M545.047 310.047H541.548V336.903H545.047V310.047Z" fill="#CECDD3"/>
<path d="M541.547 310.047H540.694V336.903H541.547V310.047Z" fill="#5342F2"/>
<path d="M545.898 310.047H545.047V336.903H545.898V310.047Z" fill="#CECDD3"/>
<path d="M540.694 310.047H537.195V336.903H540.694V310.047Z" fill="#5342F2"/>
<path d="M536.342 310.047H532.846V336.903H536.342V310.047Z" fill="#CECDD3"/>
<path d="M532.846 310.047H531.99V336.903H532.846V310.047Z" fill="#5342F2"/>
<path d="M537.197 310.047H536.343V336.903H537.197V310.047Z" fill="#CECDD3"/>
<path d="M531.99 310.047H528.491V336.903H531.99V310.047Z" fill="#5342F2"/>
<path d="M527.637 310.047H524.141V336.903H527.637V310.047Z" fill="#CECDD3"/>
<path d="M524.141 310.047H523.287V336.903H524.141V310.047Z" fill="#5342F2"/>
<path d="M528.491 310.047H527.638V336.903H528.491V310.047Z" fill="#CECDD3"/>
<path d="M523.287 310.047H519.791V336.903H523.287V310.047Z" fill="#5342F2"/>
<path d="M518.937 310.047H515.437V336.903H518.937V310.047Z" fill="#CECDD3"/>
<path d="M515.436 310.047H514.583V336.903H515.436V310.047Z" fill="#5342F2"/>
<path d="M519.79 310.047H518.937V336.903H519.79V310.047Z" fill="#CECDD3"/>
<path d="M514.582 310.047H511.085V336.903H514.582V310.047Z" fill="#5342F2"/>
<path d="M510.232 310.047H506.733V336.903H510.232V310.047Z" fill="#CECDD3"/>
<path d="M506.734 310.047H505.88V336.903H506.734V310.047Z" fill="#5342F2"/>
<path d="M511.085 310.047H510.232V336.903H511.085V310.047Z" fill="#CECDD3"/>
<path d="M505.88 310.047H502.384V336.903H505.88V310.047Z" fill="#5342F2"/>
<path d="M501.528 310.047H498.031V336.903H501.528V310.047Z" fill="#CECDD3"/>
<path d="M498.031 310.047H497.178V336.903H498.031V310.047Z" fill="#5342F2"/>
<path d="M502.383 310.047H501.527V336.903H502.383V310.047Z" fill="#CECDD3"/>
<path d="M497.177 310.047H493.679V336.903H497.177V310.047Z" fill="#5342F2"/>
<path d="M492.825 310.047H489.328V336.903H492.825V310.047Z" fill="#CECDD3"/>
<path d="M489.328 310.047H488.475V336.903H489.328V310.047Z" fill="#5342F2"/>
<path d="M493.678 310.047H492.825V336.903H493.678V310.047Z" fill="#CECDD3"/>
<path d="M488.475 310.047H484.974V336.903H488.475V310.047Z" fill="#5342F2"/>
<path d="M484.121 310.047H480.624V336.903H484.121V310.047Z" fill="#CECDD3"/>
<path d="M480.624 310.047H479.771V336.903H480.624V310.047Z" fill="#5342F2"/>
<path d="M484.973 310.047H484.12V336.903H484.973V310.047Z" fill="#CECDD3"/>
<path d="M479.771 310.047H476.273V336.903H479.771V310.047Z" fill="#5342F2"/>
<path d="M475.418 310.047H471.919V336.903H475.418V310.047Z" fill="#CECDD3"/>
<path d="M471.918 310.047H471.065V336.903H471.918V310.047Z" fill="#5342F2"/>
<path d="M476.272 310.047H475.417V336.903H476.272V310.047Z" fill="#CECDD3"/>
<path d="M471.066 310.047H467.568V336.903H471.066V310.047Z" fill="#5342F2"/>
<path d="M466.715 310.047H463.216V336.903H466.715V310.047Z" fill="#CECDD3"/>
<path d="M463.217 310.047H462.361V336.903H463.217V310.047Z" fill="#5342F2"/>
<path d="M467.569 310.047H466.716V336.903H467.569V310.047Z" fill="#CECDD3"/>
<path d="M462.361 310.047H458.864V336.903H462.361V310.047Z" fill="#5342F2"/>
<path d="M458.01 310.047H454.514V336.903H458.01V310.047Z" fill="#CECDD3"/>
<path d="M454.513 310.047H453.66V336.903H454.513V310.047Z" fill="#5342F2"/>
<path d="M458.865 310.047H458.011V336.903H458.865V310.047Z" fill="#CECDD3"/>
<path d="M453.66 310.047H450.161V336.903H453.66V310.047Z" fill="#5342F2"/>
<path d="M449.308 310.047H445.81V336.903H449.308V310.047Z" fill="#CECDD3"/>
<path d="M445.81 310.047H444.956V336.903H445.81V310.047Z" fill="#5342F2"/>
<path d="M450.162 310.047H449.309V336.903H450.162V310.047Z" fill="#CECDD3"/>
<path d="M444.955 310.047H441.456V336.903H444.955V310.047Z" fill="#5342F2"/>
<path d="M440.603 310.047H437.105V336.903H440.603V310.047Z" fill="#CECDD3"/>
<path d="M437.106 310.047H436.251V336.903H437.106V310.047Z" fill="#5342F2"/>
<path d="M441.457 310.047H440.604V336.903H441.457V310.047Z" fill="#CECDD3"/>
<path d="M436.251 310.047H432.754V336.903H436.251V310.047Z" fill="#5342F2"/>
<path d="M431.901 310.047H428.402V336.903H431.901V310.047Z" fill="#CECDD3"/>
<path d="M428.402 310.047H427.551V336.903H428.402V310.047Z" fill="#5342F2"/>
<path d="M432.753 310.047H431.9V336.903H432.753V310.047Z" fill="#CECDD3"/>
<path d="M427.55 310.047H424.052V336.903H427.55V310.047Z" fill="#5342F2"/>
<path d="M423.196 310.047H419.697V336.903H423.196V310.047Z" fill="#CECDD3"/>
<path d="M419.697 310.047H418.846V336.903H419.697V310.047Z" fill="#5342F2"/>
<path d="M424.052 310.047H423.196V336.903H424.052V310.047Z" fill="#CECDD3"/>
<path d="M418.845 310.047H415.347V336.903H418.845V310.047Z" fill="#5342F2"/>
<path d="M414.494 310.047H410.997V336.903H414.494V310.047Z" fill="#CECDD3"/>
<path d="M410.998 310.047H410.142V336.903H410.998V310.047Z" fill="#5342F2"/>
<path d="M415.346 310.047H414.493V336.903H415.346V310.047Z" fill="#CECDD3"/>
<path d="M410.141 310.047H406.643V336.903H410.141V310.047Z" fill="#5342F2"/>
<path d="M405.791 310.047H402.292V336.903H405.791V310.047Z" fill="#CECDD3"/>
<path d="M402.291 310.047H401.438V336.903H402.291V310.047Z" fill="#5342F2"/>
<path d="M406.641 310.047H405.79V336.903H406.641V310.047Z" fill="#CECDD3"/>
<path d="M401.44 310.047H397.942V336.903H401.44V310.047Z" fill="#5342F2"/>
<path d="M397.088 310.047H393.589V336.903H397.088V310.047Z" fill="#CECDD3"/>
<path d="M393.59 310.047H392.734V336.903H393.59V310.047Z" fill="#5342F2"/>
<path d="M397.942 310.047H397.089V336.903H397.942V310.047Z" fill="#CECDD3"/>
<path d="M392.734 310.047H389.236V336.903H392.734V310.047Z" fill="#5342F2"/>
<path d="M388.383 310.047H384.885V336.903H388.383V310.047Z" fill="#CECDD3"/>
<path d="M384.884 310.047H384.031V336.903H384.884V310.047Z" fill="#5342F2"/>
<path d="M389.237 310.047H388.384V336.903H389.237V310.047Z" fill="#CECDD3"/>
<path d="M384.031 310.047H380.532V336.903H384.031V310.047Z" fill="#5342F2"/>
<path d="M379.681 310.047H376.18V336.903H379.681V310.047Z" fill="#CECDD3"/>
<path d="M376.179 310.047H375.326V336.903H376.179V310.047Z" fill="#5342F2"/>
<path d="M380.532 310.047H379.681V336.903H380.532V310.047Z" fill="#CECDD3"/>
<path d="M375.327 310.047H371.83V336.903H375.327V310.047Z" fill="#5342F2"/>
<path d="M370.976 310.047H367.479V336.903H370.976V310.047Z" fill="#CECDD3"/>
<path d="M367.479 310.047H366.624V336.903H367.479V310.047Z" fill="#5342F2"/>
<path d="M371.83 310.047H370.977V336.903H371.83V310.047Z" fill="#CECDD3"/>
<path d="M366.623 310.047H363.127V336.903H366.623V310.047Z" fill="#5342F2"/>
<path d="M362.273 310.047H358.772V336.903H362.273V310.047Z" fill="#CECDD3"/>
<path d="M358.772 310.047H357.923V336.903H358.772V310.047Z" fill="#5342F2"/>
<path d="M363.127 310.047H362.273V336.903H363.127V310.047Z" fill="#CECDD3"/>
<path d="M357.924 310.047H354.423V336.903H357.924V310.047Z" fill="#5342F2"/>
<path d="M353.569 310.047H350.072V336.903H353.569V310.047Z" fill="#CECDD3"/>
<path d="M350.072 310.047H349.217V336.903H350.072V310.047Z" fill="#5342F2"/>
<path d="M354.421 310.047H353.568V336.903H354.421V310.047Z" fill="#CECDD3"/>
<path d="M349.216 310.047H345.72V336.903H349.216V310.047Z" fill="#5342F2"/>
<path d="M344.866 310.047H341.369V336.901H344.866V310.047Z" fill="#CECDD3"/>
<path d="M341.37 310.047H340.515V336.901H341.37V310.047Z" fill="#5342F2"/>
<path d="M345.72 310.047H344.866V336.901H345.72V310.047Z" fill="#CECDD3"/>
<path d="M340.514 310.047H337.016V336.901H340.514V310.047Z" fill="#5342F2"/>
<path d="M336.164 310.047H332.663V336.901H336.164V310.047Z" fill="#CECDD3"/>
<path d="M332.662 310.047H331.809V336.901H332.662V310.047Z" fill="#5342F2"/>
<path d="M337.016 310.047H336.164V336.901H337.016V310.047Z" fill="#CECDD3"/>
<path d="M331.809 310.047H328.312V336.901H331.809V310.047Z" fill="#5342F2"/>
<path d="M327.46 310.047H323.963V336.901H327.46V310.047Z" fill="#CECDD3"/>
<path d="M323.963 310.047H323.107V336.901H323.963V310.047Z" fill="#5342F2"/>
<path d="M328.312 310.047H327.459V336.901H328.312V310.047Z" fill="#CECDD3"/>
<path d="M323.107 310.047H319.609V336.901H323.107V310.047Z" fill="#5342F2"/>
<path d="M318.757 310.047H315.256V336.901H318.757V310.047Z" fill="#CECDD3"/>
<path d="M315.256 310.047H314.406V336.901H315.256V310.047Z" fill="#5342F2"/>
<path d="M319.61 310.047H318.757V336.901H319.61V310.047Z" fill="#CECDD3"/>
<path d="M314.406 310.047H310.905V336.901H314.406V310.047Z" fill="#5342F2"/>
<path d="M310.05 310.047H306.553V336.901H310.05V310.047Z" fill="#CECDD3"/>
<path d="M306.552 310.047H305.699V336.901H306.552V310.047Z" fill="#5342F2"/>
<path d="M310.904 310.047H310.049V336.901H310.904V310.047Z" fill="#CECDD3"/>
<path d="M305.7 310.047H302.203V336.901H305.7V310.047Z" fill="#5342F2"/>
<path d="M301.348 310.047H297.85V336.901H301.348V310.047Z" fill="#CECDD3"/>
<path d="M297.85 310.047H296.997V336.901H297.85V310.047Z" fill="#5342F2"/>
<path d="M302.203 310.047H301.35V336.901H302.203V310.047Z" fill="#CECDD3"/>
<path d="M296.997 310.047H293.495V336.901H296.997V310.047Z" fill="#5342F2"/>
<path d="M292.646 310.047H289.146V336.901H292.646V310.047Z" fill="#CECDD3"/>
<path d="M289.146 310.047H288.292V336.901H289.146V310.047Z" fill="#5342F2"/>
<path d="M293.496 310.047H292.647V336.901H293.496V310.047Z" fill="#CECDD3"/>
<path d="M288.292 310.047H284.796V336.901H288.292V310.047Z" fill="#5342F2"/>
<path d="M283.941 310.047H280.443V336.901H283.941V310.047Z" fill="#CECDD3"/>
<path d="M280.443 310.047H279.59V336.901H280.443V310.047Z" fill="#5342F2"/>
<path d="M284.796 310.047H283.94V336.901H284.796V310.047Z" fill="#CECDD3"/>
<path d="M279.59 310.047H276.093V336.901H279.59V310.047Z" fill="#5342F2"/>
<path d="M275.239 310.047H271.738V336.901H275.239V310.047Z" fill="#CECDD3"/>
<path d="M271.739 310.047H270.888V336.901H271.739V310.047Z" fill="#5342F2"/>
<path d="M276.092 310.047H275.239V336.901H276.092V310.047Z" fill="#CECDD3"/>
<path d="M270.888 310.047H267.387V336.901H270.888V310.047Z" fill="#5342F2"/>
<path d="M266.533 310.047H263.036V336.901H266.533V310.047Z" fill="#CECDD3"/>
<path d="M263.035 310.047H262.182V336.901H263.035V310.047Z" fill="#5342F2"/>
<path d="M267.386 310.047H266.533V336.901H267.386V310.047Z" fill="#CECDD3"/>
<path d="M262.183 310.047H258.686V336.901H262.183V310.047Z" fill="#5342F2"/>
<path d="M257.83 310.047H254.334V336.901H257.83V310.047Z" fill="#CECDD3"/>
<path d="M254.334 310.047H253.48V336.901H254.334V310.047Z" fill="#5342F2"/>
<path d="M258.685 310.047H257.83V336.901H258.685V310.047Z" fill="#CECDD3"/>
<path d="M253.479 310.047H249.979V336.901H253.479V310.047Z" fill="#5342F2"/>
<path d="M249.979 310.047H249.13V336.901H249.979V310.047Z" fill="#CECDD3"/>
<path d="M249.129 322.356L581.506 322.4V310.945H249.129V322.356Z" fill="#181F79"/>
<path d="M591.833 117.238H576.481V312.942H591.833V117.238Z" fill="#5342F2"/>
<path d="M242.556 312.942H576.482V117.238H242.696L242.556 312.942Z" fill="#CECDD3"/>
<path d="M250.93 304.374H568.114V125.809H251.056L250.93 304.374Z" fill="white"/>
<path d="M568.113 304.374V125.809L250.93 304.374H568.113Z" fill="white"/>
<path d="M256.08 125.809H250.93V304.374H256.08V125.809Z" fill="#5342F2"/>
<path d="M493.033 166.406H483.879C483.393 166.406 482.997 167.122 482.997 168.008C482.997 168.894 483.393 169.611 483.879 169.611H493.033C493.52 169.611 493.916 168.892 493.916 168.008C493.916 167.124 493.518 166.406 493.033 166.406Z" fill="#CECDD3"/>
<path d="M549.708 166.406H497.34C496.856 166.406 496.459 167.122 496.459 168.008C496.459 168.894 496.856 169.611 497.34 169.611H549.708C550.196 169.611 550.591 168.892 550.591 168.008C550.591 167.124 550.196 166.406 549.708 166.406Z" fill="#CECDD3"/>
<path d="M514.043 173.031H497.336C496.852 173.031 496.455 173.749 496.455 174.633C496.455 175.517 496.852 176.237 497.336 176.237H514.043C514.53 176.237 514.925 175.519 514.925 174.633C514.925 173.747 514.533 173.031 514.043 173.031Z" fill="#CECDD3"/>
<path d="M541.521 173.031H517.448C516.959 173.031 516.566 173.749 516.566 174.633C516.566 175.517 516.959 176.237 517.448 176.237H541.521C542.008 176.237 542.404 175.519 542.404 174.633C542.404 173.747 542.008 173.031 541.521 173.031Z" fill="#CECDD3"/>
<path d="M549.708 205.285H497.34C496.856 205.285 496.459 206.001 496.459 206.887C496.459 207.773 496.856 208.489 497.34 208.489H549.708C550.196 208.489 550.591 207.773 550.591 206.887C550.591 206.001 550.196 205.285 549.708 205.285Z" fill="#CECDD3"/>
<path d="M493.033 211.906H483.879C483.393 211.906 482.997 212.624 482.997 213.509C482.997 214.393 483.393 215.113 483.879 215.113H493.033C493.52 215.113 493.916 214.392 493.916 213.509C493.916 212.625 493.518 211.906 493.033 211.906Z" fill="#CECDD3"/>
<path d="M514.043 211.906H497.336C496.852 211.906 496.455 212.624 496.455 213.509C496.455 214.393 496.852 215.113 497.336 215.113H514.043C514.53 215.113 514.925 214.392 514.925 213.509C514.925 212.625 514.533 211.906 514.043 211.906Z" fill="#CECDD3"/>
<path d="M541.521 211.906H517.448C516.959 211.906 516.566 212.624 516.566 213.509C516.566 214.393 516.959 215.113 517.448 215.113H541.521C542.008 215.113 542.404 214.392 542.404 213.509C542.404 212.625 542.008 211.906 541.521 211.906Z" fill="#CECDD3"/>
<path d="M562.695 179.656H497.339C496.855 179.656 496.458 180.372 496.458 181.259C496.458 182.145 496.855 182.861 497.339 182.861H562.695C563.181 182.861 563.577 182.142 563.577 181.259C563.577 180.375 563.183 179.656 562.695 179.656Z" fill="#CECDD3"/>
<path d="M533.373 186.277H549.41C549.548 186.277 549.681 186.332 549.779 186.43C549.877 186.528 549.932 186.661 549.932 186.799V188.959C549.932 189.098 549.877 189.23 549.779 189.328C549.681 189.426 549.548 189.481 549.41 189.481H533.373C533.235 189.481 533.102 189.426 533.004 189.328C532.907 189.23 532.852 189.098 532.852 188.959V186.799C532.852 186.661 532.907 186.528 533.004 186.43C533.102 186.332 533.235 186.277 533.373 186.277Z" fill="#CECDD3"/>
<path d="M519.05 186.277H497.34C496.856 186.277 496.459 186.996 496.459 187.881C496.459 188.767 496.856 189.484 497.34 189.484H519.05C519.537 189.484 519.931 188.766 519.931 187.881C519.931 186.997 519.537 186.277 519.05 186.277Z" fill="#CECDD3"/>
<path d="M530.604 186.277H521.997C521.509 186.277 521.115 186.996 521.115 187.881C521.115 188.767 521.509 189.484 521.997 189.484H530.604C531.091 189.484 531.485 188.766 531.485 187.881C531.485 186.997 531.091 186.277 530.604 186.277Z" fill="#CECDD3"/>
<path d="M493.033 192.684H483.879C483.393 192.684 482.997 193.401 482.997 194.288C482.997 195.174 483.393 195.889 483.879 195.889H493.033C493.52 195.889 493.916 195.171 493.916 194.288C493.916 193.404 493.518 192.684 493.033 192.684Z" fill="#CECDD3"/>
<path d="M562.695 192.684H497.339C496.855 192.684 496.458 193.401 496.458 194.288C496.458 195.174 496.855 195.889 497.339 195.889H562.695C563.181 195.889 563.577 195.171 563.577 194.288C563.577 193.404 563.183 192.684 562.695 192.684Z" fill="#CECDD3"/>
<path d="M493.033 218.043H483.879C483.393 218.043 482.997 218.759 482.997 219.646C482.997 220.532 483.393 221.247 483.879 221.247H493.033C493.52 221.247 493.916 220.531 493.916 219.646C493.916 218.76 493.518 218.043 493.033 218.043Z" fill="#CECDD3"/>
<path d="M533.467 218.043H555.869C556.031 218.043 556.187 218.108 556.302 218.223C556.417 218.338 556.482 218.494 556.482 218.656V220.632C556.482 220.795 556.417 220.952 556.302 221.067C556.186 221.183 556.03 221.247 555.867 221.247H533.467C533.304 221.247 533.147 221.183 533.032 221.067C532.916 220.952 532.852 220.795 532.852 220.632V218.658C532.852 218.495 532.916 218.339 533.032 218.223C533.147 218.108 533.304 218.043 533.467 218.043Z" fill="#CECDD3"/>
<path d="M519.05 218.043H497.34C496.856 218.043 496.459 218.759 496.459 219.646C496.459 220.532 496.856 221.247 497.34 221.247H519.05C519.537 221.247 519.931 220.531 519.931 219.646C519.931 218.76 519.537 218.043 519.05 218.043Z" fill="#CECDD3"/>
<path d="M530.604 218.043H521.997C521.509 218.043 521.115 218.759 521.115 219.646C521.115 220.532 521.509 221.247 521.997 221.247H530.604C531.091 221.247 531.485 220.531 531.485 219.646C531.485 218.76 531.091 218.043 530.604 218.043Z" fill="#CECDD3"/>
<path d="M493.033 224.449H483.879C483.393 224.449 482.997 225.165 482.997 226.052C482.997 226.938 483.393 227.654 483.879 227.654H493.033C493.52 227.654 493.916 226.938 493.916 226.052C493.916 225.166 493.518 224.449 493.033 224.449Z" fill="#CECDD3"/>
<path d="M508.656 224.449H497.34C496.856 224.449 496.459 225.165 496.459 226.052C496.459 226.938 496.856 227.654 497.34 227.654H508.656C509.143 227.654 509.537 226.938 509.537 226.052C509.537 225.166 509.143 224.449 508.656 224.449Z" fill="#CECDD3"/>
<path d="M493.033 199.305H483.879C483.393 199.305 482.997 200.021 482.997 200.907C482.997 201.792 483.393 202.509 483.879 202.509H493.033C493.52 202.509 493.916 201.793 493.916 200.907C493.916 200.02 493.518 199.305 493.033 199.305Z" fill="#CECDD3"/>
<path d="M558.898 199.305H533.504C533.144 199.305 532.852 199.597 532.852 199.957V201.856C532.852 202.217 533.144 202.509 533.504 202.509H558.898C559.259 202.509 559.551 202.217 559.551 201.856V199.957C559.551 199.597 559.259 199.305 558.898 199.305Z" fill="#CECDD3"/>
<path d="M519.05 199.305H497.34C496.856 199.305 496.459 200.021 496.459 200.907C496.459 201.792 496.856 202.509 497.34 202.509H519.05C519.537 202.509 519.931 201.793 519.931 200.907C519.931 200.02 519.537 199.305 519.05 199.305Z" fill="#CECDD3"/>
<path d="M530.604 199.305H521.997C521.509 199.305 521.115 200.021 521.115 200.907C521.115 201.792 521.509 202.509 521.997 202.509H530.604C531.091 202.509 531.485 201.793 531.485 200.907C531.485 200.02 531.091 199.305 530.604 199.305Z" fill="#CECDD3"/>
<path d="M549.708 231.258H497.34C496.856 231.258 496.459 231.976 496.459 232.86C496.459 233.743 496.856 234.461 497.34 234.461H549.708C550.196 234.461 550.591 233.746 550.591 232.86C550.591 231.973 550.196 231.258 549.708 231.258Z" fill="#CECDD3"/>
<path d="M514.043 237.883H497.336C496.852 237.883 496.455 238.601 496.455 239.488C496.455 240.374 496.852 241.089 497.336 241.089H514.043C514.53 241.089 514.925 240.371 514.925 239.488C514.925 238.604 514.533 237.883 514.043 237.883Z" fill="#CECDD3"/>
<path d="M541.521 237.883H517.448C516.959 237.883 516.566 238.601 516.566 239.488C516.566 240.374 516.959 241.089 517.448 241.089H541.521C542.008 241.089 542.404 240.371 542.404 239.488C542.404 238.604 542.008 237.883 541.521 237.883Z" fill="#CECDD3"/>
<path d="M549.708 270.141H497.34C496.856 270.141 496.459 270.858 496.459 271.742C496.459 272.627 496.856 273.347 497.34 273.347H549.708C550.196 273.347 550.591 272.626 550.591 271.742C550.591 270.859 550.196 270.141 549.708 270.141Z" fill="#CECDD3"/>
<path d="M493.033 276.766H483.879C483.393 276.766 482.997 277.482 482.997 278.367C482.997 279.253 483.393 279.97 483.879 279.97H493.033C493.52 279.97 493.916 279.254 493.916 278.367C493.916 277.481 493.518 276.766 493.033 276.766Z" fill="#CECDD3"/>
<path d="M514.043 276.766H497.336C496.852 276.766 496.455 277.482 496.455 278.367C496.455 279.253 496.852 279.97 497.336 279.97H514.043C514.53 279.97 514.925 279.254 514.925 278.367C514.925 277.481 514.533 276.766 514.043 276.766Z" fill="#CECDD3"/>
<path d="M541.521 276.766H517.448C516.959 276.766 516.566 277.482 516.566 278.367C516.566 279.253 516.959 279.97 517.448 279.97H541.521C542.008 279.97 542.404 279.254 542.404 278.367C542.404 277.481 542.008 276.766 541.521 276.766Z" fill="#CECDD3"/>
<path d="M493.033 244.508H483.879C483.393 244.508 482.997 245.226 482.997 246.11C482.997 246.993 483.393 247.714 483.879 247.714H493.033C493.52 247.714 493.916 246.996 493.916 246.11C493.916 245.223 493.518 244.508 493.033 244.508Z" fill="#CECDD3"/>
<path d="M497.055 244.508H544.555C544.713 244.508 544.865 244.571 544.976 244.682C545.088 244.794 545.151 244.946 545.151 245.104V247.115C545.151 247.274 545.088 247.425 544.976 247.537C544.865 247.649 544.713 247.711 544.555 247.711H497.055C496.897 247.711 496.745 247.649 496.634 247.537C496.522 247.425 496.459 247.274 496.459 247.115V245.104C496.459 244.946 496.522 244.794 496.634 244.682C496.745 244.571 496.897 244.508 497.055 244.508V244.508Z" fill="#CECDD3"/>
<path d="M493.033 251.133H483.879C483.393 251.133 482.997 251.849 482.997 252.735C482.997 253.622 483.393 254.337 483.879 254.337H493.033C493.52 254.337 493.916 253.619 493.916 252.735C493.916 251.852 493.518 251.133 493.033 251.133Z" fill="#CECDD3"/>
<path d="M519.05 251.133H497.34C496.856 251.133 496.459 251.849 496.459 252.735C496.459 253.622 496.856 254.337 497.34 254.337H519.05C519.537 254.337 519.931 253.619 519.931 252.735C519.931 251.852 519.537 251.133 519.05 251.133Z" fill="#CECDD3"/>
<path d="M530.604 251.133H521.997C521.509 251.133 521.115 251.849 521.115 252.735C521.115 253.622 521.509 254.337 521.997 254.337H530.604C531.091 254.337 531.485 253.619 531.485 252.735C531.485 251.852 531.091 251.133 530.604 251.133Z" fill="#CECDD3"/>
<path d="M493.033 257.539H483.879C483.393 257.539 482.997 258.255 482.997 259.142C482.997 260.028 483.393 260.743 483.879 260.743H493.033C493.52 260.743 493.916 260.025 493.916 259.142C493.916 258.258 493.518 257.539 493.033 257.539Z" fill="#CECDD3"/>
<path d="M497.13 257.539H557.105C557.283 257.539 557.454 257.61 557.579 257.735C557.705 257.861 557.776 258.032 557.776 258.21V260.072C557.776 260.25 557.705 260.421 557.579 260.546C557.454 260.672 557.283 260.743 557.105 260.743H497.13C496.952 260.743 496.781 260.672 496.655 260.546C496.53 260.421 496.459 260.25 496.459 260.072V258.21C496.459 258.032 496.53 257.861 496.655 257.735C496.781 257.61 496.952 257.539 497.13 257.539V257.539Z" fill="#CECDD3"/>
<path d="M493.033 282.898H483.879C483.393 282.898 482.997 283.619 482.997 284.503C482.997 285.388 483.393 286.105 483.879 286.105H493.033C493.52 286.105 493.916 285.387 493.916 284.503C493.916 283.62 493.518 282.898 493.033 282.898Z" fill="#CECDD3"/>
<path d="M562.626 282.898H533.731C533.245 282.898 532.852 283.619 532.852 284.503C532.852 285.388 533.245 286.105 533.731 286.105H562.626C563.116 286.105 563.508 285.387 563.508 284.503C563.508 283.62 563.116 282.898 562.626 282.898Z" fill="#CECDD3"/>
<path d="M519.05 282.898H497.34C496.856 282.898 496.459 283.619 496.459 284.503C496.459 285.388 496.856 286.105 497.34 286.105H519.05C519.537 286.105 519.931 285.387 519.931 284.503C519.931 283.62 519.537 282.898 519.05 282.898Z" fill="#CECDD3"/>
<path d="M530.604 282.898H521.997C521.509 282.898 521.115 283.619 521.115 284.503C521.115 285.388 521.509 286.105 521.997 286.105H530.604C531.091 286.105 531.485 285.387 531.485 284.503C531.485 283.62 531.091 282.898 530.604 282.898Z" fill="#CECDD3"/>
<path d="M497.004 289.305H536.417C536.562 289.305 536.7 289.362 536.803 289.464C536.905 289.567 536.962 289.705 536.962 289.85V291.967C536.962 292.112 536.905 292.25 536.803 292.352C536.701 292.454 536.563 292.511 536.418 292.511H497.002C496.858 292.511 496.72 292.454 496.618 292.352C496.516 292.25 496.459 292.112 496.459 291.968V289.85C496.459 289.705 496.516 289.567 496.619 289.464C496.721 289.362 496.86 289.305 497.004 289.305V289.305Z" fill="#CECDD3"/>
<path d="M560.449 264.164H533.524C533.152 264.164 532.852 264.465 532.852 264.836V266.699C532.852 267.07 533.152 267.371 533.524 267.371H560.449C560.82 267.371 561.121 267.07 561.121 266.699V264.836C561.121 264.465 560.82 264.164 560.449 264.164Z" fill="#CECDD3"/>
<path d="M519.05 264.164H497.34C496.856 264.164 496.459 264.882 496.459 265.768C496.459 266.654 496.856 267.371 497.34 267.371H519.05C519.537 267.371 519.931 266.652 519.931 265.768C519.931 264.884 519.537 264.164 519.05 264.164Z" fill="#CECDD3"/>
<path d="M530.604 264.164H521.997C521.509 264.164 521.115 264.882 521.115 265.768C521.115 266.654 521.509 267.371 521.997 267.371H530.604C531.091 267.371 531.485 266.652 531.485 265.768C531.485 264.884 531.091 264.164 530.604 264.164Z" fill="#CECDD3"/>
<path d="M443.554 270.148H391.187C390.7 270.148 390.305 270.866 390.305 271.75C390.305 272.635 390.7 273.354 391.187 273.354H443.555C444.039 273.354 444.434 272.634 444.434 271.75C444.434 270.867 444.038 270.148 443.554 270.148Z" fill="#CECDD3"/>
<path d="M386.875 276.773H377.721C377.233 276.773 376.841 277.489 376.841 278.375C376.841 279.261 377.233 279.978 377.721 279.978H386.875C387.361 279.978 387.756 279.262 387.756 278.375C387.756 277.489 387.361 276.773 386.875 276.773Z" fill="#CECDD3"/>
<path d="M407.891 276.773H391.187C390.7 276.773 390.305 277.489 390.305 278.375C390.305 279.261 390.7 279.978 391.187 279.978H407.891C408.378 279.978 408.773 279.262 408.773 278.375C408.773 277.489 408.377 276.773 407.891 276.773Z" fill="#CECDD3"/>
<path d="M435.367 276.773H411.293C410.807 276.773 410.412 277.489 410.412 278.375C410.412 279.261 410.807 279.978 411.293 279.978H435.367C435.854 279.978 436.249 279.262 436.249 278.375C436.249 277.489 435.851 276.773 435.367 276.773Z" fill="#CECDD3"/>
<path d="M386.875 244.516H377.721C377.233 244.516 376.841 245.234 376.841 246.117C376.841 247.001 377.233 247.722 377.721 247.722H386.875C387.361 247.722 387.756 247.004 387.756 246.117C387.756 245.231 387.361 244.516 386.875 244.516Z" fill="#CECDD3"/>
<path d="M390.9 244.516H438.403C438.561 244.516 438.712 244.578 438.824 244.69C438.936 244.802 438.999 244.954 438.999 245.112V247.123C438.999 247.281 438.936 247.433 438.824 247.545C438.712 247.656 438.561 247.719 438.403 247.719H390.9C390.742 247.719 390.59 247.656 390.478 247.545C390.367 247.433 390.304 247.281 390.304 247.123V245.112C390.304 244.954 390.367 244.802 390.478 244.69C390.59 244.578 390.742 244.516 390.9 244.516V244.516Z" fill="#CECDD3"/>
<path d="M386.875 251.141H377.721C377.233 251.141 376.841 251.857 376.841 252.743C376.841 253.63 377.233 254.345 377.721 254.345H386.875C387.361 254.345 387.756 253.627 387.756 252.743C387.756 251.86 387.361 251.141 386.875 251.141Z" fill="#CECDD3"/>
<path d="M412.896 251.141H391.187C390.7 251.141 390.305 251.857 390.305 252.743C390.305 253.63 390.7 254.345 391.187 254.345H412.896C413.383 254.345 413.776 253.627 413.776 252.743C413.776 251.86 413.382 251.141 412.896 251.141Z" fill="#CECDD3"/>
<path d="M424.448 251.141H415.84C415.353 251.141 414.958 251.857 414.958 252.743C414.958 253.63 415.353 254.345 415.84 254.345H424.448C424.936 254.345 425.33 253.627 425.33 252.743C425.33 251.86 424.937 251.141 424.448 251.141Z" fill="#CECDD3"/>
<path d="M386.875 257.547H377.721C377.233 257.547 376.841 258.263 376.841 259.149C376.841 260.036 377.233 260.751 377.721 260.751H386.875C387.361 260.751 387.756 260.033 387.756 259.149C387.756 258.266 387.361 257.547 386.875 257.547Z" fill="#CECDD3"/>
<path d="M390.974 257.547H450.95C451.128 257.547 451.298 257.618 451.424 257.743C451.55 257.869 451.62 258.04 451.62 258.217V260.08C451.62 260.258 451.55 260.428 451.424 260.554C451.298 260.68 451.128 260.751 450.95 260.751H390.974C390.796 260.751 390.626 260.68 390.5 260.554C390.374 260.428 390.304 260.258 390.304 260.08V258.217C390.304 258.04 390.374 257.869 390.5 257.743C390.626 257.618 390.796 257.547 390.974 257.547V257.547Z" fill="#CECDD3"/>
<path d="M386.875 282.906H377.721C377.233 282.906 376.841 283.627 376.841 284.511C376.841 285.395 377.233 286.113 377.721 286.113H386.875C387.361 286.113 387.756 285.395 387.756 284.511C387.756 283.627 387.361 282.906 386.875 282.906Z" fill="#CECDD3"/>
<path d="M456.471 282.906H427.576C427.089 282.906 426.694 283.627 426.694 284.511C426.694 285.395 427.089 286.113 427.576 286.113H456.471C456.958 286.113 457.353 285.395 457.353 284.511C457.353 283.627 456.958 282.906 456.471 282.906Z" fill="#CECDD3"/>
<path d="M412.896 282.906H391.187C390.7 282.906 390.305 283.627 390.305 284.511C390.305 285.395 390.7 286.113 391.187 286.113H412.896C413.383 286.113 413.776 285.395 413.776 284.511C413.776 283.627 413.382 282.906 412.896 282.906Z" fill="#CECDD3"/>
<path d="M424.448 282.906H415.84C415.353 282.906 414.958 283.627 414.958 284.511C414.958 285.395 415.353 286.113 415.84 286.113H424.448C424.936 286.113 425.33 285.395 425.33 284.511C425.33 283.627 424.937 282.906 424.448 282.906Z" fill="#CECDD3"/>
<path d="M390.849 289.309H430.268C430.412 289.309 430.55 289.366 430.652 289.468C430.754 289.57 430.811 289.708 430.811 289.852V291.971C430.811 292.116 430.754 292.254 430.652 292.356C430.55 292.458 430.412 292.515 430.268 292.515H390.849C390.704 292.515 390.566 292.458 390.463 292.356C390.361 292.253 390.304 292.115 390.304 291.97V289.854C390.304 289.709 390.361 289.571 390.463 289.468C390.566 289.366 390.704 289.309 390.849 289.309V289.309Z" fill="#CECDD3"/>
<path d="M454.293 264.168H427.366C426.995 264.168 426.694 264.469 426.694 264.84V266.703C426.694 267.074 426.995 267.375 427.366 267.375H454.293C454.664 267.375 454.965 267.074 454.965 266.703V264.84C454.965 264.469 454.664 264.168 454.293 264.168Z" fill="#CECDD3"/>
<path d="M412.896 264.168H391.187C390.7 264.168 390.305 264.886 390.305 265.772C390.305 266.658 390.7 267.375 391.187 267.375H412.896C413.383 267.375 413.776 266.656 413.776 265.772C413.776 264.888 413.382 264.168 412.896 264.168Z" fill="#CECDD3"/>
<path d="M424.448 264.168H415.84C415.353 264.168 414.958 264.886 414.958 265.772C414.958 266.658 415.353 267.375 415.84 267.375H424.448C424.936 267.375 425.33 266.656 425.33 265.772C425.33 264.888 424.937 264.168 424.448 264.168Z" fill="#CECDD3"/>
<path d="M466.047 329.21C465.989 330.148 466.116 331.087 466.42 331.976C466.725 332.864 467.202 333.684 467.824 334.388C468.445 335.092 469.2 335.667 470.043 336.079C470.887 336.492 471.804 336.734 472.742 336.793C474.635 336.911 476.497 336.271 477.919 335.016C478.623 334.394 479.198 333.64 479.611 332.796C480.023 331.952 480.266 331.036 480.324 330.098L487.562 213.586L473.307 212.656L466.047 329.21Z" fill="#5342F2"/>
<path d="M490.909 148.472L459.008 146.477L454.432 218.799L486.382 220.801C491.132 221.098 495.895 220.456 500.398 218.913C504.9 217.369 509.054 214.953 512.623 211.803C516.192 208.653 519.105 204.831 521.196 200.556C523.287 196.28 524.516 191.634 524.811 186.883C525.406 177.294 522.169 167.862 515.812 160.659C509.455 153.456 500.497 149.072 490.909 148.472Z" fill="#181F79"/>
<path d="M460.043 146.5C459.685 146.474 459.331 146.509 458.976 146.511V146.474L344.266 94.1719L334.2 256.26L454.427 218.8V218.768C454.525 218.777 454.619 218.805 454.72 218.814C466.629 219.692 477.475 204.211 478.946 184.244C480.418 164.277 471.954 147.377 460.043 146.5Z" fill="url(#paint0_linear_156_2862)"/>
<path d="M340.03 93.4291C318.275 91.8005 297.927 127.122 294.625 172.304C291.276 217.448 306.206 255.366 327.964 256.994C346.724 258.361 364.429 232.288 371.078 196.131C372.174 190.16 372.938 184.132 373.367 178.075C373.812 172.051 373.93 166.008 373.72 159.971C372.485 123.202 358.79 94.7955 340.03 93.4291Z" fill="#EB4201"/>
<path d="M348.313 113.475C331.891 112.244 316.531 138.908 314.038 173.015C311.51 207.092 322.779 235.716 339.205 236.948C353.366 237.978 366.731 218.299 371.752 191.001C372.578 186.493 373.155 181.943 373.48 177.372C373.815 172.826 373.904 168.264 373.746 163.708C372.814 135.948 362.475 114.505 348.313 113.475Z" fill="#181F79"/>
<path d="M367.554 156.675C360.551 156.19 354.121 165.087 353.286 176.625C352.451 188.163 357.47 197.896 364.513 198.423C366.916 198.549 369.272 197.726 371.075 196.133C372.171 190.161 372.935 184.134 373.364 178.077C373.809 172.053 373.927 166.009 373.717 159.973C372.179 158.103 369.963 156.918 367.554 156.675Z" fill="#F5C825"/>
<path d="M408.668 632.001H414.671L439.665 393.02H433.663L408.668 632.001Z" fill="#181F79"/>
<path d="M486.016 632.001H492.016L517.011 393.02H511.01L486.016 632.001Z" fill="#181F79"/>
<path d="M491.886 597.598H415.281V602.674H491.886V597.598Z" fill="#181F79"/>
<path d="M496.306 555.148H419.703V560.225H496.306V555.148Z" fill="#181F79"/>
<path d="M500.729 512.699H424.124V517.776H500.729V512.699Z" fill="#181F79"/>
<path d="M505.148 470.25H428.545V475.327H505.148V470.25Z" fill="#181F79"/>
<path d="M509.568 427.805H432.966V432.881H509.568V427.805Z" fill="#181F79"/>
<path fill-rule="evenodd" clip-rule="evenodd" d="M319 368.047C316.501 365.844 320.272 365.595 317.956 364.039C315.452 362.271 312.42 361.41 309.361 361.598C306.165 361.753 293.54 345.662 286.724 336.669C284.386 333.583 283.052 332.572 279.112 332.566C278.152 332.562 274.723 335.596 275.495 338.416C279.235 352.088 296.498 360.514 302.615 366.057C307.282 370.285 310.446 372.22 312.14 373.818C313.727 375.316 315.01 375.573 315.988 374.228C316.216 374.392 316.476 374.507 316.751 374.565C317.026 374.623 317.31 374.624 317.585 374.566C317.86 374.508 318.12 374.394 318.348 374.23C318.576 374.066 318.768 373.857 318.911 373.615C319.114 373.768 319.352 373.867 319.604 373.903C319.855 373.938 320.112 373.909 320.349 373.818C320.586 373.727 320.796 373.577 320.959 373.383C321.122 373.188 321.233 372.955 321.282 372.705C322.907 373.91 324.379 374.879 324.946 373.389C325.221 372.654 320.477 369.347 319 368.047Z" fill="#FFA578"/>
<path fill-rule="evenodd" clip-rule="evenodd" d="M248.744 299.273C248.744 299.273 271.927 336.748 277.063 342.093L286.724 336.667C284.024 331.533 266.9 302.632 260.04 293.227L248.744 299.273Z" fill="#FFA578"/>
<path fill-rule="evenodd" clip-rule="evenodd" d="M278.124 335.924C274.64 330.66 263.838 312.711 264.158 311.711C264.785 309.766 266.658 305.268 265.826 303.128C263.646 297.506 255.943 300.715 254.411 296.744C254.352 296.595 254.336 296.454 254.289 296.305L248.744 299.274C248.744 299.274 271.927 336.749 277.063 342.094L280.571 338.1C279.567 337.619 278.719 336.865 278.124 335.924Z" fill="#E68969"/>
<path fill-rule="evenodd" clip-rule="evenodd" d="M319 368.046C318.51 367.716 317.986 367.441 317.435 367.227C315.872 366.488 314.145 366.162 312.419 366.281C309.63 366.461 306.526 366.53 305.164 365.367C300.907 361.737 298.406 355.72 294.207 352.031C290.034 348.375 283.815 342.65 280.572 338.099C279.257 336.253 274.725 335.593 275.497 338.413C279.237 352.086 296.5 360.511 302.617 366.054C304.5 367.761 306.15 367.973 307.547 369.062C309.608 370.668 311.132 372.862 312.142 373.816C313.729 375.314 315.012 375.571 315.99 374.226C316.218 374.39 316.478 374.504 316.752 374.563C317.027 374.621 317.311 374.621 317.586 374.564C317.861 374.506 318.121 374.392 318.349 374.229C318.578 374.066 318.77 373.856 318.913 373.615C319.116 373.767 319.354 373.866 319.606 373.901C319.857 373.936 320.114 373.907 320.351 373.815C320.588 373.724 320.798 373.574 320.961 373.38C321.124 373.185 321.235 372.952 321.284 372.703C322.909 373.908 324.381 374.877 324.948 373.386C325.221 372.654 320.477 369.347 319 368.046Z" fill="#E68969"/>
<path fill-rule="evenodd" clip-rule="evenodd" d="M313.117 361.836L315.547 365.254C316.599 365.823 318.016 365.872 319.742 365.61C321.547 366.924 323.263 366.876 324.365 365.689C322.666 365.074 321.048 364.253 319.548 363.246L313.117 361.836Z" fill="#FFA578"/>
<path d="M380.893 378.448L286.124 367.072C285.924 367.002 285.711 366.978 285.5 367.001C285.29 367.024 285.087 367.094 284.907 367.206C284.727 367.318 284.574 367.468 284.46 367.647C284.345 367.825 284.272 368.027 284.246 368.238C284.22 368.448 284.241 368.662 284.308 368.863C284.376 369.064 284.487 369.247 284.634 369.4C284.781 369.552 284.961 369.67 285.159 369.744C285.358 369.818 285.571 369.847 285.782 369.828C285.793 369.829 285.804 369.83 285.814 369.833L380.746 379.799C380.844 379.83 380.947 379.839 381.049 379.825C381.151 379.811 381.248 379.775 381.334 379.719C381.42 379.663 381.493 379.588 381.547 379.501C381.601 379.413 381.634 379.315 381.646 379.213C381.657 379.111 381.645 379.008 381.612 378.911C381.578 378.813 381.524 378.725 381.452 378.652C381.38 378.578 381.293 378.522 381.196 378.486C381.1 378.45 380.997 378.436 380.895 378.445L380.893 378.448Z" fill="white"/>
<path fill-rule="evenodd" clip-rule="evenodd" d="M324.201 372.521C322.861 371.474 321.465 370.5 320.019 369.605C318.201 368.449 317.878 369.509 318.972 370.537C320.25 371.772 321.624 372.904 323.082 373.922C323.992 374.565 324.442 374.346 324.749 374.04C325.057 373.734 324.919 373.063 324.201 372.521Z" fill="#FFA578"/>
<path fill-rule="evenodd" clip-rule="evenodd" d="M315.971 368.613C314.237 367.335 313.914 368.325 314.916 369.445C316.374 371.027 317.94 372.505 319.603 373.869C320.465 374.576 320.944 374.362 321.298 374.055C321.658 373.736 321.862 373.302 321.141 372.763C319.328 371.411 317.8 369.969 315.971 368.613Z" fill="#FFA578"/>
<path fill-rule="evenodd" clip-rule="evenodd" d="M313.907 369.566C312.408 368.348 311.869 369.318 312.709 370.386C313.927 371.894 315.26 373.306 316.694 374.61C317.435 375.28 317.898 375.068 318.24 374.759C318.596 374.443 318.886 373.939 318.262 373.432C316.693 372.149 315.494 370.852 313.907 369.566Z" fill="#FFA578"/>
<path fill-rule="evenodd" clip-rule="evenodd" d="M311.661 370.784C310.161 369.566 309.79 370.539 310.63 371.609C311.665 372.889 312.814 374.073 314.063 375.145C314.803 375.816 315.264 375.603 315.609 375.294C315.965 374.977 316.185 374.549 315.561 374.039C313.992 372.753 313.248 372.07 311.661 370.784Z" fill="#FFA578"/>
<path fill-rule="evenodd" clip-rule="evenodd" d="M230.635 225.148C228.032 225.149 225.536 226.183 223.696 228.023C221.856 229.864 220.822 232.359 220.821 234.962C220.821 236.251 221.075 237.527 221.568 238.718C222.061 239.909 222.784 240.991 223.695 241.902C224.606 242.814 225.688 243.537 226.879 244.03C228.07 244.523 229.346 244.777 230.635 244.777C231.924 244.777 233.2 244.523 234.391 244.03C235.581 243.537 236.663 242.814 237.574 241.902C238.486 240.991 239.208 239.909 239.701 238.718C240.194 237.527 240.448 236.251 240.448 234.962C240.448 232.36 239.414 229.864 237.574 228.023C235.733 226.183 233.238 225.149 230.635 225.148Z" fill="#2B1BED"/>
<path fill-rule="evenodd" clip-rule="evenodd" d="M230.635 225.148C229.545 225.16 228.464 225.356 227.439 225.727C227.97 225.623 228.509 225.569 229.05 225.567C239.132 225.567 239.116 241.213 229.05 241.213C222.574 241.213 220.286 234.772 222.129 230.155C221.283 231.617 220.832 233.273 220.821 234.962C220.821 236.251 221.075 237.527 221.568 238.718C222.061 239.909 222.784 240.991 223.695 241.902C224.606 242.814 225.688 243.537 226.879 244.03C228.07 244.523 229.346 244.777 230.635 244.777C231.924 244.777 233.2 244.523 234.391 244.03C235.582 243.537 236.664 242.814 237.575 241.902C238.487 240.991 239.21 239.909 239.703 238.718C240.196 237.527 240.45 236.251 240.45 234.962C240.449 232.359 239.415 229.863 237.574 228.023C235.734 226.183 233.238 225.149 230.635 225.148Z" fill="#181F79"/>
<path fill-rule="evenodd" clip-rule="evenodd" d="M226.114 223.148C223.363 224.765 221.367 227.409 220.566 230.497C219.764 233.586 220.222 236.866 221.839 239.617C222.753 241.176 224.008 242.507 225.509 243.512C227.011 244.518 228.72 245.171 230.509 245.423C227.962 244.454 225.822 242.644 224.443 240.294C222.827 237.543 222.371 234.263 223.173 231.175C223.975 228.088 225.971 225.445 228.721 223.828C231.069 222.445 233.819 221.904 236.516 222.295C234.83 221.645 233.019 221.385 231.217 221.532C229.416 221.68 227.672 222.232 226.114 223.148Z" fill="#2B1BED"/>
<path fill-rule="evenodd" clip-rule="evenodd" d="M207.867 342.34C205.804 345.697 204.365 349.281 202.234 352.509C195.921 362.063 195.198 370.519 191.3 375.125C190.505 376.258 189.296 377.034 187.934 377.285C184.904 377.82 182.172 379.438 180.247 381.838C178.404 383.934 182.116 383.213 180.262 385.981C179.167 387.616 175.425 392.023 175.879 392.661C176.809 393.957 177.984 392.643 179.249 391.062C179.359 391.291 179.526 391.489 179.733 391.635C179.941 391.782 180.182 391.874 180.435 391.901C180.687 391.929 180.943 391.891 181.177 391.793C181.411 391.694 181.616 391.537 181.773 391.337C181.973 391.534 182.211 391.688 182.474 391.788C182.736 391.888 183.016 391.932 183.297 391.917C183.577 391.903 183.851 391.83 184.102 391.704C184.353 391.578 184.574 391.401 184.753 391.185C186.043 392.235 187.217 391.656 188.369 389.803C189.598 387.827 192.163 385.148 195.596 379.865C200.093 372.951 204.096 369.157 207.178 364.097C209.865 359.688 214.348 354.166 216.182 346.162C216.519 344.684 208.71 342.798 207.867 342.34Z" fill="#FFA578"/>
<path fill-rule="evenodd" clip-rule="evenodd" d="M213.155 344.121C211.542 348.524 208.991 352.483 206.956 356.888C204.9 361.341 203.012 364.667 200.659 368.991C196.88 375.936 193.172 381.174 185.524 382.441C184.307 383.885 182.585 384.81 180.709 385.027C180.617 385.37 180.466 385.693 180.262 385.983C179.167 387.618 175.425 392.025 175.879 392.663C176.809 393.959 177.984 392.645 179.249 391.064C179.359 391.294 179.526 391.491 179.733 391.637C179.941 391.784 180.182 391.876 180.435 391.903C180.687 391.931 180.943 391.893 181.177 391.795C181.411 391.696 181.616 391.539 181.773 391.339C181.973 391.537 182.211 391.69 182.474 391.79C182.736 391.89 183.017 391.934 183.297 391.919C183.577 391.905 183.852 391.832 184.102 391.705C184.353 391.579 184.575 391.401 184.753 391.184C186.043 392.237 187.217 391.658 188.369 389.805C189.598 387.83 192.163 385.15 195.596 379.867C200.093 372.953 204.096 369.159 207.178 364.099C209.865 359.69 214.348 354.166 216.182 346.164C216.331 345.51 214.886 344.776 213.155 344.121Z" fill="#E68969"/>
<path fill-rule="evenodd" clip-rule="evenodd" d="M174.471 385.075C175.842 385.941 177.509 385.546 178.921 383.816C180.453 383.61 181.882 382.927 183.005 381.864L184.36 378.477L178.504 381.48C177.312 382.839 175.957 384.046 174.471 385.075Z" fill="#FFA578"/>
<path fill-rule="evenodd" clip-rule="evenodd" d="M179.622 387.245C178.509 388.531 177.468 389.878 176.502 391.278C175.981 392.01 176.033 392.686 176.428 392.891C176.822 393.096 177.307 393.164 177.986 392.283C179.073 390.875 180.046 389.384 180.898 387.823C181.638 386.516 181.014 385.599 179.622 387.245Z" fill="#FFA578"/>
<path fill-rule="evenodd" clip-rule="evenodd" d="M183.492 384.788C182.146 386.626 181.122 388.46 179.793 390.291C179.264 391.017 179.587 391.373 180.028 391.57C180.454 391.759 180.98 391.817 181.593 390.887C182.774 389.09 183.828 387.213 184.747 385.269C185.37 383.9 184.762 383.051 183.492 384.788Z" fill="#FFA578"/>
<path fill-rule="evenodd" clip-rule="evenodd" d="M185.443 385.379C184.312 387.081 183.557 388.675 182.439 390.37C181.996 391.041 182.422 391.438 182.856 391.632C183.278 391.825 183.782 391.89 184.289 391.03C185.268 389.357 186.118 387.611 186.831 385.808C187.313 384.534 186.513 383.772 185.443 385.379Z" fill="#FFA578"/>
<path fill-rule="evenodd" clip-rule="evenodd" d="M187.952 385.876C186.822 387.576 186.318 388.456 185.2 390.149C184.757 390.82 185.096 391.165 185.53 391.359C185.951 391.551 186.456 391.616 186.96 390.754C187.832 389.359 188.577 387.888 189.184 386.358C189.666 385.084 189.022 384.269 187.952 385.876Z" fill="#FFA578"/>
<path fill-rule="evenodd" clip-rule="evenodd" d="M229.609 236.693C208.765 241.3 213.818 260.096 214.803 265.053C216.732 274.779 225.588 280.533 237.005 280.533C252.062 280.533 260.474 258.103 251.944 245.122C245.456 235.254 235.506 235.39 229.609 236.693Z" fill="#2B1BED"/>
<path fill-rule="evenodd" clip-rule="evenodd" d="M229.609 236.693C229.48 236.721 229.365 236.756 229.236 236.787C229.501 236.834 229.768 236.876 230.027 236.936C231.768 237.378 233.395 238.182 234.803 239.297C238.622 241.085 241.609 244.271 243.147 248.198C244.739 251.858 245.067 255.945 244.079 259.812C243.029 264.069 239.727 267.729 235.969 269.837C232.083 272.016 227.083 273.247 222.715 271.798C220.106 270.955 217.725 269.524 215.756 267.616C215.619 267.485 215.494 267.306 215.359 267.161C218.084 275.601 226.441 280.533 237.004 280.533C252.061 280.533 260.472 258.103 251.942 245.122C245.457 235.254 235.507 235.39 229.609 236.693Z" fill="#181F79"/>
<path fill-rule="evenodd" clip-rule="evenodd" d="M245.899 271.723C245.607 271.723 245.321 271.809 245.078 271.971C244.836 272.133 244.646 272.364 244.534 272.633C244.423 272.903 244.393 273.2 244.45 273.486C244.507 273.772 244.648 274.035 244.854 274.242C245.06 274.448 245.323 274.589 245.61 274.646C245.896 274.703 246.193 274.674 246.462 274.562C246.732 274.451 246.963 274.261 247.125 274.019C247.287 273.776 247.374 273.491 247.374 273.199C247.374 273.005 247.336 272.813 247.262 272.634C247.188 272.454 247.079 272.292 246.942 272.155C246.805 272.017 246.643 271.909 246.463 271.835C246.284 271.761 246.092 271.722 245.899 271.723Z" fill="#FFA578"/>
<path fill-rule="evenodd" clip-rule="evenodd" d="M219.845 271.723C219.553 271.722 219.267 271.808 219.024 271.97C218.781 272.131 218.591 272.362 218.479 272.631C218.366 272.901 218.337 273.198 218.393 273.484C218.45 273.771 218.59 274.034 218.796 274.241C219.002 274.448 219.265 274.589 219.552 274.646C219.838 274.703 220.135 274.674 220.405 274.563C220.675 274.451 220.906 274.262 221.068 274.019C221.23 273.776 221.317 273.491 221.317 273.199C221.317 273.005 221.28 272.813 221.206 272.634C221.132 272.455 221.023 272.293 220.887 272.156C220.75 272.019 220.588 271.91 220.409 271.835C220.23 271.761 220.038 271.723 219.845 271.723Z" fill="#FFA578"/>
<path fill-rule="evenodd" clip-rule="evenodd" d="M247.575 533.049C246.92 531.164 245.598 529.631 244.342 525.266C240.498 511.898 244.222 501.177 240.706 483.639C240.016 480.201 238.219 477.141 238.604 473.149C238.739 469.397 239.303 466.487 239.104 463.6C238.912 460.843 237.971 458.107 237.707 454.79C236.386 438.077 236.801 417.769 237.425 401.736L210.658 388.238C211.165 404.83 217.449 446.024 217.791 447.805C220.76 463.167 219.664 465.638 221.332 478.724C223.087 492.528 231.805 514.211 235.672 528.735C237.013 533.757 238.453 556.652 238.187 560.677C238.021 563.22 236.284 567.337 239.846 567.337C242.826 567.337 250.812 563.984 251.841 560.526C252.926 556.876 249.744 550.263 248.554 543.735C247.632 538.691 248.457 535.59 247.575 533.049Z" fill="#E68969"/>
<path fill-rule="evenodd" clip-rule="evenodd" d="M229.574 483.816C225.302 470.243 222.164 456.388 225.476 442.396C228.973 427.63 226.246 412.392 228.951 397.463L210.657 388.238C211.164 404.83 217.447 446.024 217.79 447.805C220.759 463.167 219.663 465.638 221.331 478.724C223.086 492.528 231.804 514.211 235.671 528.735C237.012 533.757 238.452 556.652 238.186 560.677C238.02 563.22 236.283 567.337 239.845 567.337C241.34 567.337 244.092 566.492 246.596 565.217C246.159 552.907 239.705 540.5 239.127 528.152C238.374 512.104 234.355 499.008 229.574 483.816Z" fill="#FFA578"/>
<path fill-rule="evenodd" clip-rule="evenodd" d="M249.67 549.063C249.197 551.75 248.529 554.858 246.811 557.211C244.181 560.813 238.744 559.341 238.168 556.602C238.227 558.47 238.243 559.918 238.187 560.679C238.022 563.223 236.285 567.339 239.847 567.339C242.827 567.339 250.813 563.986 251.842 560.526C252.65 557.812 251.097 553.461 249.756 548.727C249.732 548.841 249.69 548.947 249.67 549.063Z" fill="#5342F2"/>
<path fill-rule="evenodd" clip-rule="evenodd" d="M249.67 549.063C249.197 551.75 248.529 554.858 246.811 557.211C246.571 557.533 246.288 557.822 245.971 558.069C245.964 558.34 245.925 558.61 245.853 558.873C244.366 564.126 238.931 565.623 237.663 565.407C237.761 566.52 238.277 567.339 239.846 567.339C242.826 567.339 250.812 563.986 251.841 560.526C252.65 557.812 251.096 553.461 249.755 548.727C249.732 548.841 249.69 548.947 249.67 549.063Z" fill="#2B1BED"/>
<path fill-rule="evenodd" clip-rule="evenodd" d="M245.951 290.182C237.962 292.375 239.752 283.518 238.713 275.773L227.856 279.595C229.205 286.875 230.235 292.038 224.354 294.32C220.96 295.636 215.158 296.592 212.528 297.924C201.953 303.283 207.778 334.471 207.778 342.925L216.177 346.166C218.236 339.044 218.906 331.245 218.906 322.599L254.054 317.974L251.158 306.062L263.004 301.85C260.027 289.35 255.476 287.569 245.951 290.182Z" fill="#FFA578"/>
<path fill-rule="evenodd" clip-rule="evenodd" d="M245.95 290.182C237.961 292.375 239.752 283.518 238.712 275.773L227.855 279.595C228.12 281.016 228.369 282.357 228.558 283.611C231.492 288.027 237.315 294.855 242.449 294.227C245.222 293.886 247.753 290.694 250.955 290.302C253.235 290.048 255.543 290.265 257.735 290.939C254.937 288.649 251.202 288.741 245.95 290.182Z" fill="#E68969"/>
<path fill-rule="evenodd" clip-rule="evenodd" d="M214.187 323.672C214.067 325.412 213.949 327.191 213.9 329.041C213.755 334.406 214.135 339.951 212.856 344.877L216.181 346.161C217.815 340.117 218.7 333.895 218.815 327.635C217.45 327.142 214.489 324.177 214.187 323.672Z" fill="#E68969"/>
<path fill-rule="evenodd" clip-rule="evenodd" d="M239.385 246.049C236.993 244.841 233.909 244.418 229.975 245.11C220.498 246.786 218.374 254.943 219 263.034C219.359 267.594 219.649 271.549 221.773 275.127C222.801 276.827 229.058 284.135 233.507 284.135C238.357 284.113 244.189 275.954 245.039 273.697C246.001 271.148 246.38 267.995 246.538 263.325C246.56 262.991 246.56 262.679 246.56 262.364C246.625 255.301 244.748 248.709 239.385 246.049Z" fill="#FFA578"/>
<path fill-rule="evenodd" clip-rule="evenodd" d="M239.385 246.049C236.121 245.086 231.942 245.132 226.645 246.897C226.645 246.897 231.004 261.605 246.56 262.364C246.624 255.301 244.748 248.709 239.385 246.049Z" fill="#E68969"/>
<path fill-rule="evenodd" clip-rule="evenodd" d="M238.014 378.082C229.49 395.646 231.366 406.772 231.629 430.226C231.807 445.751 231.671 449.983 230.827 460.67C230.565 463.99 229.622 466.727 229.432 469.48C229.231 472.37 229.794 475.279 229.932 479.031C230.314 483.021 228.516 486.081 227.828 489.519C224.311 507.058 228.21 519.7 224.364 533.072C223.108 537.435 221.613 537.044 220.96 538.93C220.079 541.471 220.902 544.572 219.983 549.616C218.791 556.147 215.537 562.779 216.696 566.411C217.441 568.737 223.012 575.185 225.994 575.185C229.445 575.185 229.151 569.104 229.441 566.575C229.729 564.097 230.037 545.718 230.15 544.278C230.574 538.967 244.72 499.999 246.477 486.195C248.142 473.107 247.28 467.031 250.249 451.673C254.219 431.11 257.323 412.286 257.875 394.119L255.777 378.145L238.014 378.082Z" fill="#FFA578"/>
<path fill-rule="evenodd" clip-rule="evenodd" d="M226.694 566.428C220.548 566.428 218.924 555.648 218.717 554.781C217.376 559.455 215.844 563.742 216.696 566.409C217.441 568.736 223.012 575.183 225.994 575.183C229.445 575.183 229.151 569.102 229.443 566.573C229.487 566.186 229.532 565.381 229.576 564.351C228.755 565.088 227.915 566.428 226.694 566.428Z" fill="#5342F2"/>
<path fill-rule="evenodd" clip-rule="evenodd" d="M226.694 566.431C226.013 566.43 225.339 566.285 224.717 566.007C224.795 566.724 224.778 567.449 224.665 568.162C224.39 569.974 222.139 570.923 220.542 570.502C219.984 570.35 219.442 570.147 218.922 569.895C221.008 572.449 224.049 575.184 225.994 575.184C229.445 575.184 229.15 569.103 229.443 566.574C229.487 566.187 229.532 565.382 229.576 564.352C228.755 565.091 227.914 566.431 226.694 566.431Z" fill="#2B1BED"/>
<path fill-rule="evenodd" clip-rule="evenodd" d="M264.022 359.403C258.699 360.769 226.518 365.876 214.76 359.086C213.866 364.235 204.591 371.392 204.591 387.739C204.591 411.58 214.67 459.42 214.67 459.42C214.67 459.42 237.163 465.653 253.078 460.345C259.514 429.368 268.379 397.07 265.744 373.647C265.663 372.944 264.14 360.154 264.022 359.403Z" fill="#FE8046"/>
<path fill-rule="evenodd" clip-rule="evenodd" d="M264.061 359.695C263.973 359.793 263.916 359.896 263.823 359.993C252.608 371.481 223.946 372.232 229.609 376.024C232.186 377.748 244.36 385.841 247.304 388.548C253.64 394.38 232.961 402.426 234.191 416.019C234.763 422.337 234.278 433.379 232.586 439.488C229.989 448.881 224.205 452.824 218.198 460.264C225.148 461.761 241.002 464.378 253.076 460.349C259.513 429.371 268.377 397.074 265.742 373.651C265.669 372.994 264.329 361.749 264.061 359.695Z" fill="#EB4201"/>
<path fill-rule="evenodd" clip-rule="evenodd" d="M265.766 293.482C259.898 287.056 247.256 288.802 247.256 288.802C242.535 293.075 233.277 299.68 233.277 299.68L219.701 295.433C219.701 295.433 206.179 295.913 204.544 308.617C203.997 312.873 212.725 312.319 212.725 318.411C212.779 320.333 213.261 322.219 214.135 323.931C215.009 325.644 216.254 327.14 217.778 328.312C218.717 334.223 219.069 340.212 218.828 346.193C218.37 354.253 213.529 353.599 214.288 358.093C215.582 365.75 260.748 364.165 264.533 359.677C268.538 354.928 264.602 326.566 262.876 311.686C261.847 302.854 269.101 297.133 265.766 293.482Z" fill="#F5C825"/>
<path fill-rule="evenodd" clip-rule="evenodd" d="M265.765 293.482C259.898 287.056 247.256 288.802 247.256 288.802C242.534 293.075 233.277 299.68 233.277 299.68L219.701 295.433C217.009 295.642 214.388 296.398 211.998 297.654C213.087 298.067 215.36 299.793 217.5 299.979C221.39 300.319 225.734 303.244 225.323 307.802C225.369 308.607 225.677 309.375 226.198 309.989C230.861 312.844 227.755 323.382 222.25 326.015C218.498 327.803 236.768 339.187 236.768 350.243C236.768 354.937 247.884 350.28 251.68 347.383C255.107 344.765 258.285 351.251 254.9 353.833C248.6 358.642 229.568 359.089 229.568 362.462C229.568 365.219 261.563 363.2 264.534 359.677C268.537 354.927 264.603 326.565 262.877 311.685C261.847 302.854 269.101 297.133 265.765 293.482ZM258.207 316.013C256.707 318.23 255.45 321.338 256.121 324.045C257.164 328.243 253.984 329.72 250.376 327.358C248.298 326.003 240.161 330.833 235.42 330.034C231.168 329.314 234.086 327.249 235.584 327.452C240.409 328.105 250.225 316.993 252.229 312.253C253.281 309.767 257.355 308.863 258.786 310.492C260.069 311.384 259.344 314.33 258.207 316.011V316.013Z" fill="#B88704"/>
<path fill-rule="evenodd" clip-rule="evenodd" d="M230.787 273.078C230.438 273.553 231.394 273.815 231.874 273.846C232.144 273.872 232.411 273.915 232.675 273.977C233.082 274.073 233.506 274.073 233.913 273.977C234.177 273.915 234.445 273.871 234.716 273.846C235.194 273.815 236.037 273.622 235.8 273.078C235.024 272.554 234.099 272.295 233.164 272.34C232.307 272.282 231.46 272.545 230.787 273.078Z" fill="#E68969"/>
<path fill-rule="evenodd" clip-rule="evenodd" d="M225.243 243.514C225.243 243.514 231.416 261.88 254.195 259.54C254.195 259.54 251.492 235.789 225.243 243.514Z" fill="#2B1BED"/>
<path d="M247.256 288.802L233.277 299.679C233.277 299.679 238.507 298.296 241.86 300.625C245.213 302.954 248.744 300.625 248.744 298.017C248.744 295.41 250.327 292.957 249.777 290.757C249.68 290.173 249.367 289.648 248.899 289.286C248.432 288.923 247.845 288.751 247.256 288.802Z" fill="white"/>
<path d="M217.881 296.851C217.881 297.819 219.976 300.07 219.976 302.764C219.976 304.674 223.878 305.404 225.83 303.062C229.268 298.928 232.712 299.906 233.28 299.657L219.704 295.434C219.704 295.434 217.881 295.432 217.881 296.851Z" fill="white"/>
<defs>
<linearGradient id="paint0_linear_156_2862" x1="334.2" y1="175.216" x2="479.113" y2="175.216" gradientUnits="userSpaceOnUse">
<stop stop-color="#F5C825"/>
<stop offset="1" stop-color="#EB4201"/>
</linearGradient>
</defs>
</svg>
