<svg width="495" height="446" viewBox="0 0 495 446" fill="none" xmlns="http://www.w3.org/2000/svg">
<path opacity="0.07" d="M166.361 67.9825C165 68.7599 163.769 70.6387 163.574 72.3231L133.309 322.585C133.05 324.723 134.346 325.695 136.096 324.723L300.772 229.684C302.457 228.713 303.818 226.186 303.559 224.372L273.229 9.09346C273.034 7.60342 271.868 7.14993 270.442 7.92734L166.361 67.9825Z" fill="url(#paint0_linear_92_9405)"/>
<path opacity="0.4" d="M208.94 71.5461C208.94 45.2436 224.364 14.9893 243.353 3.97593C262.341 -6.97264 277.765 5.46598 277.765 31.7685L270.312 36.0442V35.9794C270.312 15.3132 258.193 5.53076 243.288 14.1471C228.382 22.7634 216.263 46.5393 216.263 67.2055V67.2703L208.94 71.5461Z" fill="url(#paint1_linear_92_9405)"/>
<path opacity="0.4" d="M188.525 86.1222C188.72 84.4378 189.886 82.5591 191.312 81.7817L295.458 21.6617C296.818 20.8843 298.05 21.3378 298.244 22.8278L328.574 238.107C328.833 239.921 327.537 242.447 325.787 243.419L161.047 338.458C159.362 339.429 158.001 338.458 158.26 336.32L188.525 86.1222Z" fill="url(#paint2_linear_92_9405)"/>
<path opacity="0.3" d="M281.589 119.034L474.456 7.73438L474.391 108.215L298.569 209.667L281.524 234.869L281.589 119.034Z" fill="url(#paint3_linear_92_9405)"/>
<path d="M495 46.9285V19.6543L422.221 61.6346V88.9089L495 46.9285Z" fill="#F2994A"/>
<path opacity="0.15" d="M331.167 114.886L373.421 90.5273V99.338L331.167 123.697V114.886Z" fill="white"/>
<path opacity="0.15" d="M331.167 132.508L412.63 85.5391V94.3497L331.167 141.383V132.508Z" fill="white"/>
<path opacity="0.15" d="M331.167 150.194L429.868 93.248V102.059L331.167 159.004V150.194Z" fill="white"/>
<path d="M320.797 130.047C320.797 138.339 315.872 147.862 309.845 151.361C303.818 154.859 298.893 150.972 298.893 142.68C298.893 134.387 303.818 124.864 309.845 121.366C315.872 117.867 320.797 121.754 320.797 130.047Z" fill="#F2994A"/>
<path opacity="0.3" d="M259.101 234.285L66.2981 345.52L66.2333 446.001L242.056 344.548L259.036 350.12L259.101 234.285Z" fill="url(#paint4_linear_92_9405)"/>
<path d="M122.357 363.27V335.996L49.5778 377.976V405.251L122.357 363.27Z" fill="#F2C94C"/>
<path opacity="0.15" d="M209.523 287.344L167.268 311.703V320.513L209.523 296.154V287.344Z" fill="white"/>
<path opacity="0.15" d="M209.523 305.029L133.244 349.018V357.829L209.523 313.84V305.029Z" fill="white"/>
<path opacity="0.15" d="M209.523 322.65L110.821 379.596V388.407L209.523 331.461V322.65Z" fill="white"/>
<path d="M219.957 290.518C219.957 298.81 224.882 302.697 230.91 299.199C236.937 295.7 241.862 286.177 241.862 277.885C241.862 269.592 236.937 265.705 230.91 269.204C224.818 272.702 219.957 282.29 219.957 290.518Z" fill="#F2C94C"/>
<path opacity="0.2" d="M461.3 207.983L329.222 284.169V214.591L461.3 138.404V207.983Z" fill="url(#paint5_linear_92_9405)"/>
<path d="M356.118 220.679C356.118 214.914 352.748 212.257 348.6 214.59C344.452 216.987 341.082 223.595 341.082 229.296C341.082 235.062 344.452 237.718 348.6 235.385C352.748 232.988 356.118 226.445 356.118 220.679Z" fill="#F2994A"/>
<path opacity="0.15" d="M362.857 239.143L447.755 190.166V181.355L362.857 230.333V239.143Z" fill="white"/>
<path opacity="0.15" d="M363.117 221.069L401.742 198.783V189.973L363.117 212.258V221.069Z" fill="white"/>
<path opacity="0.2" d="M0.0647888 300.753L132.078 224.566V294.145L0 370.331L0.0647888 300.753Z" fill="url(#paint6_linear_92_9405)"/>
<path opacity="0.15" d="M98.5076 261.17L66.1038 279.893V288.703L98.5076 269.981V261.17Z" fill="white"/>
<path opacity="0.15" d="M98.2484 278.598L28.5803 318.829V327.639L98.2484 287.408V278.598Z" fill="white"/>
<path d="M105.248 262.401C105.248 268.167 108.618 270.823 112.765 268.491C116.913 266.094 120.283 259.486 120.283 253.785C120.283 248.019 116.913 245.363 112.765 247.695C108.618 250.027 105.248 256.635 105.248 262.401Z" fill="#F2C94C"/>
<path opacity="0.2" d="M337.064 380.049C380.874 323.816 349.183 303.603 337.064 336.514C324.88 317.662 293.189 374.413 337.064 380.049Z" fill="url(#paint7_linear_92_9405)"/>
<path opacity="0.2" d="M92.6748 118.386C88.7863 120.589 85.6756 126.031 85.6756 130.501V150.26L72.5845 157.775C68.696 159.978 65.5853 165.419 65.5853 169.954C65.5853 174.425 68.696 176.238 72.5845 174.036L85.6756 166.521V186.28C85.6756 190.75 88.7863 192.564 92.6748 190.362C96.5633 188.159 99.674 182.717 99.674 178.182V158.423L112.765 150.843C116.654 148.64 119.764 143.198 119.764 138.728C119.764 134.258 116.654 132.444 112.765 134.647L99.674 142.162V122.403C99.674 117.933 96.5633 116.119 92.6748 118.386Z" fill="url(#paint8_linear_92_9405)"/>
<defs>
<linearGradient id="paint0_linear_92_9405" x1="126.413" y1="135.046" x2="297.168" y2="204.589" gradientUnits="userSpaceOnUse">
<stop stop-color="white"/>
<stop offset="1" stop-color="white" stop-opacity="0"/>
</linearGradient>
<linearGradient id="paint1_linear_92_9405" x1="226.942" y1="27.4073" x2="337.528" y2="127.646" gradientUnits="userSpaceOnUse">
<stop stop-color="white"/>
<stop offset="1" stop-color="white" stop-opacity="0"/>
</linearGradient>
<linearGradient id="paint2_linear_92_9405" x1="151.551" y1="110.58" x2="262.137" y2="210.818" gradientUnits="userSpaceOnUse">
<stop stop-color="white"/>
<stop offset="1" stop-color="white" stop-opacity="0"/>
</linearGradient>
<linearGradient id="paint3_linear_92_9405" x1="323.657" y1="78.7747" x2="423.206" y2="156.748" gradientUnits="userSpaceOnUse">
<stop stop-color="white"/>
<stop offset="1" stop-color="white" stop-opacity="0"/>
</linearGradient>
<linearGradient id="paint4_linear_92_9405" x1="176.271" y1="237.522" x2="151.356" y2="439.672" gradientUnits="userSpaceOnUse">
<stop stop-color="white"/>
<stop offset="1" stop-color="white" stop-opacity="0"/>
</linearGradient>
<linearGradient id="paint5_linear_92_9405" x1="410.333" y1="237.39" x2="380.205" y2="185.174" gradientUnits="userSpaceOnUse">
<stop stop-color="white" stop-opacity="0"/>
<stop offset="1" stop-color="white"/>
</linearGradient>
<linearGradient id="paint6_linear_92_9405" x1="50.9759" y1="271.362" x2="81.095" y2="323.562" gradientUnits="userSpaceOnUse">
<stop stop-color="white"/>
<stop offset="1" stop-color="white" stop-opacity="0"/>
</linearGradient>
<linearGradient id="paint7_linear_92_9405" x1="327.836" y1="338.644" x2="360.125" y2="366.61" gradientUnits="userSpaceOnUse">
<stop stop-color="white"/>
<stop offset="1" stop-color="white" stop-opacity="0"/>
</linearGradient>
<linearGradient id="paint8_linear_92_9405" x1="79.1141" y1="143.646" x2="113.036" y2="170.427" gradientUnits="userSpaceOnUse">
<stop stop-color="white"/>
<stop offset="1" stop-color="white" stop-opacity="0"/>
</linearGradient>
</defs>
</svg>
