<svg width="567" height="567" viewBox="0 0 567 567" fill="none" xmlns="http://www.w3.org/2000/svg">
<path d="M107.197 453.747L106.959 453.985C92.7725 468.364 127.269 477.13 136.159 478.604C158.148 482.244 185.091 475.304 207.341 473.886C257.951 470.7 308.686 469.668 359.535 470.791C384.176 471.346 409.998 472.163 432.088 461.197C435.002 459.734 438.03 457.784 438.643 454.643C439.799 448.802 432.031 444.176 433.041 438.381C438.076 433.255 446.252 433.743 453.305 432.348C460.359 430.965 468.036 424.138 464.725 417.753C463.5 415.372 461.028 413.932 458.646 412.684C432.292 398.906 406.21 394.087 376.488 392.159C310.047 387.884 246.407 395.493 180.714 403.692C141.807 408.557 103.16 400.777 65.5112 410.28C55.9175 412.718 55.4866 426.338 64.8648 429.422C76.5904 433.221 88.6901 435.705 100.971 436.805C106.471 437.315 110.508 442.191 109.998 447.691C109.783 449.97 108.796 452.114 107.186 453.758L107.197 453.747Z" fill="#F4F4F4"/>
<g opacity="0.41">
<path d="M179.558 293.025H124.173V341.277H179.558V293.025Z" fill="#228FF8"/>
</g>
<path d="M234.511 255.49H179.127V341.255H234.511V255.49Z" fill="#228FF8"/>
<g opacity="0.5">
<path d="M289.453 215.88H234.069V341.266H289.453V215.88Z" fill="#228FF8"/>
</g>
<path d="M344.407 177.312H289.023V341.255H344.407V177.312Z" fill="#228FF8"/>
<path d="M399.361 138.45H343.976V341.277H399.361V138.45Z" fill="#228FF8"/>
<path d="M399.361 138.45H343.976V341.277H399.361V138.45Z" fill="url(#paint0_linear_246_3499)"/>
<path d="M173.491 247.053C173.411 247.144 173.332 247.246 173.287 247.359C173.014 248.516 173.014 249.706 173.287 250.863C173.649 253.403 174.262 255.898 175.112 258.314C175.169 258.54 175.294 258.756 175.452 258.926C175.838 259.221 176.382 259.175 176.723 258.824C177.029 258.472 177.244 258.041 177.335 257.588C177.664 256.238 177.902 254.878 178.061 253.505C178.31 251.759 180.669 250.761 182.03 249.967C182.143 249.911 182.245 249.831 182.302 249.718C182.302 249.57 183.118 251.43 183.073 251.283C182.744 250.217 182.325 249.185 181.837 248.187C181.837 248.096 180.964 245.987 180.884 245.942C180.805 245.896 180.578 245.942 180.442 246.032C179.308 246.565 178.027 246.667 176.825 246.304C175.657 245.976 174.398 246.259 173.479 247.064L173.491 247.053Z" fill="#FCAB9A"/>
<path d="M175.384 245.794C174.375 245.556 173.321 245.658 172.379 246.1C172.073 246.225 171.824 246.44 171.654 246.724C171.54 247.007 171.506 247.314 171.54 247.62C171.608 251.532 172.243 255.422 173.423 259.152C173.559 259.64 173.785 260.094 174.08 260.491C174.387 260.91 174.897 261.126 175.407 261.069C175.759 261.012 176.088 260.842 176.337 260.604C178.299 258.892 178.503 255.909 176.779 253.947C176.757 253.913 176.723 253.891 176.7 253.857C176.36 253.551 176.054 253.21 175.793 252.836C175.589 252.451 175.441 252.042 175.384 251.611C175.169 250.523 175.033 249.411 174.988 248.3C175.078 247.461 175.203 246.622 175.384 245.794Z" fill="#473F47"/>
<path d="M205.844 226.732C205.061 229.079 204.086 231.358 202.929 233.536C200.332 237.913 196.261 241.304 192.156 244.388C189.922 246.066 187.677 247.688 185.364 249.264C184.162 249.922 182.914 250.466 181.621 250.909C181.497 250.988 181.361 251.022 181.213 251.011C181.1 250.977 180.998 250.909 180.918 250.818C179.138 249.23 177.879 247.166 179.841 245.579C181.826 244.071 183.629 242.347 185.228 240.442C188.38 236.473 191.068 231.925 195.241 228.954C196.205 228.489 196.681 227.389 196.375 226.369C195.967 220.529 195.762 214.655 195.751 208.746C195.638 207.136 195.887 205.515 196.477 204.018C198.269 200.298 204.766 199.833 208.27 200.162C209.098 200.162 209.903 200.412 210.595 200.854C214.61 204.018 212.818 207.975 211.389 211.831L205.844 226.732Z" fill="#473F47"/>
<path d="M225.167 179.66C225.927 180.329 237.471 184.037 238.968 183.629C240.737 183.175 245.33 170.259 246.702 165.541C246.815 165.28 246.815 164.997 246.702 164.736C246.634 164.623 246.543 164.543 246.441 164.475C243.606 162.65 241.916 166.947 241.224 168.853C240.136 171.801 238.662 174.602 236.847 177.176C233.933 177.414 226.902 174.591 226.063 174.568C225.144 174.545 224.283 175.033 223.829 175.838C223.171 177.244 224.146 178.718 225.167 179.66Z" fill="#FCAB9A"/>
<path d="M226.426 172.572C226.777 172.81 227.129 173.026 227.492 173.23C227.651 173.298 227.787 173.411 227.855 173.57C227.889 173.695 227.889 173.831 227.855 173.944L227.163 177.074C226.947 178.469 226.46 179.807 225.7 180.998C225.28 181.565 222.185 179.535 221.742 179.206C220.461 178.355 219.338 177.278 218.431 176.042C218.012 175.509 217.694 174.897 217.479 174.25C217.184 172.674 217.422 171.041 218.17 169.612C219.384 167.265 221.402 168.41 222.944 169.862C224.01 170.882 225.178 171.801 226.414 172.595L226.426 172.572Z" fill="#228FF8"/>
<path d="M208.588 253.517C208.656 253.608 208.735 253.687 208.826 253.755C209.824 254.231 210.924 254.47 212.035 254.458C214.417 254.606 216.809 254.515 219.18 254.186C219.406 254.175 219.622 254.107 219.826 253.993C220.155 253.687 220.211 253.188 219.962 252.825C219.701 252.474 219.35 252.19 218.941 252.02C217.773 251.464 216.571 250.977 215.335 250.557C214.791 250.353 214.326 250.262 214.326 249.582C214.326 249.264 214.405 248.947 214.53 248.652L214.904 247.541C215.04 247.144 215.165 246.668 214.904 246.361C214.723 246.203 214.496 246.101 214.258 246.089C213.181 245.874 212.081 245.772 210.969 245.783C210.867 245.772 210.754 245.794 210.663 245.851C210.606 245.908 210.561 245.976 210.527 246.055C209.756 247.847 207.136 251.68 208.588 253.528V253.517Z" fill="#FCAB9A"/>
<path d="M199.153 196.012C199.153 196.012 193.313 204.188 199.312 211.457C203.496 216.503 209.767 219.939 215.528 222.831C216.537 223.341 217.728 223.761 218.715 224.373C220.631 225.552 219.44 226.573 218.442 228.183C215.914 232.266 213.351 236.314 210.765 240.362C209.257 242.392 208.225 244.728 207.76 247.212L214.303 249.185C217.807 243.186 221.81 237.482 226.256 232.152C228.183 229.85 230.633 227.027 230.327 223.817C229.884 220.858 228.58 218.102 226.573 215.879L214.292 201.659L199.153 196.023V196.012Z" fill="#473F47"/>
<path d="M227.571 156.957C227.775 157.569 228.365 158.034 228.444 158.692C228.524 159.35 227.877 160.155 227.446 160.778C226.868 161.697 226.721 162.854 226.131 163.783C226.029 163.988 225.87 164.169 225.666 164.282C225.473 164.339 225.269 164.373 225.065 164.373C224.283 164.362 223.511 164.226 222.774 163.999C222.65 163.92 222.491 163.874 222.332 163.897C222.207 163.976 222.105 164.09 222.037 164.237C221.164 166.063 220.756 168.059 220.824 170.077C220.824 170.724 220.824 171.54 220.302 171.869C220.109 171.982 219.871 172.039 219.644 172.028C218.182 172.028 216.968 170.69 216.242 169.34C215.607 168.138 215.12 166.868 214.78 165.541C214.666 165.156 214.621 164.759 214.644 164.362C214.712 163.897 214.882 163.443 215.12 163.035C215.88 161.55 216.492 159.985 216.946 158.374C217.342 156.276 218.068 154.247 219.089 152.375C219.474 151.763 220.041 151.298 220.71 151.037C221.47 150.856 222.275 150.89 223.012 151.128C224.566 151.378 225.961 152.205 226.913 153.453C227.163 153.918 227.288 156.208 227.537 156.968L227.571 156.957Z" fill="#FCAB9A"/>
<path d="M212.602 202.714C211.298 202.929 209.949 202.861 208.679 202.51C206.796 202.124 204.88 202.022 202.975 202.192C201.841 202.464 200.729 202.827 199.663 203.292C197.531 203.916 193.665 203.394 193.71 200.582C193.869 191.827 197.259 183.481 201.013 175.577C202.6 172.175 204.426 168.637 207.613 166.675C211.899 163.965 217.569 165.235 220.279 169.51C220.529 169.907 220.744 170.315 220.937 170.746C221.799 172.799 222.298 174.976 222.4 177.199C222.65 179.977 222.695 183.039 221.141 185.295C220.404 186.259 219.599 187.155 218.737 187.994C216.651 190.251 215.256 193.063 214.712 196.091C214.235 198.427 216.22 201.988 212.625 202.714H212.602Z" fill="#228FF8"/>
<path d="M226.857 152.466C225.802 154.144 224.044 153.464 222.593 154.144C221.141 154.825 221.13 156.934 219.678 157.898C219.066 158.351 218.306 158.669 217.943 159.361C217.694 159.95 217.615 160.597 217.694 161.232C217.739 162.173 217.739 163.114 217.694 164.044C217.694 164.883 217.444 165.7 216.968 166.391C215.902 167.627 213.952 167.299 212.307 167.457C209.11 167.775 208.032 170.803 205.912 172.844C204.88 173.853 203.723 174.726 202.771 175.758C201.342 177.505 200.196 179.478 199.403 181.598C198.768 183.265 197.928 184.842 196.908 186.304C195.876 187.779 194.3 188.777 192.531 189.083C190.852 189.219 189.185 188.64 187.949 187.495C185.772 185.488 184.967 182.392 185.885 179.58C186.123 179.138 186.191 178.616 186.078 178.117C185.942 177.856 185.749 177.618 185.511 177.425C183.311 175.157 183.311 171.562 185.511 169.294C186.668 168.194 189.423 167.163 189.571 165.371C189.718 163.579 188.108 161.821 188.8 159.769C189.026 159.145 189.367 158.555 189.809 158.045C190.625 156.809 191.759 155.8 193.075 155.131C194.402 154.666 195.796 154.439 197.191 154.462C201.693 154.144 206.388 152.772 209.348 149.347C210.017 148.463 210.754 147.624 211.548 146.853C212.478 146.138 213.544 145.594 214.678 145.276C217.399 144.244 220.404 144.199 223.16 145.14C225.099 145.957 226.551 147.612 227.118 149.642C227.458 150.572 227.367 151.615 226.868 152.477L226.857 152.466Z" fill="#231F20"/>
<path d="M226.346 159.973C225.779 159.973 224.884 159.973 224.373 159.814C224.203 160.166 225.042 161.459 225.235 161.629C225.417 161.788 225.7 161.788 225.881 161.629C225.972 161.527 226.029 161.402 226.04 161.266L226.346 159.962" fill="white"/>
<path d="M224.804 157.07C225.092 157.07 225.326 156.836 225.326 156.548C225.326 156.26 225.092 156.026 224.804 156.026C224.516 156.026 224.283 156.26 224.283 156.548C224.283 156.836 224.516 157.07 224.804 157.07Z" fill="#231F20"/>
<path d="M243.107 161.345C242.222 161.424 241.451 161.98 241.111 162.808C240.828 163.908 241.259 165.076 242.188 165.722C243.107 166.334 244.162 166.72 245.273 166.845C245.59 166.947 245.942 166.901 246.225 166.709C246.373 166.55 246.464 166.346 246.498 166.142C246.758 165.393 246.872 164.599 246.815 163.806C246.316 162.207 244.774 161.175 243.107 161.333V161.345Z" fill="#FCAB9A"/>
<path d="M207.783 251.532C207.375 252.405 207.273 253.392 207.511 254.333C207.567 254.639 207.726 254.911 207.953 255.127C208.191 255.286 208.463 255.388 208.747 255.422C212.364 256.091 216.05 256.238 219.712 255.864C220.177 255.83 220.642 255.717 221.073 255.513C221.504 255.297 221.799 254.877 221.867 254.401C221.867 254.084 221.776 253.766 221.606 253.494C220.438 251.373 217.785 250.602 215.664 251.759C215.607 251.793 215.551 251.827 215.494 251.861C215.154 252.111 214.78 252.326 214.394 252.507C214.008 252.621 213.6 252.666 213.192 252.643C212.149 252.643 211.094 252.564 210.062 252.383C209.291 252.156 208.531 251.872 207.794 251.555L207.783 251.532Z" fill="#473F47"/>
<path d="M201.149 171.925C199.89 171.925 199.686 169.907 198.677 170.701C195.751 172.98 193.029 175.509 190.546 178.264C188.822 180.249 183.118 190.149 181.95 191.736C180.125 193.868 178.752 196.352 177.925 199.039C177.675 199.81 177.709 200.638 178.015 201.387C179.478 204.301 184.196 198.71 185.035 197.338C185.681 197.803 186.645 198.211 187.167 197.61C187.892 196.794 186.792 195.569 186.441 194.809C186.021 193.8 185.999 192.677 186.35 191.646C186.815 190.421 187.518 189.287 188.391 188.312C192.281 183.594 197.112 179.75 202.578 177.017C203.372 176.62 204.256 176.155 204.494 175.305C204.596 174.885 204.551 174.443 204.392 174.046C203.882 172.719 202.578 171.857 201.149 171.914V171.925Z" fill="#FCAB9A"/>
<path d="M214.292 173.093C214.292 173.093 199.697 180.033 198.847 180.77C197.996 181.507 193.653 172.696 193.653 172.696C193.653 172.696 208.044 164.203 212.636 164.724C217.218 165.246 218.851 170.201 214.303 173.093H214.292Z" fill="#228FF8"/>
<path d="M133.324 336.651L422.177 312.689L435.002 448.316L146.127 472.266L133.324 336.651Z" fill="#228FF8"/>
<path d="M151.763 352.175L406.879 331.026L416.462 432.327L161.346 453.487L151.763 352.175Z" fill="url(#paint1_linear_246_3499)"/>
<path d="M202.215 467.616L416.473 381.262L389.96 315.366L396.707 314.81L371.6 253.041L335.097 263.043L317.815 275.744L162.876 469.703L202.215 467.616Z" fill="url(#paint2_linear_246_3499)"/>
<path d="M317.738 394.412C319.15 372.977 302.255 354.412 280.001 352.945C257.747 351.479 238.562 367.667 237.149 389.102C235.737 410.537 252.632 429.103 274.886 430.569C297.14 432.036 316.325 415.848 317.738 394.412Z" fill="#228FF8"/>
<path d="M275.959 421.859L275.585 414.681C271.627 414.84 267.703 413.921 264.222 412.028L265.685 407.242C268.928 409.057 272.614 409.941 276.333 409.794C281.561 409.556 284.883 406.539 284.679 402.491C284.475 398.442 281.493 396.344 275.925 394.451C268.304 391.967 263.53 388.928 263.213 382.771C262.895 376.93 266.966 372.304 273.646 370.943L273.271 363.776L277.807 363.561L278.159 370.387C281.493 370.285 284.793 370.977 287.798 372.428L286.267 377.248C283.387 375.762 280.166 375.071 276.923 375.252C271.287 375.502 269.348 378.847 269.495 381.659C269.699 385.311 272.5 387.012 278.941 389.28C286.664 391.888 290.621 395.392 290.973 401.663C291.268 407.22 287.514 412.629 280.064 414.16L280.438 421.463L275.97 421.871L275.959 421.859Z" fill="url(#paint3_linear_246_3499)"/>
<path d="M208.266 400.323C208.627 394.842 204.304 390.095 198.611 389.72C192.918 389.345 188.01 393.483 187.649 398.964C187.288 404.445 191.61 409.192 197.304 409.567C202.997 409.942 207.905 405.803 208.266 400.323Z" fill="#228FF8"/>
<path d="M369.857 387.917C370.241 382.426 365.924 377.65 360.213 377.251C354.503 376.852 349.562 380.98 349.178 386.471C348.794 391.963 353.112 396.739 358.823 397.138C364.533 397.537 369.473 393.409 369.857 387.917Z" fill="#228FF8"/>
<path d="M423.797 332.139C424.389 323.153 417.306 315.369 407.975 314.755C398.645 314.14 390.601 320.926 390.009 329.913C389.417 338.9 396.501 346.683 405.831 347.298C415.161 347.913 423.205 341.126 423.797 332.139Z" fill="#228FF8"/>
<path d="M433.371 433.429C433.963 424.443 426.879 416.659 417.549 416.045C408.219 415.43 400.175 422.216 399.583 431.203C398.991 440.19 406.074 447.973 415.405 448.588C424.735 449.203 432.779 442.416 433.371 433.429Z" fill="#228FF8"/>
<path d="M168.654 353.3C169.246 344.313 162.162 336.529 152.832 335.915C143.502 335.3 135.458 342.087 134.866 351.073C134.273 360.06 141.357 367.843 150.687 368.458C160.018 369.073 168.061 362.286 168.654 353.3Z" fill="#228FF8"/>
<path d="M178.239 454.578C178.831 445.591 171.748 437.808 162.417 437.193C153.087 436.578 145.043 443.365 144.451 452.351C143.859 461.338 150.943 469.121 160.273 469.736C169.603 470.351 177.647 463.564 178.239 454.578Z" fill="#228FF8"/>
<path d="M88.5541 348.694L359.24 249.594L410.009 376.885L139.312 475.974L88.5541 348.694Z" fill="#228FF8"/>
<path d="M110.667 358.809L349.737 271.287L387.669 366.35L148.599 453.872L110.667 358.809Z" fill="url(#paint4_linear_246_3499)"/>
<path d="M282.905 366.523C284.318 345.087 267.422 326.522 245.168 325.055C222.914 323.589 203.729 339.777 202.316 361.212C200.904 382.648 217.799 401.213 240.053 402.68C262.307 404.146 281.493 387.958 282.905 366.523Z" fill="#228FF8"/>
<path d="M249.718 393.248L247.325 386.444C243.538 387.635 239.501 387.783 235.645 386.864L235.713 381.84C239.319 382.748 243.107 382.634 246.668 381.523C251.635 379.913 253.971 376.125 252.621 372.315C251.283 368.505 247.858 367.189 242.018 366.838C233.99 366.463 228.546 364.774 226.482 358.968C224.521 353.422 227.129 347.9 233.173 344.827L230.746 338L235.056 336.537L237.335 343.024C240.521 342.048 243.901 341.856 247.178 342.468L247.065 347.503C243.889 346.834 240.601 347.015 237.516 348.047C232.175 349.771 231.257 353.49 232.198 356.167C233.423 359.637 236.575 360.544 243.424 361.032C251.589 361.508 256.386 363.832 258.495 369.786C260.366 375.07 258.291 381.262 251.555 384.709L254.005 391.661L249.718 393.271V393.248Z" fill="url(#paint5_linear_246_3499)"/>
<path d="M178.81 393.07C179.171 387.589 174.849 382.842 169.156 382.467C163.462 382.092 158.554 386.23 158.193 391.711C157.832 397.192 162.155 401.939 167.848 402.314C173.541 402.689 178.449 398.55 178.81 393.07Z" fill="#228FF8"/>
<path d="M330.134 339.115C330.518 333.623 326.2 328.847 320.49 328.448C314.779 328.049 309.839 332.177 309.455 337.669C309.071 343.16 313.389 347.936 319.099 348.335C324.81 348.735 329.75 344.606 330.134 339.115Z" fill="#228FF8"/>
<path d="M366.645 272.397C367.237 263.411 360.153 255.627 350.823 255.012C341.492 254.398 333.449 261.184 332.857 270.171C332.264 279.157 339.348 286.941 348.678 287.556C358.009 288.17 366.052 281.384 366.645 272.397Z" fill="#228FF8"/>
<path d="M404.597 367.441C405.189 358.455 398.106 350.671 388.776 350.056C379.445 349.441 371.401 356.228 370.809 365.215C370.217 374.201 377.301 381.985 386.631 382.6C395.961 383.214 404.005 376.428 404.597 367.441Z" fill="#228FF8"/>
<path d="M127.564 359.929C128.156 350.943 121.073 343.159 111.742 342.545C102.412 341.93 94.3682 348.716 93.776 357.703C93.1839 366.69 100.268 374.473 109.598 375.088C118.928 375.703 126.972 368.916 127.564 359.929Z" fill="#228FF8"/>
<path d="M165.481 454.963C166.073 445.976 158.99 438.193 149.659 437.578C140.329 436.963 132.285 443.75 131.693 452.736C131.101 461.723 138.185 469.506 147.515 470.121C156.845 470.736 164.889 463.949 165.481 454.963Z" fill="#228FF8"/>
<path d="M395.929 117.178C397.685 103.79 388.254 91.5134 374.866 89.758C361.478 88.0025 349.201 97.4327 347.446 110.821C345.691 124.209 355.121 136.486 368.509 138.241C381.897 139.997 394.174 130.566 395.929 117.178Z" fill="#228FF8"/>
<path d="M392.048 118.306C394.438 107.045 387.246 95.9798 375.986 93.5904C364.725 91.201 353.66 98.3925 351.27 109.653C348.881 120.914 356.073 131.979 367.333 134.368C378.594 136.758 389.659 129.566 392.048 118.306Z" fill="url(#paint6_linear_246_3499)"/>
<path d="M373.199 127.166L372.338 123.923C370.614 124.388 368.788 124.354 367.087 123.821L367.28 121.485C368.879 122.007 370.591 122.052 372.213 121.633C374.503 121.031 375.683 119.308 375.207 117.505C374.73 115.69 373.211 114.976 370.58 114.59C366.974 114.182 364.57 113.252 363.833 110.474C363.152 107.752 364.649 104.974 367.291 104.033L366.429 100.801L368.414 100.279L369.23 103.375C370.693 103.001 372.224 103.001 373.687 103.375L373.426 105.87C372.02 105.473 370.523 105.473 369.117 105.87C366.645 106.528 366.123 108.24 366.463 109.521C366.906 111.188 368.3 111.699 371.385 112.107C375.048 112.572 377.157 113.797 377.905 116.632C378.563 119.455 377.044 122.336 374.345 123.39L375.241 126.724L373.211 127.178L373.199 127.166Z" fill="#228FF8"/>
<defs>
<linearGradient id="paint0_linear_246_3499" x1="232.595" y1="141.297" x2="730.171" y2="493.937" gradientUnits="userSpaceOnUse">
<stop/>
<stop offset="0.08" stop-opacity="0.69"/>
<stop offset="0.21" stop-opacity="0.32"/>
<stop offset="1" stop-opacity="0"/>
</linearGradient>
<linearGradient id="paint1_linear_246_3499" x1="272.116" y1="128.814" x2="336.465" y2="942.278" gradientUnits="userSpaceOnUse">
<stop stop-color="#231F20"/>
<stop offset="0.13" stop-color="#231F20" stop-opacity="0.69"/>
<stop offset="0.25" stop-color="#231F20" stop-opacity="0.32"/>
<stop offset="1" stop-color="#231F20" stop-opacity="0"/>
</linearGradient>
<linearGradient id="paint2_linear_246_3499" x1="231.631" y1="253.29" x2="379.368" y2="679.595" gradientUnits="userSpaceOnUse">
<stop/>
<stop offset="0.08" stop-opacity="0.69"/>
<stop offset="0.21" stop-opacity="0.32"/>
<stop offset="1" stop-opacity="0"/>
</linearGradient>
<linearGradient id="paint3_linear_246_3499" x1="189.935" y1="226.766" x2="549.247" y2="898.372" gradientUnits="userSpaceOnUse">
<stop stop-color="#231F20"/>
<stop offset="0.13" stop-color="#231F20" stop-opacity="0.69"/>
<stop offset="0.25" stop-color="#231F20" stop-opacity="0.32"/>
<stop offset="1" stop-color="#231F20" stop-opacity="0"/>
</linearGradient>
<linearGradient id="paint4_linear_246_3499" x1="155.386" y1="120.203" x2="442.005" y2="885.063" gradientUnits="userSpaceOnUse">
<stop stop-color="#231F20"/>
<stop offset="0.13" stop-color="#231F20" stop-opacity="0.69"/>
<stop offset="0.25" stop-color="#231F20" stop-opacity="0.32"/>
<stop offset="1" stop-color="#231F20" stop-opacity="0"/>
</linearGradient>
<linearGradient id="paint5_linear_246_3499" x1="108.999" y1="225.019" x2="644.769" y2="776.559" gradientUnits="userSpaceOnUse">
<stop stop-color="#231F20"/>
<stop offset="0.13" stop-color="#231F20" stop-opacity="0.69"/>
<stop offset="0.25" stop-color="#231F20" stop-opacity="0.32"/>
<stop offset="1" stop-color="#231F20" stop-opacity="0"/>
</linearGradient>
<linearGradient id="paint6_linear_246_3499" x1="350.822" y1="113.98" x2="392.507" y2="113.98" gradientUnits="userSpaceOnUse">
<stop stop-color="white" stop-opacity="0"/>
<stop offset="1" stop-color="white"/>
</linearGradient>
</defs>
</svg>
