<svg width="540" height="439" viewBox="0 0 540 439" fill="none" xmlns="http://www.w3.org/2000/svg">
<path d="M342.254 338.548H237.494L256.036 286.652H326.628L342.254 338.548Z" fill="#228FF8"/>
<path d="M342.254 338.548H237.494L256.036 286.652H326.628L342.254 338.548Z" fill="url(#paint0_linear_246_1383)"/>
<path d="M158.56 98.2705H430.024C440.412 98.2705 448.83 106.634 448.83 116.945V287.455C448.83 297.766 440.412 306.13 430.024 306.13H158.56C148.172 306.13 139.754 297.766 139.754 287.455V116.945C139.754 106.634 148.172 98.2705 158.56 98.2705Z" fill="#228FF8"/>
<path d="M448.829 116.923V266.481H139.819V116.923C139.819 106.623 148.238 98.2705 158.615 98.2705H430.045C440.422 98.2705 448.84 106.623 448.84 116.923H448.829Z" fill="#231F20"/>
<path d="M444.186 120.488V261.486H144.442V120.488C144.508 110.54 152.673 102.529 162.687 102.584H425.941C435.955 102.529 444.131 110.551 444.186 120.488Z" fill="white"/>
<path opacity="0.18" d="M444.186 120.488V261.486H144.442V120.488C144.508 110.54 152.673 102.529 162.687 102.584H425.941C435.955 102.529 444.131 110.551 444.186 120.488Z" fill="#228FF8"/>
<path d="M283.316 65.1035H162.522V149.803H283.316V65.1035Z" fill="#228FF8"/>
<path d="M396.56 113.379C396.384 110.826 396.56 108.207 396.285 105.665C395.427 98.2588 391.421 91.5683 385.281 87.2766C379.129 83.051 371.635 81.2133 364.218 82.1046C352.191 83.4691 342.078 91.6563 336.29 101.989C329.698 113.742 335.861 123.36 341.187 134.023C345.17 141.99 342.826 151.938 337.654 159.222C333.594 164.912 327.607 170.37 328.114 177.335C328.433 181.561 331.151 185.181 333.781 188.527C335.541 190.761 337.511 193.137 340.284 193.787C341.682 194.04 343.123 194.04 344.521 193.787C347.657 193.347 350.771 192.719 353.83 191.916C356.802 191.124 359.85 190.144 362.909 190.551C368.081 191.212 371.899 195.536 374.882 199.751C377.864 203.966 380.813 208.664 385.556 210.766C389.154 212.373 393.281 212.23 397.22 211.9C408.698 210.953 420.868 208.312 428.758 199.982C430.497 198.067 432.104 196.032 433.556 193.897C434.448 192.774 435.163 191.531 435.691 190.199C437.067 186.227 434.866 182.012 432.39 178.535C429.914 175.057 426.888 171.712 426.536 167.531C426.205 164.251 427.526 161.071 427.911 157.825C428.747 151.629 426.315 145.335 422.409 140.405C418.37 135.607 413.518 131.547 408.081 128.399C403.955 125.835 399.553 123.172 397.627 118.848C396.956 117.109 396.593 115.26 396.571 113.39L396.56 113.379Z" fill="#3B3433"/>
<path d="M389.804 125.704C390.707 128.433 391.18 131.371 392.764 133.825C394.69 136.94 397.958 138.931 401.205 140.648C402.954 141.418 404.539 142.519 405.882 143.883C406.817 145.072 407.466 146.447 407.796 147.911C408.269 149.836 408.38 151.839 408.137 153.809C407.741 155.449 407.642 157.143 407.818 158.816C408.302 160.907 410.019 162.436 411.516 163.977C414.498 166.772 416.523 170.425 417.282 174.431C417.832 178.448 416.193 182.904 412.616 184.874C411.318 185.534 409.931 185.996 408.49 186.239C406.179 186.69 403.846 186.976 401.491 187.086C399.818 187.207 398.135 187.075 396.495 186.679C394.503 185.974 392.643 184.94 390.993 183.631L369.105 168.181C366.563 166.629 364.363 164.582 362.624 162.161C361.424 159.971 360.632 157.583 360.269 155.119C359.069 149.132 358.156 142.717 360.489 137.061C362.305 132.637 365.903 129.215 369.402 125.924L378.272 117.594C380.847 115.173 382.861 114.117 385.15 117.077C387.163 119.685 388.737 122.59 389.793 125.704H389.804Z" fill="url(#paint1_linear_246_1383)"/>
<path d="M405.055 204.77C412.329 212.858 415.355 222.828 420.868 232.071C421.518 233.392 422.508 234.514 423.741 235.329C425.765 236.418 428.274 235.659 430.31 234.591C446.684 225.909 448.181 201.083 464.247 191.84C467.978 189.716 472.203 188.594 475.912 186.382C477.287 185.567 478.773 184.104 478.223 182.596C477.716 181.661 476.825 181.001 475.78 180.769C471.554 179.317 467.064 178.767 462.608 179.141C460.616 179.317 457.832 179.141 457.612 177.138C457.667 176.566 457.667 175.983 457.612 175.399C457.171 173.958 454.74 174.486 454.134 175.873C453.529 177.27 453.98 178.844 453.925 180.362C453.65 182.728 452.726 184.984 451.262 186.877C447.796 192.181 443.999 197.265 439.906 202.107C428.296 215.752 425.369 193.986 416.203 189.441C415.333 189.078 414.398 188.891 413.452 188.88C405.286 188.329 397.11 188.164 388.923 188.384C391.828 190.695 402.458 201.854 405.066 204.748L405.055 204.77Z" fill="#FFAA71"/>
<path d="M381.65 154.381C381.65 154.381 405.408 165.011 406.817 167.795C408.214 170.579 406.817 250.008 406.817 250.008H323.052L327.861 166.299L352.368 156.34L381.65 154.37V154.381Z" fill="#228FF8"/>
<path d="M323.04 250.019H406.816C406.816 250.019 408.191 170.59 406.816 167.773C405.44 164.967 381.649 154.37 381.649 154.37L352.378 156.318L327.871 166.277L325.549 206.475L323.029 250.019H323.04Z" fill="url(#paint2_linear_246_1383)"/>
<path d="M406.816 167.751L426.767 192.973C422.75 204.747 406.816 219.691 406.816 219.691V167.74V167.751Z" fill="#228FF8"/>
<path d="M406.816 190.662L419.284 205.881L406.816 219.735V190.662Z" fill="url(#paint3_linear_246_1383)"/>
<path d="M381.044 143.08C380.23 147.36 381.484 150.629 381.66 154.557C381.902 160.389 375.696 169.49 373.22 174.816C372.428 176.533 371.47 178.403 369.732 179.185C368.499 179.636 367.168 179.768 365.869 179.581C363.932 179.625 362.007 179.196 360.29 178.315C358.034 176.951 357.055 174.222 356.274 171.68C354.997 167.586 351.751 161.105 352.532 156.89C352.774 155.526 354.018 154.161 354.359 152.686C354.689 150.783 354.788 148.846 354.678 146.909C354.579 136.642 381.055 143.091 381.055 143.091L381.044 143.08Z" fill="#FFAA71"/>
<path d="M381.044 143.08C381.044 143.08 377.688 160.929 367.003 159.895C361.016 159.531 355.976 155.306 354.623 149.507L381.033 143.08H381.044Z" fill="#E0BE99"/>
<path d="M381.979 139.987C381.33 142.837 380.207 145.566 378.656 148.053C374.287 154.403 364.35 156.351 357.781 152.147C354.237 149.627 351.508 146.15 349.891 142.133C346.05 133.715 344.763 124.372 346.193 115.25C346.567 111.684 347.943 108.295 350.155 105.467C354.05 100.999 360.686 99.8438 366.65 100.163C372.053 100.449 377.654 101.792 381.704 105.214C386.161 109.12 388.097 115.151 386.755 120.895C385.225 127.255 383.729 133.638 381.979 139.998V139.987Z" fill="#FFAA71"/>
<path d="M256.696 164.472C255.805 163.624 254.705 163.019 253.505 162.722C252.295 162.568 251.073 162.48 249.852 162.447C247.332 162.161 244.691 160.84 242.424 161.952C240.872 162.854 239.937 164.516 239.992 166.309C240.058 168.059 240.564 169.765 241.466 171.272C245.263 178.436 250.842 180.824 257.401 184.664C260.856 186.689 263.255 191.487 265.654 194.832L274.325 206.761C277.868 211.636 281.478 216.577 286.221 220.329C286.991 220.989 287.871 221.518 288.829 221.87C290.567 222.288 292.405 222.101 294.023 221.353C300.9 218.723 307.019 213.727 312.961 209.413C315.712 207.388 318.562 205.319 321.324 203.284C322.524 202.392 324.747 201.259 325.517 199.927C325.946 199.08 326.188 198.145 326.243 197.198C327.289 189.143 325.847 180.945 326.056 172.824C317.011 183.091 306.557 193.941 294.43 200.554C294.067 200.797 293.649 200.94 293.219 200.973C292.779 200.94 292.35 200.797 291.987 200.566C281.929 195.25 273.082 187.944 265.973 179.107C263.343 175.476 261.043 171.624 259.095 167.586C258.479 166.419 257.665 165.363 256.707 164.461L256.696 164.472Z" fill="#FFAA71"/>
<path d="M386.7 123.14C387.844 122.535 389.253 122.711 390.21 123.592C390.485 123.944 390.673 124.351 390.761 124.78C391.19 127.223 390.673 129.743 389.319 131.823C389.011 132.428 388.582 132.967 388.065 133.407C387.019 134.068 385.787 134.387 384.543 134.332C384.268 134.387 383.982 134.387 383.707 134.332C383.487 134.233 383.289 134.079 383.135 133.892C382.331 132.901 381.979 131.614 382.155 130.359C382.419 127.553 384.037 124.296 386.711 123.14H386.7Z" fill="#FFAA71"/>
<path d="M345.28 133.792C346.425 134.408 347.833 134.232 348.791 133.352C349.066 133 349.253 132.592 349.341 132.163C349.781 129.72 349.264 127.2 347.899 125.121C347.591 124.515 347.162 123.976 346.645 123.525C345.599 122.865 344.367 122.535 343.123 122.601C342.837 122.568 342.551 122.601 342.287 122.678C342.067 122.777 341.869 122.92 341.715 123.118C340.912 124.108 340.559 125.396 340.735 126.65C341 129.39 342.628 132.637 345.291 133.792H345.28Z" fill="#FFAA71"/>
<path d="M327.861 166.31L308.152 190.959C312.158 202.734 325.506 217.677 325.506 217.677L327.861 166.31Z" fill="#228FF8"/>
<path d="M388.89 129.357C388.538 130.215 387.977 130.985 387.251 131.569C386.591 132.108 385.666 132.152 384.951 131.69C384.819 131.602 384.731 131.481 384.676 131.338C384.621 131.106 384.665 130.853 384.775 130.644L384.94 130.204C384.984 130.072 385.039 129.962 385.116 129.852C385.413 129.456 386.04 129.522 386.491 129.28C386.943 129.038 387.119 128.41 387.372 127.915C387.548 127.497 387.955 127.222 388.406 127.211C388.835 127.299 389.154 127.662 389.187 128.102C389.21 128.542 389.11 128.983 388.89 129.368V129.357Z" fill="#E0BE99"/>
<path d="M342.551 128.488C342.892 129.357 343.454 130.116 344.191 130.699C344.851 131.239 345.787 131.294 346.502 130.832C346.634 130.743 346.722 130.611 346.777 130.468C346.821 130.237 346.777 129.995 346.678 129.786L346.513 129.346C346.48 129.214 346.414 129.093 346.337 128.994C346.04 128.598 345.412 128.653 344.961 128.411C344.51 128.168 344.334 127.541 344.081 127.046C343.905 126.639 343.498 126.364 343.047 126.342C342.617 126.419 342.287 126.782 342.265 127.211C342.232 127.662 342.331 128.102 342.551 128.499V128.488Z" fill="#E0BE99"/>
<path d="M381.65 154.381L387.229 156.945L384.478 182.574L369.688 188.219C369.688 188.219 375.895 169.435 381.65 154.37V154.381Z" fill="url(#paint4_linear_246_1383)"/>
<path d="M379.756 184.39L381.638 194.216L363.712 214.101L369.687 188.296L379.756 184.39Z" fill="url(#paint5_linear_246_1383)"/>
<path d="M352.169 156.494L346.59 159.047L343.398 182.574L358.133 188.22C358.133 188.22 352.356 164.539 352.169 156.483V156.494Z" fill="url(#paint6_linear_246_1383)"/>
<path d="M348.086 184.39L346.193 194.216L364.119 214.101L358.144 188.296L348.086 184.39Z" fill="url(#paint7_linear_246_1383)"/>
<path d="M340.846 249.711L396.142 239.928L406.816 190.662V245.496V250.008L340.846 249.711Z" fill="url(#paint8_linear_246_1383)"/>
<path d="M362.094 104.664C362.776 108.757 363.47 113.313 366.628 116.185C368.422 117.682 370.512 118.771 372.779 119.376C377.951 121.06 383.321 122.028 388.757 122.26C391.707 109.175 383.409 96.1905 370.226 93.2634C368.565 92.8892 366.87 92.7021 365.164 92.6801C355.69 92.416 361.093 98.5344 362.094 104.664Z" fill="#363636"/>
<path d="M444.186 245.287H144.398V261.496H444.186V245.287Z" fill="white"/>
<path d="M246.946 161.886L224.025 107.448L249.841 162.458L246.946 161.886Z" fill="white"/>
<path d="M433.579 251.702H180.404V255.069H433.579V251.702Z" fill="#228FF8"/>
<path d="M370.965 343.148C364.769 349.311 364.78 359.292 370.987 365.443C372.957 367.402 375.422 368.81 378.118 369.515V373.113H186.996C178.809 373.113 171.557 367.897 168.993 360.183C168.344 358.268 168.014 356.265 168.014 354.241C168.014 343.842 176.487 335.412 186.963 335.401H378.118V339C375.411 339.726 372.946 341.146 370.965 343.126V343.148Z" fill="#228FF8"/>
<path d="M378.118 369.514V373.113H186.996C178.809 373.113 171.557 367.896 168.993 360.183C176.256 361.448 222.221 368.722 247.806 354.24L367.664 360.59C369.601 364.991 373.441 368.271 378.118 369.503V369.514Z" fill="url(#paint9_linear_246_1383)"/>
<path d="M370.965 343.148C364.769 349.311 364.78 359.291 370.987 365.443C372.957 367.401 375.422 368.81 378.118 369.514V370.043H263.684C254.914 370.296 247.596 363.451 247.343 354.747C247.09 346.042 253.979 338.779 262.749 338.526C263.057 338.526 263.376 338.526 263.684 338.526H378.118V339.044C375.411 339.759 372.946 341.167 370.965 343.137V343.148Z" fill="white"/>
<path d="M487.225 382.455C481.029 388.618 481.041 398.598 487.247 404.75C489.217 406.709 491.682 408.117 494.378 408.821V412.42H303.256C295.08 412.42 287.828 407.226 285.253 399.523C284.604 397.608 284.274 395.605 284.274 393.58C284.274 383.181 292.747 374.752 303.223 374.741H494.378V378.34C491.671 379.055 489.206 380.463 487.225 382.433V382.455Z" fill="#228FF8"/>
<path d="M494.377 408.822V412.42H303.256C295.079 412.42 287.828 407.226 285.253 399.523C292.515 400.789 338.48 408.063 364.065 393.581L483.923 399.93C485.86 404.321 489.711 407.589 494.377 408.811V408.822Z" fill="url(#paint10_linear_246_1383)"/>
<path d="M487.225 382.455C481.029 388.618 481.041 398.599 487.247 404.75C489.217 406.709 491.682 408.117 494.378 408.821V409.328H379.945C371.174 409.581 363.856 402.736 363.603 394.032C363.35 385.327 370.239 378.065 379.009 377.812C379.317 377.812 379.636 377.812 379.945 377.812H494.378V378.329C491.671 379.055 489.206 380.475 487.225 382.455Z" fill="white"/>
<path d="M305.809 382.467C299.613 388.629 299.624 398.61 305.831 404.761C307.801 406.72 310.266 408.129 312.962 408.833V412.431H121.829C113.653 412.431 106.401 407.237 103.826 399.534C103.177 397.62 102.847 395.617 102.847 393.592C102.847 383.193 111.32 374.764 121.796 374.753H312.951V378.351C310.244 379.067 307.779 380.475 305.798 382.445L305.809 382.467Z" fill="#228FF8"/>
<path d="M312.961 408.833V412.431H121.828C113.652 412.431 106.4 407.237 103.826 399.534C111.088 400.8 157.053 408.073 182.638 393.592L302.496 399.941C304.433 404.332 308.284 407.6 312.95 408.822L312.961 408.833Z" fill="url(#paint11_linear_246_1383)"/>
<path d="M305.809 382.466C299.613 388.629 299.624 398.61 305.831 404.761C307.8 406.72 310.265 408.128 312.961 408.832V409.328H198.528C189.758 409.581 182.44 402.736 182.187 394.032C181.934 385.327 188.822 378.065 197.593 377.812C197.901 377.812 198.22 377.812 198.528 377.812H312.961V378.329C310.254 379.055 307.778 380.486 305.809 382.466Z" fill="white"/>
<path d="M178.809 346.504H143.342C142.506 346.504 141.835 345.833 141.835 345.008V338.878C141.835 338.053 142.517 337.382 143.342 337.382H178.809C179.645 337.382 180.317 338.053 180.317 338.878V345.008C180.317 345.833 179.634 346.504 178.809 346.504Z" fill="#231F20"/>
<path d="M172.777 346.504H179.281L182.527 376.38H176.024L172.777 346.504Z" fill="#231F20"/>
<path d="M139.688 376.38L144.002 346.504H150.506L145.102 376.38H139.688Z" fill="#231F20"/>
<path d="M130.114 287.269H135.936L149.108 337.602H143.286L130.114 287.269Z" fill="#231F20"/>
<path d="M162.522 248.104L175.254 253.398L162.522 258.349V248.104Z" fill="#228FF8"/>
<path d="M146.281 320.05C146.281 320.05 145.323 334.301 158.143 338.604C167.299 341.674 177.808 341.003 187.293 340.177C188.823 340.045 191.552 339.275 192.905 340.287C194.798 341.652 193.852 345.459 193.797 347.517C193.676 351.996 193.566 356.453 193.445 360.931C193.445 362.989 193.445 365.113 193.28 367.16C193.115 369.206 192.608 371.605 192.454 373.872C192.41 374.059 192.454 374.257 192.575 374.422C192.729 374.543 192.939 374.599 193.137 374.577L209.94 373.85C210.116 373.872 210.303 373.817 210.446 373.718C210.688 373.487 210.523 373.08 210.336 372.805C208.609 370.593 206.188 368.997 203.459 368.26C202.82 368.095 202.204 367.842 201.643 367.479C199.893 366.114 201.346 363.176 201.742 361.525L203.47 354.351L206.881 340.243C207.893 336.062 208.146 332.881 204.9 329.976C201.984 327.104 198.441 324.925 194.556 323.594L168.971 315.594L146.269 320.072L146.281 320.05Z" fill="#231F20"/>
<path d="M247.387 272.996L233.642 301.948L208.266 301.761L208.476 299.582L231.805 299.318L244.735 271.929L247.387 272.996Z" fill="#231F20"/>
<path d="M180.183 254.277C180.667 255.07 181.636 255.532 181.955 256.39C182.274 257.248 181.603 258.536 181.218 259.581C180.7 261.045 180.865 262.685 180.348 264.148C180.26 264.467 180.073 264.753 179.831 264.962C179.6 265.116 179.325 265.227 179.05 265.282C177.949 265.502 176.827 265.568 175.704 265.469C175.484 265.425 175.264 265.458 175.055 265.546C174.89 265.689 174.791 265.887 174.769 266.107C174.12 268.891 174.164 271.785 174.89 274.536C175.132 275.449 175.396 276.561 174.725 277.265C174.483 277.485 174.186 277.639 173.856 277.705C171.743 278.212 169.729 276.649 168.276 274.976C167 273.513 165.9 271.917 165.008 270.2C164.733 269.727 164.535 269.199 164.447 268.66C164.403 267.956 164.502 267.251 164.733 266.58C165.338 264.28 165.702 261.936 165.823 259.559C165.988 256.533 165.823 253.375 166.934 250.569C167.275 249.601 167.924 248.775 168.794 248.203C169.817 247.719 170.951 247.532 172.084 247.675C174.307 247.752 176.75 248.06 178.257 249.678C178.698 250.14 179.622 253.265 180.194 254.244L180.183 254.277Z" fill="#FFB4A3"/>
<path d="M164.568 268.925H164.755C168.794 269.926 174.681 273.58 176.001 277.651C177.663 282.757 178.752 289.624 177.553 294.906C176.739 298.493 174.802 301.729 173.713 305.25C172.788 308.155 172.403 311.236 171.193 314.042C168.089 320.733 160.871 324.54 153.553 323.352C151.66 323.033 149.877 322.251 148.37 321.085C145.586 318.521 144.166 314.813 144.529 311.049C144.936 307.352 145.916 303.731 147.434 300.32L153.729 284.012C155.258 280.105 158.956 267.825 164.546 268.925H164.568Z" fill="#228FF8"/>
<path d="M161.311 309.035C161.663 309.618 161.895 310.267 161.994 310.949C162.016 311.445 161.95 311.94 161.817 312.424C161.168 315.076 160.893 317.805 161.003 320.534C160.959 321.029 161.113 321.514 161.432 321.899C161.784 322.152 162.214 322.284 162.654 322.284C164.227 322.537 165.834 322.383 167.331 321.822C168.937 320.82 170.148 319.302 170.753 317.519C172.767 312.567 174.296 307.439 175.331 302.19C175.595 301.354 175.672 300.473 175.573 299.593C175.232 298.284 174.384 297.161 173.207 296.479C172.106 295.731 170.852 295.18 169.796 294.366C167.705 292.781 166.164 289.898 163.314 289.535C161.289 289.392 159.441 290.691 158.912 292.649C157.042 297.546 159.044 304.556 161.289 309.046L161.311 309.035Z" fill="url(#paint12_linear_246_1383)"/>
<path d="M168.156 280.831C168.156 280.831 173.933 296.336 175.034 297.469C176.134 298.603 163.92 305.458 163.92 305.458C163.92 305.458 155.919 290.371 156.305 283.857C156.69 277.331 163.644 274.69 168.156 280.842V280.831Z" fill="#228FF8"/>
<path d="M163.953 303.346C163.953 303.346 164.382 308.342 170.544 308.243L198.044 307.857C199.904 306.9 202.457 306.757 203.865 305.128C204.525 304.391 204.866 303.412 205.516 302.641C206.385 301.684 207.574 301.057 208.861 300.87C210.138 300.683 211.425 300.661 212.713 300.771C213.23 300.176 213.23 299.296 212.713 298.691C212.173 298.141 211.48 297.767 210.721 297.612C207.563 296.831 204.217 297.315 201.422 298.977C200.608 299.549 199.728 300.011 198.792 300.341C198.11 300.485 197.406 300.518 196.701 300.452C188.8 300.088 180.987 298.416 173.075 298.064C171.226 297.888 169.356 298.075 167.573 298.636C165.669 299.516 164.316 301.277 163.953 303.335V303.346Z" fill="#FFB4A3"/>
<path d="M204.118 305.019H200.222V375.688H204.118V305.019Z" fill="white"/>
<path d="M248.025 305.019H244.13V375.688H248.025V305.019Z" fill="white"/>
<path d="M250.149 301.948H195.656V308.089H250.149V301.948Z" fill="#228FF8"/>
<path d="M250.149 301.948H195.656V308.089H250.149V301.948Z" fill="url(#paint13_linear_246_1383)"/>
<path d="M178.313 241.887C176.971 239.84 174.737 238.553 172.272 238.41C170.632 238.168 168.96 238.63 167.694 239.697C167.199 240.192 166.825 240.798 166.319 241.282C164.844 242.646 162.577 242.481 160.817 243.317C159.221 244.143 158 245.518 157.394 247.191C156.8 248.853 156.459 250.602 156.404 252.363C156.206 253.981 156.294 255.609 156.668 257.194C157.383 259.571 159.177 261.474 161.51 262.344C162.06 262.476 162.566 262.74 162.984 263.103C163.315 263.466 163.425 264.005 163.744 264.391C164.525 265.348 166.099 264.996 167.067 264.237C167.914 263.345 168.883 262.586 169.939 261.959L167.188 258.261C166.836 257.887 166.638 257.403 166.627 256.897C166.803 256.292 167.364 255.873 168.002 255.895C168.619 255.95 169.202 256.203 169.664 256.622C170.06 256.952 170.665 257.315 171.04 256.941C171.15 256.82 171.216 256.666 171.227 256.501C171.524 254.674 169.851 252.858 170.346 251.042C170.39 250.877 170.478 250.734 170.61 250.624C170.808 250.525 171.029 250.492 171.238 250.547C172.338 250.723 173.45 250.756 174.55 250.624C178.027 249.986 180.041 244.869 178.302 241.898L178.313 241.887Z" fill="#231F20"/>
<path d="M173.34 280.402C173.34 281.074 173.34 281.921 172.635 282.086C172.36 282.13 172.074 282.086 171.821 281.976C170.765 281.613 169.774 281.107 168.85 280.479C169.092 286.125 169.862 291.737 171.172 297.239C171.227 297.547 171.348 297.855 171.524 298.108C171.92 298.493 172.47 298.691 173.021 298.658C174.374 298.724 175.728 298.537 177.004 298.086C173.593 292.463 173.439 285.321 175.365 279.06C175.772 278.157 175.871 277.145 175.662 276.177C174.902 274.823 173.582 273.855 172.063 273.514C171.656 275.571 173.153 278.3 173.318 280.402H173.34Z" fill="url(#paint14_linear_246_1383)"/>
<path d="M449.194 272.49C447.257 273.36 445.485 274.548 443.956 276.012C442.415 277.486 441.568 279.544 441.634 281.679C441.843 284.232 443.681 286.334 445.618 287.995C447.829 289.932 450.525 291.957 450.701 294.818C452.286 293.64 453.728 292.276 455.367 291.176C458.228 289.239 461.596 288.204 464.743 286.763C467.89 285.332 471.015 283.307 472.512 280.215C473.326 278.257 473.788 276.177 473.887 274.064C474.207 271.808 474.273 269.519 474.064 267.241C473.843 264.952 472.842 262.807 471.202 261.178C468.715 259.285 465.788 258.053 462.696 257.602C459.142 257.778 456.017 260.012 454.696 263.291C454.047 264.996 454.355 266.933 453.717 268.639C452.924 270.631 450.977 271.588 449.194 272.49Z" fill="#C14834"/>
<path d="M377.93 375.688C377.314 375.677 376.686 375.765 376.103 375.963C375.498 376.172 375.069 376.7 375.003 377.327C375.058 377.933 375.41 378.483 375.949 378.769C376.455 379.099 377.05 379.286 377.556 379.627C377.985 379.979 378.447 380.299 378.931 380.574C379.801 380.838 380.736 380.805 381.583 380.475C385.545 379.517 389.649 379.264 393.699 379.726C394.095 379.77 394.491 379.77 394.876 379.726C396.054 379.385 396.967 378.472 397.297 377.305C398.112 374.862 398.354 372.265 398.002 369.712C398.002 369.426 397.925 369.151 397.793 368.898C397.627 368.7 397.418 368.546 397.187 368.436C393.347 366.554 391.245 370.318 388.428 372.166C385.292 374.224 381.671 375.435 377.919 375.688H377.93Z" fill="#FFB4A3"/>
<path d="M470.696 319.677C470.696 319.677 471.653 333.927 458.833 338.23C446.002 342.533 423.014 339.022 423.014 339.022C423.014 339.022 413.76 356.618 404.296 364.959L398.244 370.901C395.625 371.529 392.907 370.362 391.575 368.04C391.575 368.04 409.446 332.673 411.856 330.032C414.585 326.774 418.238 324.398 422.332 323.209L447.939 315.209L470.696 319.699V319.677Z" fill="#231F20"/>
<path d="M385.071 272.996L398.815 301.948L424.191 301.761L423.993 299.582L400.642 299.318L387.712 271.929L385.071 272.996Z" fill="#231F20"/>
<path d="M452.264 254.278C451.802 255.071 450.822 255.533 450.503 256.391C450.184 257.249 450.855 258.537 451.23 259.582C451.769 261.046 451.604 262.686 452.11 264.149C452.198 264.468 452.385 264.754 452.627 264.963C452.858 265.128 453.133 265.228 453.408 265.283C454.509 265.503 455.631 265.569 456.754 265.47C456.974 265.426 457.194 265.459 457.403 265.547C457.568 265.69 457.667 265.888 457.689 266.108C458.327 268.892 458.283 271.786 457.557 274.537C457.326 275.45 457.062 276.562 457.733 277.266C457.975 277.486 458.272 277.64 458.602 277.706C460.715 278.213 462.729 276.65 464.182 274.977C465.458 273.514 466.558 271.918 467.45 270.201C467.725 269.728 467.923 269.2 468.011 268.661C468.055 267.957 467.956 267.252 467.725 266.581C467.12 264.281 466.745 261.937 466.624 259.56C466.47 256.534 466.69 253.376 465.513 250.57C465.172 249.601 464.534 248.776 463.675 248.204C462.652 247.72 461.507 247.533 460.374 247.676C458.162 247.753 455.708 248.061 454.201 249.679C453.772 250.141 452.858 253.266 452.264 254.245V254.278Z" fill="#FFB4A3"/>
<path d="M467.834 268.87C467.834 268.87 458.69 273.569 455.928 277.255C453.166 280.942 448.654 283.66 450.426 290.625C452.197 297.602 450.041 308.243 450.041 308.243C450.041 308.243 454.013 320.645 463.796 323.792C473.568 326.928 470.883 325.938 470.883 325.938C470.883 325.938 476.066 302.939 478.101 296.535C480.137 290.13 476.704 267.847 467.845 268.87H467.834Z" fill="#228FF8"/>
<path d="M455.201 249.392C455.388 250.889 456.104 252.264 457.226 253.277C458.316 254.278 459.647 254.971 460.769 255.929C461.98 256.831 462.64 258.273 462.541 259.769C463.432 259.417 464.445 259.747 464.962 260.551C465.193 261.112 465.094 261.75 464.698 262.212C464.291 262.663 463.708 262.905 463.102 262.872C464.258 263.346 465.248 264.138 465.952 265.161C466.734 266.306 467.119 267.67 467.834 268.87C468.715 270.08 469.826 271.126 471.091 271.929C471.664 272.314 472.137 272.82 472.467 273.415C472.731 274.339 473.05 275.252 473.413 276.144C474.228 277.277 475.097 278.377 476.021 279.423C477.276 281.25 477.991 283.384 478.101 285.596C478.035 284.947 478.035 284.287 478.101 283.626C478.332 283.241 478.552 282.845 478.761 282.438C479.114 281.723 479.389 280.974 479.576 280.204C479.84 278.432 479.895 276.639 479.73 274.856C479.73 271.038 483.361 263.841 480.445 260.562C479.279 259.593 478.046 258.724 476.748 257.954C474.173 255.841 473.82 252.11 472.192 249.216C470.739 246.641 468.307 244.759 465.435 243.978C461.639 242.9 454.684 244.088 455.19 249.392H455.201Z" fill="#C14834"/>
<path d="M464.313 280.832C464.313 280.832 458.536 296.337 457.436 297.47C456.335 298.603 468.561 305.459 468.561 305.459C468.561 305.459 476.55 290.372 476.176 283.858C475.802 277.332 468.803 274.691 464.313 280.843V280.832Z" fill="#228FF8"/>
<path d="M468.517 303.347C468.517 303.347 468.087 308.343 461.914 308.244L434.48 307.858C432.61 306.901 430.057 306.758 428.659 305.129C427.988 304.392 427.647 303.413 427.009 302.642C426.139 301.685 424.951 301.058 423.663 300.871C422.387 300.684 421.099 300.662 419.812 300.772C419.295 300.177 419.295 299.297 419.812 298.692C420.351 298.142 421.044 297.767 421.804 297.613C424.962 296.832 428.307 297.316 431.102 298.978C431.916 299.55 432.797 300.012 433.732 300.342C434.414 300.486 435.119 300.519 435.823 300.453C443.724 300.089 451.537 298.417 459.449 298.065C461.298 297.878 463.18 298.076 464.951 298.637C466.833 299.539 468.164 301.289 468.517 303.336V303.347Z" fill="#FFB4A3"/>
<path d="M380.307 305.019H376.411V375.688H380.307V305.019Z" fill="white"/>
<path d="M424.203 305.019H420.307V375.688H424.203V305.019Z" fill="white"/>
<path d="M426.337 301.948H371.844V308.089H426.337V301.948Z" fill="#228FF8"/>
<path d="M426.337 301.948H371.844V308.089H426.337V301.948Z" fill="url(#paint15_linear_246_1383)"/>
<path d="M436.341 337.371H471.807C472.644 337.371 473.315 338.042 473.315 338.868V344.997C473.315 345.822 472.633 346.494 471.807 346.494H436.341C435.504 346.494 434.833 345.822 434.833 344.997V338.868C434.833 338.042 435.515 337.371 436.341 337.371Z" fill="#231F20"/>
<path d="M442.371 346.505H435.868L432.621 376.381H439.125L442.371 346.505Z" fill="#231F20"/>
<path d="M475.46 376.381L471.147 346.505H464.643L470.046 376.381H475.46Z" fill="#231F20"/>
<path d="M485.033 287.269H479.212L466.04 337.602H471.861L485.033 287.269Z" fill="#231F20"/>
<defs>
<linearGradient id="paint0_linear_246_1383" x1="285.12" y1="274.416" x2="294.111" y2="395.55" gradientUnits="userSpaceOnUse">
<stop stop-color="#231F20"/>
<stop offset="0.08" stop-color="#231F20" stop-opacity="0.69"/>
<stop offset="0.21" stop-color="#231F20" stop-opacity="0.32"/>
<stop offset="1" stop-color="#231F20" stop-opacity="0"/>
</linearGradient>
<linearGradient id="paint1_linear_246_1383" x1="309.495" y1="193.622" x2="569.372" y2="64.4546" gradientUnits="userSpaceOnUse">
<stop stop-color="#231F20"/>
<stop offset="0.08" stop-color="#231F20" stop-opacity="0.69"/>
<stop offset="0.21" stop-color="#231F20" stop-opacity="0.32"/>
<stop offset="1" stop-color="#231F20" stop-opacity="0"/>
</linearGradient>
<linearGradient id="paint2_linear_246_1383" x1="368.202" y1="309.112" x2="360.191" y2="54.4406" gradientUnits="userSpaceOnUse">
<stop stop-color="#231F20"/>
<stop offset="0.08" stop-color="#231F20" stop-opacity="0.69"/>
<stop offset="0.21" stop-color="#231F20" stop-opacity="0.32"/>
<stop offset="1" stop-color="#231F20" stop-opacity="0"/>
</linearGradient>
<linearGradient id="paint3_linear_246_1383" x1="396.054" y1="208.808" x2="444.968" y2="192.401" gradientUnits="userSpaceOnUse">
<stop stop-color="#231F20"/>
<stop offset="0.08" stop-color="#231F20" stop-opacity="0.69"/>
<stop offset="0.21" stop-color="#231F20" stop-opacity="0.32"/>
<stop offset="1" stop-color="#231F20" stop-opacity="0"/>
</linearGradient>
<linearGradient id="paint4_linear_246_1383" x1="389.837" y1="184.522" x2="353.622" y2="146.513" gradientUnits="userSpaceOnUse">
<stop stop-color="#231F20"/>
<stop offset="0.08" stop-color="#231F20" stop-opacity="0.69"/>
<stop offset="0.21" stop-color="#231F20" stop-opacity="0.32"/>
<stop offset="1" stop-color="#231F20" stop-opacity="0"/>
</linearGradient>
<linearGradient id="paint5_linear_246_1383" x1="379.481" y1="204.637" x2="343.464" y2="179.581" gradientUnits="userSpaceOnUse">
<stop stop-color="#231F20"/>
<stop offset="0.08" stop-color="#231F20" stop-opacity="0.69"/>
<stop offset="0.21" stop-color="#231F20" stop-opacity="0.32"/>
<stop offset="1" stop-color="#231F20" stop-opacity="0"/>
</linearGradient>
<linearGradient id="paint6_linear_246_1383" x1="339.668" y1="186.954" x2="380.119" y2="144.522" gradientUnits="userSpaceOnUse">
<stop stop-color="#231F20"/>
<stop offset="0.08" stop-color="#231F20" stop-opacity="0.69"/>
<stop offset="0.21" stop-color="#231F20" stop-opacity="0.32"/>
<stop offset="1" stop-color="#231F20" stop-opacity="0"/>
</linearGradient>
<linearGradient id="paint7_linear_246_1383" x1="348.339" y1="204.648" x2="384.378" y2="179.581" gradientUnits="userSpaceOnUse">
<stop stop-color="#231F20"/>
<stop offset="0.08" stop-color="#231F20" stop-opacity="0.69"/>
<stop offset="0.21" stop-color="#231F20" stop-opacity="0.32"/>
<stop offset="1" stop-color="#231F20" stop-opacity="0"/>
</linearGradient>
<linearGradient id="paint8_linear_246_1383" x1="385.578" y1="160.191" x2="355.283" y2="391.28" gradientUnits="userSpaceOnUse">
<stop stop-color="#231F20"/>
<stop offset="0.08" stop-color="#231F20" stop-opacity="0.69"/>
<stop offset="0.21" stop-color="#231F20" stop-opacity="0.32"/>
<stop offset="1" stop-color="#231F20" stop-opacity="0"/>
</linearGradient>
<linearGradient id="paint9_linear_246_1383" x1="257.28" y1="228.055" x2="305.941" y2="637.005" gradientUnits="userSpaceOnUse">
<stop stop-color="#231F20"/>
<stop offset="0.08" stop-color="#231F20" stop-opacity="0.69"/>
<stop offset="0.21" stop-color="#231F20" stop-opacity="0.32"/>
<stop offset="1" stop-color="#231F20" stop-opacity="0"/>
</linearGradient>
<linearGradient id="paint10_linear_246_1383" x1="373.54" y1="267.373" x2="422.2" y2="676.313" gradientUnits="userSpaceOnUse">
<stop stop-color="#231F20"/>
<stop offset="0.08" stop-color="#231F20" stop-opacity="0.69"/>
<stop offset="0.21" stop-color="#231F20" stop-opacity="0.32"/>
<stop offset="1" stop-color="#231F20" stop-opacity="0"/>
</linearGradient>
<linearGradient id="paint11_linear_246_1383" x1="192.113" y1="267.373" x2="240.773" y2="676.313" gradientUnits="userSpaceOnUse">
<stop stop-color="#231F20"/>
<stop offset="0.08" stop-color="#231F20" stop-opacity="0.69"/>
<stop offset="0.21" stop-color="#231F20" stop-opacity="0.32"/>
<stop offset="1" stop-color="#231F20" stop-opacity="0"/>
</linearGradient>
<linearGradient id="paint12_linear_246_1383" x1="141.041" y1="308.617" x2="212.074" y2="300.297" gradientUnits="userSpaceOnUse">
<stop stop-color="#231F20"/>
<stop offset="0.08" stop-color="#231F20" stop-opacity="0.69"/>
<stop offset="0.21" stop-color="#231F20" stop-opacity="0.32"/>
<stop offset="1" stop-color="#231F20" stop-opacity="0"/>
</linearGradient>
<linearGradient id="paint13_linear_246_1383" x1="222.77" y1="292.265" x2="223.155" y2="328.986" gradientUnits="userSpaceOnUse">
<stop stop-color="#231F20"/>
<stop offset="0.08" stop-color="#231F20" stop-opacity="0.69"/>
<stop offset="0.21" stop-color="#231F20" stop-opacity="0.32"/>
<stop offset="1" stop-color="#231F20" stop-opacity="0"/>
</linearGradient>
<linearGradient id="paint14_linear_246_1383" x1="211.051" y1="297.8" x2="109.152" y2="266.933" gradientUnits="userSpaceOnUse">
<stop stop-color="#231F20"/>
<stop offset="0.08" stop-color="#231F20" stop-opacity="0.69"/>
<stop offset="0.21" stop-color="#231F20" stop-opacity="0.32"/>
<stop offset="1" stop-color="#231F20" stop-opacity="0"/>
</linearGradient>
<linearGradient id="paint15_linear_246_1383" x1="398.794" y1="270.465" x2="399.553" y2="356.98" gradientUnits="userSpaceOnUse">
<stop stop-color="#231F20"/>
<stop offset="0.08" stop-color="#231F20" stop-opacity="0.69"/>
<stop offset="0.21" stop-color="#231F20" stop-opacity="0.32"/>
<stop offset="1" stop-color="#231F20" stop-opacity="0"/>
</linearGradient>
</defs>
</svg>
