<svg id="Layer_1" enable-background="new 0 0 512 512" viewBox="0 0 512 512" xmlns="http://www.w3.org/2000/svg"><g id="Layer_2_00000097464024260543089500000001938837966102126496_"><g id="Layer_2-2"><g id="_29"><path d="m464.7 404.7c29.2-25.8 47.3-61.6 47.3-101 0-78.8-72-142.7-160.8-142.7s-160.7 63.9-160.7 142.7 72 142.6 160.7 142.6c15.6 0 31.1-2 46.2-6l89.6 29.1c5.4 1.8 11.2-1.2 12.9-6.6 1-3.1.5-6.4-1.3-9z" fill="#24e864"/><path d="m464.7 404.7c29.2-25.8 47.3-61.6 47.3-101 0-5.9-.4-11.7-1.2-17.5-9.7 70.5-77.4 125.1-159.5 125.1s-149.8-54.7-159.5-125.2c-.8 5.8-1.2 11.7-1.2 17.5 0 78.8 72 142.6 160.7 142.6 15.6 0 31.1-2 46.2-6l89.6 29.1c5.4 1.8 11.2-1.2 12.9-6.6 1-3.1.5-6.4-1.3-9z" fill="#009a38"/><ellipse cx="194" cy="214.2" fill="#3be2f8" rx="194" ry="172.1"/><path d="m194 344.6c-99.2 0-181-66.1-192.6-151.3-.9 6.9-1.4 13.9-1.4 20.9 0 95.1 86.8 172.1 194 172.1s194-77.1 194-172.1c0-7-.5-13.9-1.4-20.9-11.6 85.2-93.4 151.3-192.6 151.3z" fill="#0ea2d7"/></g></g></g></svg>