<svg width="18" height="18" viewBox="0 0 18 18" fill="none" xmlns="http://www.w3.org/2000/svg">
<g clip-path="url(#clip0_101_677)">
<path d="M5.76523 16.7902L7.73398 14.7652C7.03086 14.6246 6.38398 14.3434 5.79336 13.9496L5.76523 16.7902ZM12.234 1.20898L10.2652 3.23398C10.9684 3.37461 11.6152 3.65586 12.2059 4.04961L12.234 1.20898ZM1.20898 12.234L4.04961 12.2059C3.65586 11.6152 3.37461 10.9684 3.23398 10.2652L1.20898 12.234ZM16.7902 5.76523L13.9496 5.79336C14.3152 6.38398 14.5965 7.03086 14.7652 7.73398L16.7902 5.76523ZM1.20898 5.76523L3.23398 7.73398C3.37461 7.03086 3.65586 6.38398 4.04961 5.79336L1.20898 5.76523ZM16.7902 12.234L14.7652 10.2652C14.6246 10.9684 14.3434 11.6152 13.9496 12.2059L16.7902 12.234ZM5.76523 1.20898L5.79336 4.04961C6.38398 3.68398 7.03086 3.40273 7.73398 3.23398L5.76523 1.20898ZM12.234 16.7902L12.2059 13.9496C11.6152 14.3434 10.9684 14.6246 10.2652 14.7652L12.234 16.7902Z" fill="#BABFC9"/>
<path d="M4.1625 12.375L3.0375 14.9906L5.65313 13.8656C5.0625 13.4437 4.55625 12.9375 4.1625 12.375ZM13.8375 5.625L14.9625 3.00937L12.375 4.13437C12.9375 4.55625 13.4438 5.0625 13.8375 5.625ZM3.20625 7.95937L0.5625 9L3.20625 10.0406C3.12187 9.70312 3.09375 9.36563 3.09375 9C3.09375 8.63437 3.12187 8.29688 3.20625 7.95937ZM14.7937 10.0406L17.4375 9L14.7937 7.95937C14.85 8.29688 14.9062 8.6625 14.9062 9C14.9062 9.36563 14.8781 9.70312 14.7937 10.0406ZM5.625 4.1625L3.00937 3.0375L4.13437 5.65313C4.55625 5.0625 5.0625 4.55625 5.625 4.1625ZM12.375 13.8375L14.9906 14.9625L13.8656 12.3469C13.4437 12.9375 12.9375 13.4438 12.375 13.8375ZM10.0406 3.20625L9 0.5625L7.95937 3.20625C8.29688 3.15 8.6625 3.09375 9 3.09375C9.3375 3.09375 9.70312 3.12187 10.0406 3.20625ZM7.95937 14.7937L9 17.4375L10.0406 14.7937C9.70312 14.8781 9.36563 14.9062 9 14.9062C8.63437 14.9062 8.29688 14.8781 7.95937 14.7937Z" fill="white"/>
<path d="M9 14.3438C11.9513 14.3438 14.3438 11.9513 14.3438 9C14.3438 6.04873 11.9513 3.65625 9 3.65625C6.04873 3.65625 3.65625 6.04873 3.65625 9C3.65625 11.9513 6.04873 14.3438 9 14.3438Z" fill="white"/>
</g>
<defs>
<clipPath id="clip0_101_677">
<rect width="18" height="18" fill="white"/>
</clipPath>
</defs>
</svg>
