<svg height="512" viewBox="0 0 180 180" width="512" xmlns="http://www.w3.org/2000/svg" xmlns:xlink="http://www.w3.org/1999/xlink"><linearGradient id="linear-gradient" gradientUnits="userSpaceOnUse" x1="12.5" x2="167.5" y1="12.5" y2="167.5"><stop offset="0" stop-color="#00bee2"/><stop offset="1" stop-color="#20006a"/></linearGradient><g id="Layer_2" data-name="Layer 2"><g id="_008.house" data-name="008.house"><path id="background" d="m147.8 176.92a543.45 543.45 0 0 1 -115.6 0 32.77 32.77 0 0 1 -29.12-29.12 543.45 543.45 0 0 1 0-115.6 32.77 32.77 0 0 1 29.12-29.12 543.45 543.45 0 0 1 115.6 0 32.77 32.77 0 0 1 29.12 29.12 543.45 543.45 0 0 1 0 115.6 32.77 32.77 0 0 1 -29.12 29.12z" fill="url(#linear-gradient)"/><path id="icon" d="m145 96.48h-13.25v41.85h-26.66v-27.51h-30.45v27.6h-26.58v-41.75h-13.06l55.13-55.09z" fill="#fff"/></g></g></svg>