<svg width="30" height="21" viewBox="0 0 30 21" fill="none" xmlns="http://www.w3.org/2000/svg">
<path d="M28.5 2.625H1.5C0.879 2.625 0.375 2.121 0.375 1.5C0.375 0.879 0.879 0.375 1.5 0.375H28.5C29.121 0.375 29.625 0.879 29.625 1.5C29.625 2.121 29.121 2.625 28.5 2.625ZM29.625 10.5C29.625 9.879 29.121 9.375 28.5 9.375H1.5C0.879 9.375 0.375 9.879 0.375 10.5C0.375 11.121 0.879 11.625 1.5 11.625H28.5C29.121 11.625 29.625 11.121 29.625 10.5ZM16.125 19.5C16.125 18.879 15.621 18.375 15 18.375H1.5C0.879 18.375 0.375 18.879 0.375 19.5C0.375 20.121 0.879 20.625 1.5 20.625H15C15.621 20.625 16.125 20.121 16.125 19.5Z" fill="white"/>
</svg>
