<svg width="7" height="7" viewBox="0 0 7 7" fill="none" xmlns="http://www.w3.org/2000/svg">
<path d="M1.61052 0.102793C1.08052 -0.251207 0.448521 0.380794 0.801521 0.910794L1.43152 1.85579C1.68734 2.23886 1.82388 2.68916 1.82388 3.14979C1.82388 3.61043 1.68734 4.06073 1.43152 4.44379L0.801521 5.38879C0.448521 5.91879 1.08152 6.55079 1.61152 6.19679L2.55552 5.56679C2.93859 5.31097 3.38889 5.17444 3.84952 5.17444C4.31016 5.17444 4.76045 5.31097 5.14352 5.56679L6.08852 6.19679C6.61852 6.55079 7.25052 5.91879 6.89652 5.38879L6.26652 4.44379C6.0107 4.06073 5.87416 3.61043 5.87416 3.14979C5.87416 2.68916 6.0107 2.23886 6.26652 1.85579L6.89652 0.910794C7.25052 0.380794 6.61852 -0.251207 6.08752 0.102793L5.14352 0.732794C4.76045 0.988614 4.31016 1.12515 3.84952 1.12515C3.38889 1.12515 2.93859 0.988614 2.55552 0.732794L1.61052 0.102793Z" fill="#131212"/>
</svg>
