<svg width="16" height="16" viewBox="0 0 16 16" fill="none" xmlns="http://www.w3.org/2000/svg">
<path d="M4.76523 15.7902L6.73398 13.7652C6.03086 13.6246 5.38398 13.3434 4.79336 12.9496L4.76523 15.7902ZM11.234 0.208984L9.26523 2.23398C9.96836 2.37461 10.6152 2.65586 11.2059 3.04961L11.234 0.208984ZM0.208984 11.234L3.04961 11.2059C2.65586 10.6152 2.37461 9.96836 2.23398 9.26523L0.208984 11.234ZM15.7902 4.76523L12.9496 4.79336C13.3152 5.38398 13.5965 6.03086 13.7652 6.73398L15.7902 4.76523ZM0.208984 4.76523L2.23398 6.73398C2.37461 6.03086 2.65586 5.38398 3.04961 4.79336L0.208984 4.76523ZM15.7902 11.234L13.7652 9.26523C13.6246 9.96836 13.3434 10.6152 12.9496 11.2059L15.7902 11.234ZM4.76523 0.208984L4.79336 3.04961C5.38398 2.68398 6.03086 2.40273 6.73398 2.23398L4.76523 0.208984ZM11.234 15.7902L11.2059 12.9496C10.6152 13.3434 9.96836 13.6246 9.26523 13.7652L11.234 15.7902Z" fill="#BABFC9"/>
</svg>
