<svg width="192" height="240" viewBox="0 0 192 240" fill="none" xmlns="http://www.w3.org/2000/svg">
<path d="M73.0041 17.6C73.0041 15.952 73.3721 14.48 74.1081 13.184C74.8601 11.872 75.8761 10.856 77.1561 10.136C78.4521 9.4 79.9001 9.032 81.5001 9.032C83.3721 9.032 85.0121 9.512 86.4201 10.472C87.8281 11.432 88.8121 12.76 89.3721 14.456H85.5081C85.1241 13.656 84.5801 13.056 83.8761 12.656C83.1881 12.256 82.3881 12.056 81.4761 12.056C80.5001 12.056 79.6281 12.288 78.8601 12.752C78.1081 13.2 77.5161 13.84 77.0841 14.672C76.6681 15.504 76.4601 16.48 76.4601 17.6C76.4601 18.704 76.6681 19.68 77.0841 20.528C77.5161 21.36 78.1081 22.008 78.8601 22.472C79.6281 22.92 80.5001 23.144 81.4761 23.144C82.3881 23.144 83.1881 22.944 83.8761 22.544C84.5801 22.128 85.1241 21.52 85.5081 20.72H89.3721C88.8121 22.432 87.8281 23.768 86.4201 24.728C85.0281 25.672 83.3881 26.144 81.5001 26.144C79.9001 26.144 78.4521 25.784 77.1561 25.064C75.8761 24.328 74.8601 23.312 74.1081 22.016C73.3721 20.72 73.0041 19.248 73.0041 17.6ZM98.0259 26.168C96.8579 26.168 95.8019 25.968 94.8579 25.568C93.9299 25.168 93.1939 24.592 92.6499 23.84C92.1059 23.088 91.8259 22.2 91.8099 21.176H95.4099C95.4579 21.864 95.6979 22.408 96.1299 22.808C96.5779 23.208 97.1859 23.408 97.9539 23.408C98.7379 23.408 99.3539 23.224 99.8019 22.856C100.25 22.472 100.474 21.976 100.474 21.368C100.474 20.872 100.322 20.464 100.018 20.144C99.7139 19.824 99.3299 19.576 98.8659 19.4C98.4179 19.208 97.7939 19 96.9939 18.776C95.9059 18.456 95.0179 18.144 94.3299 17.84C93.6579 17.52 93.0739 17.048 92.5779 16.424C92.0979 15.784 91.8579 14.936 91.8579 13.88C91.8579 12.888 92.1059 12.024 92.6019 11.288C93.0979 10.552 93.7939 9.992 94.6899 9.608C95.5859 9.208 96.6099 9.008 97.7619 9.008C99.4899 9.008 100.89 9.432 101.962 10.28C103.05 11.112 103.65 12.28 103.762 13.784H100.066C100.034 13.208 99.7859 12.736 99.3219 12.368C98.8739 11.984 98.2739 11.792 97.5219 11.792C96.8659 11.792 96.3379 11.96 95.9379 12.296C95.5539 12.632 95.3619 13.12 95.3619 13.76C95.3619 14.208 95.5059 14.584 95.7939 14.888C96.0979 15.176 96.4659 15.416 96.8979 15.608C97.3459 15.784 97.9699 15.992 98.7699 16.232C99.8579 16.552 100.746 16.872 101.434 17.192C102.122 17.512 102.714 17.992 103.21 18.632C103.706 19.272 103.954 20.112 103.954 21.152C103.954 22.048 103.722 22.88 103.258 23.648C102.794 24.416 102.114 25.032 101.218 25.496C100.322 25.944 99.2579 26.168 98.0259 26.168ZM112.651 26.168C111.483 26.168 110.427 25.968 109.483 25.568C108.555 25.168 107.819 24.592 107.275 23.84C106.731 23.088 106.451 22.2 106.435 21.176H110.035C110.083 21.864 110.323 22.408 110.755 22.808C111.203 23.208 111.811 23.408 112.579 23.408C113.363 23.408 113.979 23.224 114.427 22.856C114.875 22.472 115.099 21.976 115.099 21.368C115.099 20.872 114.947 20.464 114.643 20.144C114.339 19.824 113.955 19.576 113.491 19.4C113.043 19.208 112.419 19 111.619 18.776C110.531 18.456 109.643 18.144 108.955 17.84C108.283 17.52 107.699 17.048 107.203 16.424C106.723 15.784 106.483 14.936 106.483 13.88C106.483 12.888 106.731 12.024 107.227 11.288C107.723 10.552 108.419 9.992 109.315 9.608C110.211 9.208 111.235 9.008 112.387 9.008C114.115 9.008 115.515 9.432 116.587 10.28C117.675 11.112 118.275 12.28 118.387 13.784H114.691C114.659 13.208 114.411 12.736 113.947 12.368C113.499 11.984 112.899 11.792 112.147 11.792C111.491 11.792 110.963 11.96 110.563 12.296C110.179 12.632 109.987 13.12 109.987 13.76C109.987 14.208 110.131 14.584 110.419 14.888C110.723 15.176 111.091 15.416 111.523 15.608C111.971 15.784 112.595 15.992 113.395 16.232C114.483 16.552 115.371 16.872 116.059 17.192C116.747 17.512 117.339 17.992 117.835 18.632C118.331 19.272 118.579 20.112 118.579 21.152C118.579 22.048 118.347 22.88 117.883 23.648C117.419 24.416 116.739 25.032 115.843 25.496C114.947 25.944 113.883 26.168 112.651 26.168Z" fill="#33333F"/>
<path d="M36 216L24 66H168L156 216L96 234L36 216Z" fill="#1172B8"/>
<path d="M156 78H96V225L144 210L156 78Z" fill="#33AADD"/>
<path d="M117 153H57L54 132L102 117H54L51 99H144L141 120L102 135H138L132 192L96 204L60 192L57 162H75L78 177L96 183L114 177L117 153Z" fill="white"/>
</svg>
