<svg width="192" height="240" viewBox="0 0 192 240" fill="none" xmlns="http://www.w3.org/2000/svg">
<path d="M79.7239 9.248V26H76.3639V18.872H69.1879V26H65.8279V9.248H69.1879V16.136H76.3639V9.248H79.7239ZM94.431 9.248V11.96H89.967V26H86.607V11.96H82.143V9.248H94.431ZM115.147 9.248V26H111.787V15.104L107.299 26H104.755L100.243 15.104V26H96.8826V9.248H100.699L106.027 21.704L111.355 9.248H115.147ZM121.829 23.336H127.349V26H118.469V9.248H121.829V23.336Z" fill="#33333F"/>
<path d="M36 216L24 66H168L156 216L96 234L36 216Z" fill="#E44D26"/>
<path d="M156 78H96V225L144 210L156 78Z" fill="#F16529"/>
<path d="M57 153L51 96H144L141 114H69L72 135H138L132 192L96 204L60 192L57 162H75L78 177L96 183L114 177L117 153H57Z" fill="white"/>
</svg>
