<svg width="192" height="192" viewBox="0 0 192 192" fill="none" xmlns="http://www.w3.org/2000/svg">
<path d="M180 12H12V180H180V12Z" fill="#FFCA28"/>
<path d="M114 151.725L126.369 143.541C127.339 146.586 133.477 153.819 141.231 153.819C148.985 153.819 152.585 149.584 152.585 146.777C152.585 139.125 144.667 136.428 140.864 135.132C140.244 134.921 139.734 134.747 139.385 134.595C139.205 134.517 138.935 134.413 138.587 134.28C134.358 132.665 118.754 126.703 118.754 109.422C118.754 90.388 137.123 88.1992 141.277 88.1992C143.995 88.1992 157.061 88.5322 163.569 100.762L151.569 109.137C148.939 103.807 144.568 102.047 141.877 102.047C135.231 102.047 133.846 106.919 133.846 109.137C133.846 115.36 141.067 118.149 147.164 120.504C148.759 121.121 150.277 121.707 151.569 122.318C158.215 125.459 168 130.598 168 146.777C168 154.88 161.203 167.999 144.092 167.999C121.108 167.999 115.015 154.2 114 151.725Z" fill="#3E3E3E"/>
<path d="M54 153.352L66.8922 145.171C67.902 148.215 71.8278 153.827 77.523 153.827C83.2188 153.827 86.1342 147.977 86.1342 145.171V90H101.989V145.171C102.246 152.78 98.0256 168 79.3992 168C62.274 168 55.1545 157.822 54 153.352Z" fill="#3E3E3E"/>
</svg>
