<svg width="116" height="116" viewBox="0 0 116 116" fill="none" xmlns="http://www.w3.org/2000/svg">
<g filter="url(#filter0_d_81_2725)">
<g filter="url(#filter1_d_81_2725)">
<path fill-rule="evenodd" clip-rule="evenodd" d="M36.25 21.75C32.2459 21.75 29 24.9959 29 29V68.875C29 72.8791 32.2459 76.125 36.25 76.125H61.625V87H49.8438C47.8418 87 46.2188 88.623 46.2188 90.625C46.2188 92.6269 47.8418 94.25 49.8438 94.25H80.6562C82.6582 94.25 84.2812 92.6269 84.2812 90.625C84.2812 88.623 82.6582 87 80.6562 87H68.875V76.125H94.25C98.2538 76.125 101.5 72.8791 101.5 68.875V29C101.5 24.9959 98.2538 21.75 94.25 21.75H36.25Z" fill="url(#paint0_linear_81_2725)"/>
</g>
<g filter="url(#filter2_dd_81_2725)">
<path d="M14.5 36.25C14.5 32.2459 17.7459 29 21.75 29H79.75C83.7541 29 87 32.2459 87 36.25V72.5C87 76.5041 83.7541 79.75 79.75 79.75H21.75C17.7459 79.75 14.5 76.5041 14.5 72.5V36.25Z" fill="white" fill-opacity="0.4"/>
</g>
<g filter="url(#filter3_dd_81_2725)">
<path d="M21.75 48.9375C21.75 47.9365 22.5615 47.125 23.5625 47.125H63.4375C64.4385 47.125 65.25 47.9365 65.25 48.9375V52.5625C65.25 53.5635 64.4385 54.375 63.4375 54.375H23.5625C22.5615 54.375 21.75 53.5635 21.75 52.5625V48.9375Z" fill="white" fill-opacity="0.6"/>
</g>
<g filter="url(#filter4_dd_81_2725)">
<path d="M21.75 59.8125C21.75 58.8115 22.5615 58 23.5625 58H41.6875C42.6885 58 43.5 58.8115 43.5 59.8125V63.4375C43.5 64.4385 42.6885 65.25 41.6875 65.25H23.5625C22.5615 65.25 21.75 64.4385 21.75 63.4375V59.8125Z" fill="white" fill-opacity="0.6"/>
</g>
<g filter="url(#filter5_dd_81_2725)">
<path d="M21.75 38.0625C21.75 37.0615 22.5615 36.25 23.5625 36.25H77.9375C78.9385 36.25 79.75 37.0615 79.75 38.0625V41.6875C79.75 42.6885 78.9385 43.5 77.9375 43.5H23.5625C22.5615 43.5 21.75 42.6885 21.75 41.6875V38.0625Z" fill="white" fill-opacity="0.6"/>
</g>
</g>
<defs>
<filter id="filter0_d_81_2725" x="10.5" y="17.75" width="103" height="88.5" filterUnits="userSpaceOnUse" color-interpolation-filters="sRGB">
<feFlood flood-opacity="0" result="BackgroundImageFix"/>
<feColorMatrix in="SourceAlpha" type="matrix" values="0 0 0 0 0 0 0 0 0 0 0 0 0 0 0 0 0 0 127 0" result="hardAlpha"/>
<feOffset dx="4" dy="4"/>
<feGaussianBlur stdDeviation="4"/>
<feColorMatrix type="matrix" values="0 0 0 0 1 0 0 0 0 0.627451 0 0 0 0 0.0705882 0 0 0 0.4 0"/>
<feBlend mode="normal" in2="BackgroundImageFix" result="effect1_dropShadow_81_2725"/>
<feBlend mode="normal" in="SourceGraphic" in2="effect1_dropShadow_81_2725" result="shape"/>
</filter>
<filter id="filter1_d_81_2725" x="21" y="13.75" width="88.5" height="88.5" filterUnits="userSpaceOnUse" color-interpolation-filters="sRGB">
<feFlood flood-opacity="0" result="BackgroundImageFix"/>
<feColorMatrix in="SourceAlpha" type="matrix" values="0 0 0 0 0 0 0 0 0 0 0 0 0 0 0 0 0 0 127 0" result="hardAlpha"/>
<feOffset/>
<feGaussianBlur stdDeviation="4"/>
<feComposite in2="hardAlpha" operator="out"/>
<feColorMatrix type="matrix" values="0 0 0 0 1 0 0 0 0 1 0 0 0 0 1 0 0 0 0.8 0"/>
<feBlend mode="normal" in2="BackgroundImageFix" result="effect1_dropShadow_81_2725"/>
<feBlend mode="normal" in="SourceGraphic" in2="effect1_dropShadow_81_2725" result="shape"/>
</filter>
<filter id="filter2_dd_81_2725" x="6.5" y="25" width="88.5" height="66.75" filterUnits="userSpaceOnUse" color-interpolation-filters="sRGB">
<feFlood flood-opacity="0" result="BackgroundImageFix"/>
<feColorMatrix in="SourceAlpha" type="matrix" values="0 0 0 0 0 0 0 0 0 0 0 0 0 0 0 0 0 0 127 0" result="hardAlpha"/>
<feOffset/>
<feGaussianBlur stdDeviation="2"/>
<feComposite in2="hardAlpha" operator="out"/>
<feColorMatrix type="matrix" values="0 0 0 0 1 0 0 0 0 1 0 0 0 0 1 0 0 0 1 0"/>
<feBlend mode="normal" in2="BackgroundImageFix" result="effect1_dropShadow_81_2725"/>
<feColorMatrix in="SourceAlpha" type="matrix" values="0 0 0 0 0 0 0 0 0 0 0 0 0 0 0 0 0 0 127 0" result="hardAlpha"/>
<feOffset dy="4"/>
<feGaussianBlur stdDeviation="4"/>
<feComposite in2="hardAlpha" operator="out"/>
<feColorMatrix type="matrix" values="0 0 0 0 1 0 0 0 0 1 0 0 0 0 1 0 0 0 1 0"/>
<feBlend mode="normal" in2="effect1_dropShadow_81_2725" result="effect2_dropShadow_81_2725"/>
<feBlend mode="normal" in="SourceGraphic" in2="effect2_dropShadow_81_2725" result="shape"/>
</filter>
<filter id="filter3_dd_81_2725" x="13.75" y="43.125" width="59.5" height="23.25" filterUnits="userSpaceOnUse" color-interpolation-filters="sRGB">
<feFlood flood-opacity="0" result="BackgroundImageFix"/>
<feColorMatrix in="SourceAlpha" type="matrix" values="0 0 0 0 0 0 0 0 0 0 0 0 0 0 0 0 0 0 127 0" result="hardAlpha"/>
<feOffset/>
<feGaussianBlur stdDeviation="2"/>
<feComposite in2="hardAlpha" operator="out"/>
<feColorMatrix type="matrix" values="0 0 0 0 1 0 0 0 0 1 0 0 0 0 1 0 0 0 1 0"/>
<feBlend mode="normal" in2="BackgroundImageFix" result="effect1_dropShadow_81_2725"/>
<feColorMatrix in="SourceAlpha" type="matrix" values="0 0 0 0 0 0 0 0 0 0 0 0 0 0 0 0 0 0 127 0" result="hardAlpha"/>
<feOffset dy="4"/>
<feGaussianBlur stdDeviation="4"/>
<feComposite in2="hardAlpha" operator="out"/>
<feColorMatrix type="matrix" values="0 0 0 0 1 0 0 0 0 1 0 0 0 0 1 0 0 0 1 0"/>
<feBlend mode="normal" in2="effect1_dropShadow_81_2725" result="effect2_dropShadow_81_2725"/>
<feBlend mode="normal" in="SourceGraphic" in2="effect2_dropShadow_81_2725" result="shape"/>
</filter>
<filter id="filter4_dd_81_2725" x="13.75" y="54" width="37.75" height="23.25" filterUnits="userSpaceOnUse" color-interpolation-filters="sRGB">
<feFlood flood-opacity="0" result="BackgroundImageFix"/>
<feColorMatrix in="SourceAlpha" type="matrix" values="0 0 0 0 0 0 0 0 0 0 0 0 0 0 0 0 0 0 127 0" result="hardAlpha"/>
<feOffset/>
<feGaussianBlur stdDeviation="2"/>
<feComposite in2="hardAlpha" operator="out"/>
<feColorMatrix type="matrix" values="0 0 0 0 1 0 0 0 0 1 0 0 0 0 1 0 0 0 1 0"/>
<feBlend mode="normal" in2="BackgroundImageFix" result="effect1_dropShadow_81_2725"/>
<feColorMatrix in="SourceAlpha" type="matrix" values="0 0 0 0 0 0 0 0 0 0 0 0 0 0 0 0 0 0 127 0" result="hardAlpha"/>
<feOffset dy="4"/>
<feGaussianBlur stdDeviation="4"/>
<feComposite in2="hardAlpha" operator="out"/>
<feColorMatrix type="matrix" values="0 0 0 0 1 0 0 0 0 1 0 0 0 0 1 0 0 0 1 0"/>
<feBlend mode="normal" in2="effect1_dropShadow_81_2725" result="effect2_dropShadow_81_2725"/>
<feBlend mode="normal" in="SourceGraphic" in2="effect2_dropShadow_81_2725" result="shape"/>
</filter>
<filter id="filter5_dd_81_2725" x="13.75" y="32.25" width="74" height="23.25" filterUnits="userSpaceOnUse" color-interpolation-filters="sRGB">
<feFlood flood-opacity="0" result="BackgroundImageFix"/>
<feColorMatrix in="SourceAlpha" type="matrix" values="0 0 0 0 0 0 0 0 0 0 0 0 0 0 0 0 0 0 127 0" result="hardAlpha"/>
<feOffset/>
<feGaussianBlur stdDeviation="2"/>
<feComposite in2="hardAlpha" operator="out"/>
<feColorMatrix type="matrix" values="0 0 0 0 1 0 0 0 0 1 0 0 0 0 1 0 0 0 1 0"/>
<feBlend mode="normal" in2="BackgroundImageFix" result="effect1_dropShadow_81_2725"/>
<feColorMatrix in="SourceAlpha" type="matrix" values="0 0 0 0 0 0 0 0 0 0 0 0 0 0 0 0 0 0 127 0" result="hardAlpha"/>
<feOffset dy="4"/>
<feGaussianBlur stdDeviation="4"/>
<feComposite in2="hardAlpha" operator="out"/>
<feColorMatrix type="matrix" values="0 0 0 0 1 0 0 0 0 1 0 0 0 0 1 0 0 0 1 0"/>
<feBlend mode="normal" in2="effect1_dropShadow_81_2725" result="effect2_dropShadow_81_2725"/>
<feBlend mode="normal" in="SourceGraphic" in2="effect2_dropShadow_81_2725" result="shape"/>
</filter>
<linearGradient id="paint0_linear_81_2725" x1="65.25" y1="21.75" x2="65.25" y2="94.25" gradientUnits="userSpaceOnUse">
<stop stop-color="#FFBC0E"/>
<stop offset="1" stop-color="#FF7C1E"/>
</linearGradient>
</defs>
</svg>
