<svg width="192" height="192" viewBox="0 0 192 192" fill="none" xmlns="http://www.w3.org/2000/svg">
<path d="M103.035 13.7923C98.7762 11.3972 93.2238 11.4079 88.9614 13.7923C67.6134 25.5736 46.2649 37.3585 24.9129 49.1344C20.7581 51.3201 17.9558 55.7819 18.0005 60.4128V131.597C17.9705 136.318 20.9173 140.823 25.1793 142.979C31.3122 146.242 37.2708 149.836 43.5146 152.881C50.727 156.425 59.7506 157.209 67.0512 153.513C72.9774 150.45 75.6096 143.637 75.6018 137.376C75.6498 113.884 75.6096 90.3906 75.6204 66.8976C75.7614 65.8536 74.9772 64.7376 73.8384 64.7628C71.1102 64.7196 68.3784 64.7376 65.6502 64.7556C64.6194 64.6584 63.6132 65.5146 63.6912 66.5508C63.6546 89.892 63.6984 113.24 63.669 136.585C63.7284 139.814 61.5468 142.918 58.4348 144.008C51.2472 146.528 30.7319 133.207 30.7319 133.207C29.979 132.859 29.5009 132.042 29.5747 131.231C29.5747 107.746 29.5784 84.2598 29.5747 60.7782C29.4712 59.8315 30.0547 58.9788 30.9241 58.5923C52.202 46.8804 73.4688 35.1392 94.7466 23.4202C95.4858 22.9269 96.516 22.9284 97.2534 23.4238C118.531 35.1392 139.802 46.8697 161.083 58.5821C161.956 58.968 162.514 59.835 162.425 60.7782C162.422 84.2598 162.433 107.746 162.418 131.228C162.481 132.059 162.052 132.864 161.276 133.229C140.197 144.877 118.877 156.15 97.989 168.137C97.0776 168.659 96.045 169.252 95.0238 168.676C89.5308 165.637 84.1044 162.481 78.6294 159.413C78.0342 159.041 77.2764 158.882 76.6554 159.298C74.2008 160.591 71.892 161.639 69.0732 162.755C65.1144 164.322 65.7468 164.963 69.3174 167.043C75.72 170.666 82.1334 174.275 88.536 177.902C92.751 180.533 98.4144 180.72 102.765 178.289C124.117 166.523 145.462 154.742 166.817 142.976C171.068 140.808 174.029 136.321 173.999 131.596V60.4128C174.041 55.8758 171.346 51.4936 167.316 49.2756C145.894 37.4368 124.461 25.6238 103.035 13.7923Z" fill="#8CC84B"/>
<path d="M135.252 67.2372C126.871 62.754 116.902 62.5152 107.589 63.1014C100.861 63.7662 93.7856 65.6226 88.8842 70.4454C83.8567 75.2934 82.7623 83.1222 85.1503 89.451C86.8615 93.9234 91.1689 96.8316 95.6233 98.37C101.361 100.396 107.388 101.022 113.416 101.648C118.914 102.22 124.414 102.791 129.699 104.425C131.858 105.14 134.372 106.235 135.033 108.584C135.644 111.365 134.974 114.599 132.716 116.531C125.542 122.209 105.588 121.339 98.4997 116.87C95.6341 114.967 94.3993 111.596 93.8971 108.385C93.8413 107.384 93.0355 106.466 91.9489 106.542C89.2279 106.51 86.5069 106.517 83.7859 106.538C82.8367 106.459 81.8497 107.134 81.7975 108.103C81.2383 122.813 94.7486 129.226 107.424 130.638C114.665 131.328 122.065 131.288 129.196 129.734C134.557 128.514 139.932 126.266 143.622 122.138C148.172 117.12 149.067 109.649 147.026 103.399C145.466 98.7354 141.007 95.7438 136.45 94.2048C130.252 92.0796 122.907 90.9372 117.293 90.4026C109.134 89.6256 99.4375 89.943 97.1281 84.5814C96.2071 81.774 96.9908 78.288 99.5708 76.5612C106.397 71.931 120.29 72.546 127.359 76.005C130.605 77.6304 132.486 80.9688 133.263 84.339C133.407 85.329 134.073 86.3622 135.219 86.319C137.921 86.373 140.623 86.3334 143.325 86.337C144.253 86.4018 145.27 85.878 145.451 84.9276C145.336 77.8836 141.739 70.6728 135.252 67.2372Z" fill="#8CC84B"/>
</svg>
