<svg width="192" height="192" viewBox="0 0 192 192" fill="none" xmlns="http://www.w3.org/2000/svg">
<path d="M112.074 95.8559C112.074 87.2495 104.878 80.2715 96.0002 80.2715C87.1238 80.2715 79.9268 87.2495 79.9268 95.8559C79.9268 104.463 87.1238 111.441 96.0002 111.441C104.878 111.441 112.074 104.463 112.074 95.8559Z" fill="#53C1DE"/>
<path fill-rule="evenodd" clip-rule="evenodd" d="M148.202 66.9222C151.597 53.5487 155.863 28.7489 140.822 20.341C125.852 11.9697 106.37 28.0106 96.0834 37.6391C85.8264 28.1065 65.7978 12.1342 50.7698 20.5688C35.8051 28.9682 40.4198 53.3568 43.8894 66.8142C29.9299 70.6584 6 78.9384 6 95.8554C6 112.724 29.905 121.733 43.7819 125.573C40.2995 139.105 35.9158 163.145 50.8996 171.526C65.9838 179.959 85.95 164.367 96.3324 154.633C106.685 164.318 125.98 180.013 140.953 171.608C155.974 163.178 152.062 138.71 148.592 125.175C162.044 121.326 186 112.514 186 95.8554C186 79.101 161.942 70.7538 148.202 66.9222ZM146.497 118.002C144.219 111.01 141.144 103.574 137.383 95.8926C140.973 88.3926 143.929 81.0528 146.143 74.1054C156.215 76.9368 178.311 83.4078 178.311 95.8554C178.311 108.42 157.108 114.952 146.497 118.002ZM137.1 165.156C125.928 171.426 109.333 156.418 101.687 149.285C106.759 143.906 111.828 137.653 116.775 130.709C125.477 129.961 133.698 128.737 141.154 127.066C143.596 136.64 148.321 158.858 137.1 165.156ZM54.7417 165.067C43.5686 158.82 48.6755 137.368 51.2374 127.4C58.61 128.981 66.7716 130.119 75.4944 130.805C80.4738 137.599 85.6896 143.845 90.9456 149.314C84.4518 155.405 65.967 171.342 54.7417 165.067ZM13.6889 95.8554C13.6889 83.244 35.6524 76.8198 45.9542 73.9956C48.2071 81.099 51.1617 88.5264 54.7274 96.0372C51.1155 103.66 48.1186 111.205 45.8451 118.392C36.0221 115.666 13.6889 108.475 13.6889 95.8554ZM54.6222 27.0212C65.841 20.725 83.2482 36.059 90.6954 42.9608C85.4664 48.4052 80.2986 54.6036 75.3618 61.359C66.8964 62.1198 58.7925 63.3414 51.3425 64.9782C48.5475 54.1243 43.4155 33.3107 54.6222 27.0212ZM122.276 69.4626C128.019 70.1652 133.522 71.1 138.688 72.2436C137.137 77.064 135.204 82.1046 132.927 87.2718C129.626 81.1998 126.083 75.2496 122.276 69.4626ZM96.0858 48.2886C99.6324 52.0138 103.184 56.1738 106.679 60.687C99.591 60.3618 92.4918 60.3606 85.404 60.6822C88.9014 56.2109 92.484 52.0571 96.0858 48.2886ZM59.139 87.2664C56.8997 82.1172 54.9839 77.0544 53.4193 72.165C58.5551 71.0508 64.032 70.14 69.738 69.4488C65.9196 75.2232 62.3826 81.171 59.139 87.2664ZM69.9018 122.794C64.0074 122.156 58.4476 121.292 53.3134 120.208C54.9026 115.233 56.8607 110.061 59.1478 104.801C62.436 110.96 66.027 116.965 69.9018 122.794ZM96.2988 143.949C92.6544 140.136 89.019 135.919 85.4688 131.383C92.5968 131.654 99.7386 131.654 106.866 131.346C103.361 135.965 99.8214 140.188 96.2988 143.949ZM133 104.533C135.406 109.85 137.434 114.994 139.045 119.885C133.826 121.04 128.191 121.97 122.254 122.661C126.09 116.764 129.689 110.722 133 104.533ZM112.484 123.565C101.581 124.32 90.6096 124.312 79.7028 123.626C73.5054 114.849 67.9884 105.618 63.2262 96.0348C67.9656 86.4714 73.4424 77.2584 79.6104 68.4948C90.525 67.695 101.507 67.6926 112.421 68.4996C118.537 77.2626 124.005 86.4516 128.854 95.9286C124.063 105.487 118.557 114.719 112.484 123.565ZM136.982 26.7996C148.204 33.0752 143.209 55.3636 140.757 65.0556C133.289 63.3846 125.18 62.1414 116.69 61.3686C111.743 54.5402 106.619 48.3311 101.474 42.9569C109.017 35.9065 125.869 20.5853 136.982 26.7996Z" fill="#53C1DE"/>
</svg>
