<svg width="582" height="562" viewBox="0 0 582 562" fill="none" xmlns="http://www.w3.org/2000/svg">
<g clip-path="url(#clip0_81_2738)">
<path d="M519.359 0H108.961C93.4974 0 80.9614 12.536 80.9614 28V197.582C80.9614 215.226 97.1172 228.652 114.69 227.073C154.122 223.531 213.172 223.501 276.207 237.809C281.809 239.078 287.435 240.463 293.084 241.962C398.122 269.909 496.284 280.873 580.919 248.578C580.979 248.551 581.017 248.493 581.017 248.428V28C581.017 12.536 568.481 0 553.017 0H519.359Z" fill="#228FF8"/>
<path d="M258.301 246.865C376.221 287.095 486.429 302.879 581.444 256.388L581.551 256.325V244.148H250.028C252.78 245.023 255.538 245.919 258.301 246.865Z" fill="#0A7DE8"/>
<g opacity="0.7">
<path opacity="0.7" d="M134.798 164.941L284.213 165.268V118.444L134.798 117.926V164.941Z" fill="#4497B7"/>
<path opacity="0.7" d="M134.798 216.516L284.213 216.634V169.81L134.798 169.502V216.516Z" fill="#4497B7"/>
<path opacity="0.7" d="M134.798 268.694L284.213 268.597V221.774L134.798 221.678V268.694Z" fill="#4497B7"/>
<path opacity="0.7" d="M134.798 320.659L284.213 320.351V273.527L134.798 273.645V320.659Z" fill="#4497B7"/>
<path opacity="0.7" d="M134.798 371.876H284.213V324.764L134.798 325.09V371.876Z" fill="#4497B7"/>
<g opacity="0.7">
<g opacity="0.7">
<g opacity="0.7">
<path opacity="0.7" d="M189.871 268.666L207.583 268.656V227.502L189.871 227.494V268.666Z" fill="#FE8046"/>
</g>
</g>
</g>
<g opacity="0.7">
<g opacity="0.7">
<g opacity="0.7">
<path opacity="0.7" d="M234.646 268.636L252.32 268.627V227.512L234.646 227.506V268.636Z" fill="#2B1BED"/>
</g>
</g>
</g>
<g opacity="0.7">
<path opacity="0.7" d="M253.546 268.627L271.204 268.618V227.523L253.546 227.516V268.627Z" fill="white"/>
</g>
<g opacity="0.7">
<path opacity="0.7" d="M210.507 228.96L220.238 268.647L233.97 264.436L224.248 224.764L210.507 228.96Z" fill="white"/>
</g>
<g opacity="0.7">
<g opacity="0.7">
<g opacity="0.7">
<path opacity="0.7" d="M236.08 320.468L253.748 320.437V279.328L236.08 279.342V320.468Z" fill="#2B1BED"/>
</g>
</g>
</g>
<g opacity="0.7">
<path opacity="0.7" d="M222.225 320.492L234.897 320.471V279.344L222.225 279.355V320.492Z" fill="white"/>
</g>
<g opacity="0.7">
<g opacity="0.7">
<g opacity="0.7">
<path opacity="0.7" d="M187.738 312.697L201.759 320.526L221.924 285.642L207.915 277.803L187.738 312.697Z" fill="#2B1BED"/>
</g>
</g>
</g>
<g opacity="0.7">
<g opacity="0.7">
<g opacity="0.7">
<path opacity="0.7" d="M255.744 280.788L265.449 320.413L280.148 316.485L270.446 276.869L255.744 280.788Z" fill="#2B1BED"/>
</g>
</g>
</g>
<g opacity="0.7">
<g opacity="0.7">
<g opacity="0.7">
<path opacity="0.7" d="M191.075 371.874H208.784V330.725L191.075 330.761V371.874Z" fill="#F5C825"/>
</g>
</g>
</g>
<g opacity="0.7">
<g opacity="0.7">
<g opacity="0.7">
<path opacity="0.7" d="M236.876 371.796L254.548 371.744V330.631L236.876 330.667V371.796Z" fill="#2B1BED"/>
</g>
</g>
</g>
<g opacity="0.7">
<g opacity="0.7">
<g opacity="0.7">
<path opacity="0.7" d="M256.642 371.737L274.297 371.685V330.592L256.642 330.627V371.737Z" fill="#2B1BED"/>
</g>
</g>
</g>
<g opacity="0.7">
<g opacity="0.7">
<g opacity="0.7">
<path opacity="0.7" d="M210.956 368.24L224.835 371.833L234.557 332.137L220.684 328.529L210.956 368.24Z" fill="#FE8046"/>
</g>
</g>
</g>
<g opacity="0.7">
<g opacity="0.7">
<g opacity="0.7">
<path opacity="0.7" d="M192.802 165.052L210.511 165.085V123.929L192.802 123.877V165.052Z" fill="#FE8046"/>
</g>
</g>
</g>
<g opacity="0.7">
<g opacity="0.7">
<g opacity="0.7">
<path opacity="0.7" d="M234.646 165.132L252.32 165.165V124.052L234.646 124V165.132Z" fill="#F5C825"/>
</g>
</g>
</g>
<g opacity="0.7">
<path opacity="0.7" d="M253.546 165.164L271.204 165.198V124.101L253.546 124.049V165.164Z" fill="white"/>
</g>
<g opacity="0.7">
<path opacity="0.7" d="M210.507 125.391L220.237 165.104L233.968 160.925L224.247 121.229L210.507 125.391Z" fill="white"/>
</g>
<g opacity="0.7">
<g opacity="0.7">
<g opacity="0.7">
<path opacity="0.7" d="M237.768 216.589L255.436 216.601V175.492L237.768 175.461V216.589Z" fill="#2B1BED"/>
</g>
</g>
</g>
<g opacity="0.7">
<path opacity="0.7" d="M223.915 216.581L236.583 216.589V175.463L223.915 175.441V216.581Z" fill="white"/>
</g>
<g opacity="0.7">
<g opacity="0.7">
<g opacity="0.7">
<path opacity="0.7" d="M185.893 206.761L202.156 216.563L222.32 181.725L206.07 171.916L185.893 206.761Z" fill="#2B1BED"/>
</g>
</g>
</g>
<g opacity="0.7">
<g opacity="0.7">
<g opacity="0.7">
<path opacity="0.7" d="M257.429 176.962L267.134 216.611L280.837 212.424L271.138 172.785L257.429 176.962Z" fill="#2B1BED"/>
</g>
</g>
</g>
<g opacity="0.7">
<path opacity="0.7" d="M138.755 268.69L156.511 268.681V227.473L138.755 227.467V268.69Z" fill="white"/>
</g>
<g opacity="0.7">
<g opacity="0.7">
<g opacity="0.7">
<path opacity="0.7" d="M156.511 260.682L169.328 268.513L189.87 234.953L177.064 227.121L156.511 260.682Z" fill="#FE8046"/>
</g>
</g>
</g>
<g opacity="0.7">
<g opacity="0.7">
<g opacity="0.7">
<path opacity="0.7" d="M166.204 320.593L183.932 320.563V279.387L166.204 279.4V320.593Z" fill="#FE8046"/>
</g>
</g>
</g>
<g opacity="0.7">
<g opacity="0.7">
<g opacity="0.7">
<path opacity="0.7" d="M140.994 280.887L150.753 320.62L166.225 316.289L156.472 276.564L140.994 280.887Z" fill="#2B1BED"/>
</g>
</g>
</g>
<g opacity="0.7">
<g opacity="0.7">
<g opacity="0.7">
<path opacity="0.7" d="M159.593 333.774L173.447 371.875H173.784L190.286 365.616L176.401 327.416L159.593 333.774Z" fill="#FE8046"/>
</g>
</g>
</g>
<g opacity="0.7">
<g opacity="0.7">
<g opacity="0.7">
<path opacity="0.7" d="M141.873 371.873H159.626V330.824L141.873 330.861V371.873Z" fill="#2B1BED"/>
</g>
</g>
</g>
<path opacity="0.7" d="M134.798 112.482H284.213V65.1406L134.798 65.4669V112.482Z" fill="#4497B7"/>
<g opacity="0.7">
<g opacity="0.7">
<g opacity="0.7">
<path opacity="0.7" d="M191.075 112.314L208.784 112.262V71.1055L191.075 71.1409V112.314Z" fill="#2B1BED"/>
</g>
</g>
</g>
<g opacity="0.7">
<g opacity="0.7">
<g opacity="0.7">
<path opacity="0.7" d="M236.876 112.177L254.548 112.125V71.0156L236.876 71.052V112.177Z" fill="#2B1BED"/>
</g>
</g>
</g>
<g opacity="0.7">
<g opacity="0.7">
<g opacity="0.7">
<path opacity="0.7" d="M256.642 112.113L274.297 112.061V70.9688L256.642 71.0036V112.113Z" fill="#2B1BED"/>
</g>
</g>
</g>
<g opacity="0.7">
<g opacity="0.7">
<g opacity="0.7">
<path opacity="0.7" d="M210.956 108.619L224.835 112.214L234.557 72.5154L220.683 68.9082L210.956 108.619Z" fill="#FE8046"/>
</g>
</g>
</g>
<g opacity="0.7">
<g opacity="0.7">
<g opacity="0.7">
<path opacity="0.7" d="M159.593 74.1538L173.486 112.366L190.284 105.995L176.399 67.7949L159.593 74.1538Z" fill="#FE8046"/>
</g>
</g>
</g>
<g opacity="0.7">
<g opacity="0.7">
<g opacity="0.7">
<path opacity="0.7" d="M141.873 112.464L159.626 112.412V71.207L141.873 71.2435V112.464Z" fill="#F5C825"/>
</g>
</g>
</g>
<g opacity="0.7">
<path opacity="0.7" d="M138.755 164.947L156.511 164.981V123.773L138.755 123.721V164.947Z" fill="white"/>
</g>
<g opacity="0.7">
<g opacity="0.7">
<g opacity="0.7">
<path opacity="0.7" d="M159.092 157.381L172.36 165.007L192.8 131.504L179.542 123.879L159.092 157.381Z" fill="#FE8046"/>
</g>
</g>
</g>
<g opacity="0.7">
<g opacity="0.7">
<g opacity="0.7">
<path opacity="0.7" d="M167.892 216.546L185.62 216.556V175.382L167.892 175.352V216.546Z" fill="#2B1BED"/>
</g>
</g>
</g>
<g opacity="0.7">
<g opacity="0.7">
<g opacity="0.7">
<path opacity="0.7" d="M140.913 176.777L150.672 216.534L166.216 212.335L156.463 172.588L140.913 176.777Z" fill="#FE8046"/>
</g>
</g>
</g>
</g>
<path d="M300.797 276.871L268.241 276.999C264.783 276.999 260.181 279.667 259.673 283.1L248.732 372.103H253.028L264.649 283.536C264.819 282.534 265.338 281.618 266.12 280.94C266.902 280.263 267.9 279.864 268.948 279.81L299.966 279.068C301.996 279.068 301.042 281.097 301.344 283.115L312.644 372.106H319.692L307.991 283.103C307.48 279.667 304.255 276.871 300.797 276.871Z" fill="#B88704"/>
<path d="M296.623 276.871H264.775C261.314 276.871 258.104 279.672 257.614 283.116L245.903 372.105H248.854L260.507 283.529C260.67 282.529 261.183 281.615 261.96 280.937C262.737 280.26 263.731 279.862 264.775 279.809H296.623C297.668 279.861 298.663 280.259 299.44 280.936C300.217 281.614 300.729 282.529 300.891 283.529L312.545 372.105H315.496L303.785 283.114C303.297 279.672 300.084 276.871 296.623 276.871Z" fill="#F5C825"/>
<path d="M368.748 276.674H329.853C326.394 276.674 321.915 279.564 321.406 283.117L310.475 372.106H314.771L326.384 283.565C326.683 281.476 328.653 279.709 330.683 279.709H367.911C369.945 279.709 368.993 281.041 369.292 283.13L386.125 372.106H391.582L375.941 283.117C375.431 279.564 372.203 276.674 368.748 276.674Z" fill="#B88704"/>
<path d="M364.576 276.67H326.509C323.055 276.67 319.833 279.564 319.328 283.123L307.643 372.106H310.597L322.217 283.563C322.514 281.475 324.477 279.709 326.507 279.709H364.576C366.638 279.709 368.712 281.487 369.103 283.591L384.41 372.106H387.417L371.971 283.015C371.318 279.515 368.002 276.67 364.576 276.67Z" fill="#F5C825"/>
<path d="M378.439 240.485C378.297 241.337 378.098 242.879 377.847 244.833C377.229 249.689 376.293 257.028 375.013 263.41C372.867 274.111 371.13 274.859 371.057 274.887C369.702 274.879 366.934 274.814 363.101 274.722C353.07 274.483 340.944 274.081 318.502 274.081H317.04V277.015H318.502C340.908 277.015 353.013 277.416 363.03 277.656C366.882 277.749 369.663 277.816 371.113 277.816C375.151 277.816 377.672 269.282 380.746 245.209C380.989 243.287 381.184 241.768 381.316 240.971L381.556 239.523L378.675 239.041L378.439 240.485Z" fill="#B88704"/>
<path d="M375.219 244.31C374.598 249.122 373.659 256.396 372.379 262.727C370.232 273.335 368.499 274.061 368.423 274.085L315.862 274.079V277.013H368.472C372.52 277.013 375.042 268.554 378.116 244.686C378.358 242.816 378.546 241.338 378.676 240.548L375.795 240.066C375.657 240.908 375.465 242.408 375.219 244.31Z" fill="#4497B7"/>
<path d="M304.479 274.127H264.869V278.574H304.479V274.127Z" fill="#4497B7"/>
<path d="M317.077 244.295C316.444 248.957 315.378 256.761 313.988 263.475C311.668 274.669 309.931 275.618 309.743 275.689H308.28L308.343 278.616H309.806C313.894 278.616 316.557 269.739 319.973 244.693C320.2 243.014 320.743 239.521 320.743 239.521L317.861 239.037C317.861 239.037 317.311 242.592 317.077 244.295Z" fill="#B88704"/>
<path d="M314.389 244.422C313.768 249.281 312.832 256.623 311.552 263.005C309.408 273.707 307.672 274.46 307.599 274.486L307.653 277.413C311.694 277.413 314.212 268.879 317.286 244.796C317.532 242.87 317.727 241.349 317.86 240.548L314.979 240.066C314.837 240.92 314.638 242.466 314.389 244.422Z" fill="#4497B7"/>
<path d="M389.431 184.965H335.095C329.554 184.965 324.362 189.07 323.549 194.089L315.871 241.566C329.991 243.895 344.29 245.064 358.615 245.06C382.414 245.06 390.348 241.566 390.348 241.566L398.027 194.09C398.837 189.07 394.972 184.965 389.431 184.965Z" fill="#2B1BED"/>
<path d="M384.451 184.965H330.115C324.574 184.965 319.382 189.07 318.572 194.089L310.891 241.566C325.01 243.895 339.308 245.064 353.632 245.06C377.431 245.06 385.365 241.566 385.365 241.566L393.044 194.09C393.857 189.07 389.99 184.965 384.451 184.965Z" fill="#F7F7F7"/>
<path d="M372.034 268.512H308.816C307.469 268.561 306.195 269.114 305.26 270.053C304.325 270.992 303.803 272.245 303.803 273.549C303.803 274.853 304.325 276.106 305.26 277.045C306.195 277.984 307.469 278.537 308.816 278.586H372.034C373.381 278.537 374.655 277.984 375.59 277.045C376.525 276.106 377.047 274.853 377.047 273.549C377.047 272.245 376.525 270.992 375.59 270.053C374.655 269.114 373.381 268.561 372.034 268.512Z" fill="#2B1BED"/>
<path d="M318.355 268.512H255.138C253.791 268.561 252.516 269.114 251.582 270.053C250.647 270.992 250.125 272.245 250.125 273.549C250.125 274.853 250.647 276.106 251.582 277.045C252.516 277.984 253.791 278.537 255.138 278.586H318.355C319.702 278.537 320.977 277.984 321.912 277.045C322.846 276.106 323.368 274.853 323.368 273.549C323.368 272.245 322.846 270.992 321.912 270.053C320.977 269.114 319.702 268.561 318.355 268.512Z" fill="#F7F7F7"/>
<path d="M334.507 142.865L300.916 145.615C301.67 151.464 294.99 158.417 291.797 163.163C288.55 167.99 287.747 185.857 317.243 185.857C346.74 185.857 345.79 168.48 343.249 163.163C340.795 158.02 333.756 148.714 334.507 142.865Z" fill="#FE8046"/>
<path d="M334.507 142.865L328.788 145.615C335.613 157.495 328.192 173.423 328.192 173.423C328.192 173.423 324.511 165.511 323.323 167.104C317.566 174.838 306.934 180.073 297.376 174.062C292.872 171.227 292.336 165.717 293.099 161.339C292.626 161.975 292.184 162.588 291.797 163.161C288.55 167.986 287.747 185.855 317.243 185.855C346.74 185.855 345.79 168.478 343.249 163.161C340.795 158.021 333.756 148.714 334.507 142.865Z" fill="#EB4201"/>
<path fill-rule="evenodd" clip-rule="evenodd" d="M270.501 272.719C265.354 282.152 278.742 338.245 278.366 343.073C278.266 344.383 275.891 360.935 275.797 363.199C275.703 365.513 274.549 370.931 277.755 371.414C280.522 371.831 286.632 366.824 287.659 364.835C289.26 361.737 287.196 355.323 287.035 349.292C286.912 344.634 288.126 341.961 287.675 339.557C287.341 337.773 285.897 337.913 285.361 333.817C283.729 321.271 289.176 310.461 288.451 294.217C288.306 291.032 287.083 288.032 288.016 284.501C288.687 281.151 327.551 273.128 328.698 269.507C329.701 266.342 322.727 250.443 322.727 250.443C322.727 250.443 277.254 260.343 270.501 272.719Z" fill="#FFA578"/>
<path fill-rule="evenodd" clip-rule="evenodd" d="M271.84 270.856C273.153 272.435 273.844 274.414 273.788 276.439C273.788 285.106 274.111 292.203 278.397 300.116C282.546 307.788 283.633 316.462 283 325.322C282.378 333.992 281.704 341.246 283.239 349.942C284.642 357.917 283.255 365.018 278.048 371.426C280.925 371.493 286.665 366.759 287.658 364.837C289.26 361.739 287.195 355.325 287.034 349.294C286.911 344.635 288.125 341.963 287.674 339.559C287.34 337.775 285.896 337.915 285.361 333.819C283.728 321.273 289.175 310.463 288.45 294.219C288.305 291.034 287.082 288.034 288.015 284.503C288.687 281.153 327.55 273.13 328.698 269.509C329.7 266.344 322.726 250.445 322.726 250.445C322.726 250.445 281.776 259.364 271.84 270.856Z" fill="#E68969"/>
<path fill-rule="evenodd" clip-rule="evenodd" d="M278.368 363.455C277.234 363.284 276.647 361.962 275.995 361.186C275.884 362.123 275.812 362.847 275.796 363.2C275.702 365.515 274.548 370.933 277.754 371.416C280.521 371.832 286.631 366.826 287.658 364.836C288.834 362.562 288.035 358.495 287.463 354.111C287.144 354.86 284.077 364.316 278.368 363.455Z" fill="#B88704"/>
<path fill-rule="evenodd" clip-rule="evenodd" d="M280.001 365.291C279.999 364.636 280.088 363.984 280.266 363.352C279.648 363.515 279.002 363.551 278.368 363.456C277.234 363.286 276.647 361.963 275.995 361.188C275.884 362.124 275.812 362.848 275.796 363.201C275.702 365.516 274.548 370.934 277.754 371.417C279.557 371.69 282.775 369.657 285.085 367.656C284.566 367.809 284.033 367.915 283.494 367.975C281.95 368.127 279.998 366.959 280.001 365.291Z" fill="#F5C825"/>
<path fill-rule="evenodd" clip-rule="evenodd" d="M302.046 313.797C301.454 312.08 300.044 312.417 298.91 308.437C295.436 296.245 299.247 262.912 292.154 252.911C288.139 247.244 272.116 248.688 273.544 260.6C275.05 273.166 293.012 313.735 293.355 318.566C293.447 319.877 293.544 336.586 293.79 338.841C294.036 341.142 293.695 346.666 296.939 346.701C299.742 346.732 305.047 340.925 305.769 338.818C306.899 335.529 303.903 329.468 302.853 323.522C302.043 318.927 302.85 316.114 302.046 313.797Z" fill="#FFA578"/>
<path fill-rule="evenodd" clip-rule="evenodd" d="M296.372 338.738C295.224 338.725 294.449 337.498 293.686 336.82C293.718 337.756 293.752 338.489 293.79 338.841C294.036 341.143 293.695 346.667 296.939 346.702C299.742 346.732 305.047 340.925 305.769 338.818C306.598 336.405 305.204 332.491 303.991 328.23C303.786 329.016 302.146 338.8 296.372 338.738Z" fill="#B88704"/>
<path fill-rule="evenodd" clip-rule="evenodd" d="M298.26 340.33C298.162 339.681 298.154 339.023 298.235 338.372C297.647 338.618 297.012 338.742 296.372 338.736C295.224 338.724 294.449 337.497 293.686 336.818C293.718 337.755 293.752 338.488 293.79 338.84C294.036 341.142 293.695 346.665 296.939 346.7C298.768 346.72 301.648 344.263 303.641 341.965C303.149 342.188 302.637 342.367 302.112 342.5C300.608 342.865 298.503 341.979 298.26 340.33Z" fill="#F5C825"/>
<path fill-rule="evenodd" clip-rule="evenodd" d="M289.067 222.396C278.319 222.911 271.513 226.933 265.854 226.555C264.527 226.467 263.44 226.274 262.346 225.254C260.029 223.086 257.454 222.313 254.62 222.072C252.007 221.851 254.617 224.181 251.493 224.31C249.643 224.388 244.224 224.019 243.994 224.695C243.527 226.074 245.178 226.226 247.08 226.302C246.968 226.506 246.911 226.734 246.915 226.965C246.919 227.196 246.984 227.422 247.104 227.622C247.223 227.822 247.393 227.989 247.598 228.107C247.803 228.226 248.036 228.292 248.275 228.299C248.236 228.552 248.253 228.81 248.323 229.056C248.394 229.302 248.516 229.531 248.683 229.729C248.85 229.927 249.058 230.089 249.293 230.205C249.529 230.32 249.786 230.388 250.05 230.402C249.971 231.911 251.062 232.461 253.108 232.307C255.289 232.144 258.744 232.582 264.654 232.255C272.393 231.828 277.493 232.718 283.042 232.255C287.877 231.851 294.554 232.164 301.636 229.201C302.941 228.654 300.026 221.916 299.906 221.053C296.213 221.347 292.699 222.22 289.067 222.396Z" fill="#FFA578"/>
<path fill-rule="evenodd" clip-rule="evenodd" d="M288.377 228.213C283.858 229.102 280.291 229.509 275.705 230.111C268.345 231.079 262.31 231.183 257.101 226.26C255.331 226.145 253.673 225.382 252.464 224.127C252.154 224.243 251.825 224.305 251.493 224.311C249.643 224.389 244.224 224.02 243.994 224.697C243.527 226.075 245.178 226.228 247.08 226.304C246.968 226.507 246.911 226.736 246.915 226.966C246.919 227.197 246.984 227.423 247.104 227.623C247.223 227.823 247.393 227.99 247.598 228.109C247.803 228.227 248.036 228.293 248.275 228.301C248.236 228.554 248.253 228.811 248.323 229.057C248.394 229.303 248.516 229.533 248.683 229.731C248.85 229.928 249.058 230.09 249.293 230.206C249.529 230.322 249.786 230.389 250.05 230.403C249.971 231.912 251.062 232.463 253.108 232.309C255.289 232.146 258.744 232.583 264.654 232.257C272.393 231.829 277.493 232.72 283.042 232.257C287.877 231.852 294.554 232.165 301.636 229.203C302.214 228.961 301.964 227.508 301.497 225.887C297.263 227.071 292.847 227.332 288.377 228.213Z" fill="#E68969"/>
<path fill-rule="evenodd" clip-rule="evenodd" d="M249.492 219.133C249.514 220.605 250.681 221.68 252.764 221.895C253.714 222.96 254.985 223.709 256.398 224.039L259.762 223.388L254.391 220.422C252.709 220.187 251.064 219.754 249.492 219.133Z" fill="#FFA578"/>
<path fill-rule="evenodd" clip-rule="evenodd" d="M250.141 224.543C248.557 224.335 246.963 224.209 245.365 224.169C244.52 224.132 244.016 224.51 244.06 224.915C244.098 225.309 244.293 225.722 245.34 225.8C247.005 225.929 248.678 225.931 250.343 225.806C251.752 225.717 252.152 224.786 250.141 224.543Z" fill="#FFA578"/>
<path fill-rule="evenodd" clip-rule="evenodd" d="M254.06 226.273C251.922 226.161 249.952 226.29 247.831 226.186C246.986 226.147 246.872 226.569 246.942 227.002C247.011 227.418 247.235 227.85 248.281 227.853C250.303 227.86 252.322 227.731 254.325 227.466C255.724 227.261 256.08 226.377 254.06 226.273Z" fill="#FFA578"/>
<path fill-rule="evenodd" clip-rule="evenodd" d="M254.596 228.054C252.679 228.038 251.034 228.254 249.127 228.246C248.37 228.241 248.279 228.761 248.349 229.187C248.415 229.604 248.618 230.02 249.559 229.977C251.379 229.895 253.189 229.676 254.974 229.325C256.222 229.059 256.412 228.072 254.596 228.054Z" fill="#FFA578"/>
<path fill-rule="evenodd" clip-rule="evenodd" d="M255.495 230.208C253.578 230.193 252.626 230.244 250.719 230.234C249.963 230.231 249.865 230.657 249.934 231.086C250 231.502 250.203 231.918 251.144 231.874C252.691 231.846 254.231 231.682 255.746 231.385C256.998 231.121 257.31 230.225 255.495 230.208Z" fill="#FFA578"/>
<path fill-rule="evenodd" clip-rule="evenodd" d="M329.611 176.749C322.103 178.742 323.786 170.692 322.809 163.65L312.608 167.126C313.878 173.742 314.846 178.438 309.32 180.511C306.13 181.708 300.677 182.576 298.205 183.786C288.267 188.658 293.74 217.009 293.74 224.691L301.876 228.915C303.808 222.439 304.199 214.075 304.199 206.215L337.231 202.01L334.511 191.183L345.64 187.354C342.842 175.991 338.564 174.374 329.611 176.749Z" fill="#FFA578"/>
<path fill-rule="evenodd" clip-rule="evenodd" d="M337.151 188.296C337.151 188.296 348.361 212.681 353.186 217.541H362.171C359.709 208.08 354.186 190.09 347.74 181.541L337.151 188.296Z" fill="#FFA578"/>
<path fill-rule="evenodd" clip-rule="evenodd" d="M344.22 183.785C346.618 188.435 349.67 192.703 352.103 197.344C354.827 202.541 354.578 205.427 358.105 210.235C359.363 211.949 360.917 215.634 360.019 216.919L362.17 217.541C359.709 208.08 354.186 190.09 347.74 181.541L344.22 183.785Z" fill="#E68969"/>
<path fill-rule="evenodd" clip-rule="evenodd" d="M329.611 176.749C322.103 178.742 323.786 170.692 322.809 163.65L312.608 167.126C312.857 168.419 313.092 169.636 313.27 170.776C316.028 174.788 321.501 180.996 326.323 180.425C328.93 180.112 331.31 177.214 334.317 176.859C336.459 176.626 338.628 176.824 340.688 177.438C338.054 175.356 334.548 175.438 329.611 176.749Z" fill="#E68969"/>
<path fill-rule="evenodd" clip-rule="evenodd" d="M299.76 207.193C299.653 208.775 299.536 210.391 299.491 212.073C299.356 216.952 298.801 222.34 297.6 226.817L301.874 228.914C303.422 223.724 304.008 217.324 304.109 210.799C302.827 210.351 300.044 207.652 299.76 207.193Z" fill="#E68969"/>
<path fill-rule="evenodd" clip-rule="evenodd" d="M323.44 136.631C321.192 135.533 318.295 135.148 314.597 135.777C305.692 137.302 303.697 144.717 304.283 152.073C304.621 156.218 304.892 159.813 306.887 163.065C307.855 164.609 313.737 171.253 317.916 171.253C322.473 171.232 327.955 163.816 328.753 161.765C329.658 159.447 330.014 156.584 330.162 152.337C330.181 152.032 330.181 151.748 330.181 151.463C330.245 145.043 328.483 139.049 323.44 136.631Z" fill="#FFA578"/>
<path fill-rule="evenodd" clip-rule="evenodd" d="M304.109 238.895C304.109 238.895 285.469 244.206 277.895 249.713C291.301 248.44 304.912 270.648 309.767 277.06C319.532 273.996 357.948 273.629 348.567 240.434C333.439 242.292 318.277 239.809 304.109 238.895Z" fill="#2B1BED"/>
<path fill-rule="evenodd" clip-rule="evenodd" d="M336.099 260.557C333.723 262.009 325.048 260.788 322.771 261.782C320.455 262.792 322.556 270.273 316.565 271.7C312.146 272.752 309.293 264.527 306.847 261.547C295.818 248.108 279.933 248.23 277.896 249.712C291.303 248.439 304.914 270.647 309.769 277.059C319.534 273.995 357.95 273.629 348.569 240.434C343.088 241.104 343.693 255.918 336.099 260.557Z" fill="#181F79"/>
<path fill-rule="evenodd" clip-rule="evenodd" d="M348.235 179.751C342.718 173.908 330.838 175.496 330.838 175.496C326.4 179.379 317.702 185.379 317.702 185.379L304.943 181.521C304.943 181.521 292.236 181.958 290.701 193.505C290.184 197.374 298.389 196.871 298.389 202.408C298.389 206.051 300.384 209.235 303.136 211.41C304.017 216.784 304.348 222.228 304.123 227.665C303.692 234.992 300.58 234.965 301.311 239.048C302.455 245.449 348.301 248.792 349.064 239.634C349.871 229.946 347.141 209.822 345.518 196.296C344.553 188.27 351.369 183.071 348.235 179.751Z" fill="#5CCFFE"/>
<path fill-rule="evenodd" clip-rule="evenodd" d="M348.235 179.751C342.719 173.908 330.838 175.496 330.838 175.496C326.4 179.379 317.703 185.379 317.703 185.379L304.946 181.521C302.415 181.711 299.95 182.398 297.702 183.54C298.724 183.916 300.864 185.486 302.875 185.655C306.533 185.962 310.614 188.621 310.226 192.766C310.178 193.282 310.721 195.249 313.545 196.029C319.528 197.682 315.562 207.152 312.435 210.519C309.822 213.329 320.981 221.295 320.981 231.346C320.981 235.609 331.427 231.379 334.996 228.745C338.224 226.363 340.38 228.605 337.202 230.952C331.284 235.324 325.396 239.799 314.691 239.936C312.103 239.97 307.924 241.182 305.515 242.197C317.639 246.266 348.467 246.816 349.067 239.631C349.874 229.943 347.143 209.819 345.52 196.294C344.554 188.27 351.369 183.071 348.235 179.751ZM341.13 200.231C339.721 202.247 338.542 205.071 339.172 207.532C340.15 211.346 337.164 212.69 333.77 210.545C331.822 209.311 325.397 213.784 320.943 213.057C316.946 212.403 319.988 210.012 321.347 209.607C325.158 208.471 333.631 201.122 335.513 196.815C336.503 194.554 340.329 193.733 341.672 195.212C342.879 196.024 342.197 198.702 341.13 200.231Z" fill="#4497B7"/>
<path fill-rule="evenodd" clip-rule="evenodd" d="M317.595 160.535C316.465 160.538 315.581 160.916 315.36 161.206C315.033 161.636 315.931 161.874 316.383 161.904C316.636 161.926 316.888 161.966 317.136 162.021C317.518 162.108 317.916 162.108 318.299 162.021C318.547 161.966 318.798 161.926 319.052 161.904C319.503 161.874 320.294 161.696 320.074 161.206C319.982 161 318.806 160.529 317.595 160.535Z" fill="#E68969"/>
<path fill-rule="evenodd" clip-rule="evenodd" d="M352.931 215.39C342.907 218.743 327.2 223.976 324.785 222.243C322.493 220.555 319.674 219.673 316.794 219.743C314.171 219.747 316.987 221.842 313.885 222.243C312.05 222.479 306.619 222.58 306.455 223.273C306.117 224.687 307.773 224.697 309.673 224.609C309.581 224.821 309.546 225.053 309.571 225.283C309.597 225.512 309.683 225.731 309.82 225.92C309.957 226.109 310.142 226.26 310.357 226.361C310.572 226.461 310.809 226.507 311.047 226.495C311.033 226.75 311.074 227.005 311.167 227.244C311.26 227.483 311.403 227.7 311.588 227.883C311.773 228.065 311.995 228.208 312.24 228.303C312.485 228.398 312.748 228.443 313.011 228.434C313.071 229.946 314.209 230.397 316.233 230.068C318.389 229.719 321.872 229.855 327.729 229.018C335.398 227.925 351.188 230.279 361.256 221.837C363.333 220.096 362.4 217.34 361.65 216.855C358.567 214.873 356.37 214.245 352.931 215.39Z" fill="#FFA578"/>
<path fill-rule="evenodd" clip-rule="evenodd" d="M360.28 216.035C360.011 216.871 359.546 217.637 358.922 218.271C358.298 218.905 357.53 219.392 356.68 219.692C351.772 221.491 347.765 223.467 342.596 224.123C339.078 224.569 335.05 225.33 331.636 226.719C327.686 228.323 320.196 227.9 318.339 227.525C315.843 227.022 313.948 225.6 312.338 223.851C310.369 224.098 308.372 224.045 306.42 223.695C306.502 224.684 307.987 224.684 309.673 224.608C309.58 224.821 309.545 225.053 309.57 225.283C309.596 225.512 309.681 225.732 309.819 225.92C309.956 226.109 310.141 226.261 310.356 226.361C310.571 226.462 310.809 226.507 311.047 226.494C311.033 226.749 311.073 227.004 311.166 227.243C311.259 227.482 311.403 227.7 311.588 227.882C311.772 228.065 311.994 228.208 312.239 228.303C312.485 228.398 312.747 228.442 313.011 228.434C313.071 229.946 314.209 230.397 316.233 230.067C317.519 229.859 319.854 228.972 322.307 228.799C323.965 228.683 325.365 229.356 327.729 229.017C335.398 227.925 351.188 230.278 361.256 221.836C363.333 220.095 362.4 217.339 361.65 216.854C361.247 216.505 360.783 216.228 360.28 216.035Z" fill="#E68969"/>
<path d="M327.736 134.358C326.72 132.417 325.164 130.789 323.243 129.657C321.323 128.525 319.113 127.934 316.864 127.952C306.957 127.952 300.898 135.705 300.898 142.49C300.898 148.432 302.175 150.966 301.503 156.207C312.085 144.206 318.831 140.082 318.831 140.082C318.198 142.09 314.765 147.107 314.765 147.107C318.329 145.653 321.609 143.617 324.461 141.088C329.344 144.895 330.16 152.399 330.16 152.399C333.388 149.069 335.125 144.7 334.303 140.416C333.347 135.445 327.736 134.358 327.736 134.358Z" fill="#FE8046"/>
<path d="M301.502 156.207C312.084 144.206 318.83 140.08 318.83 140.08C318.197 142.09 314.764 147.105 314.764 147.105C316.996 146.248 320.198 142.079 321.475 138.246C309.437 138.246 301.515 156.1 301.502 156.207Z" fill="#EB4201"/>
<path d="M333.477 138.246C335.094 141.908 333.638 146.927 329.108 148.078C329.605 149.481 329.958 150.927 330.161 152.397C333.389 149.067 335.125 144.698 334.303 140.414C334.157 139.651 333.877 138.918 333.477 138.246Z" fill="#4497B7"/>
<path d="M317.189 129.678C312.505 129.682 308.014 131.484 304.701 134.688C301.389 137.891 299.526 142.235 299.521 146.766H301.134C301.14 142.649 302.833 138.703 305.842 135.792C308.852 132.881 312.933 131.243 317.189 131.239C321.444 131.244 325.524 132.881 328.534 135.792C331.543 138.703 333.235 142.65 333.239 146.766H334.853C334.848 142.236 332.986 137.892 329.674 134.689C326.363 131.485 321.872 129.683 317.189 129.678Z" fill="white"/>
<path d="M298.196 147.43H298.408C298.816 147.43 299.207 147.586 299.495 147.865C299.784 148.144 299.946 148.523 299.946 148.917V155.877C299.946 156.272 299.784 156.65 299.495 156.929C299.207 157.208 298.816 157.365 298.408 157.365H298.197C297.995 157.365 297.795 157.327 297.608 157.252C297.421 157.177 297.252 157.067 297.109 156.929C296.966 156.791 296.853 156.627 296.775 156.446C296.698 156.266 296.658 156.072 296.658 155.877V148.917C296.658 148.523 296.82 148.144 297.109 147.865C297.397 147.586 297.788 147.43 298.196 147.43V147.43Z" fill="#CECDD3"/>
<path d="M300.142 145.84H299.93C299.728 145.84 299.528 145.878 299.341 145.953C299.154 146.027 298.984 146.137 298.841 146.275C298.698 146.413 298.584 146.577 298.507 146.758C298.429 146.939 298.389 147.132 298.389 147.328V157.468C298.39 157.863 298.552 158.241 298.841 158.521C299.13 158.8 299.522 158.957 299.93 158.957H300.142C300.55 158.956 300.941 158.799 301.229 158.52C301.518 158.241 301.68 157.862 301.68 157.468V147.326C301.679 146.932 301.517 146.554 301.229 146.275C300.94 145.997 300.549 145.84 300.142 145.84Z" fill="#2B1BED"/>
<path d="M333.246 159.338C332.689 160.952 331.62 162.355 330.192 163.349C328.764 164.343 327.049 164.877 325.29 164.876H321.476V165.656H325.29C327.219 165.658 329.099 165.072 330.664 163.982C332.23 162.892 333.401 161.354 334.012 159.584L334.389 158.505L333.623 158.258L333.246 159.338Z" fill="#181F79"/>
<path d="M335.922 147.43H335.711C334.861 147.43 334.173 148.096 334.173 148.917V155.877C334.173 156.699 334.861 157.365 335.711 157.365H335.922C336.772 157.365 337.46 156.699 337.46 155.877V148.917C337.46 148.096 336.772 147.43 335.922 147.43Z" fill="#CECDD3"/>
<path d="M334.188 145.84H333.98C333.778 145.84 333.578 145.878 333.391 145.953C333.204 146.027 333.034 146.137 332.891 146.275C332.748 146.413 332.634 146.577 332.557 146.758C332.479 146.939 332.439 147.132 332.439 147.328V157.468C332.439 157.863 332.602 158.241 332.891 158.521C333.18 158.8 333.572 158.957 333.98 158.957H334.188C334.597 158.957 334.989 158.8 335.278 158.521C335.567 158.241 335.729 157.863 335.73 157.468V147.326C335.729 146.931 335.566 146.553 335.277 146.274C334.988 145.996 334.597 145.839 334.188 145.84Z" fill="#2B1BED"/>
<path d="M321.475 164.094C321.154 164.094 320.845 164.217 320.618 164.437C320.39 164.657 320.262 164.955 320.262 165.266C320.262 165.42 320.293 165.573 320.354 165.715C320.415 165.858 320.505 165.987 320.617 166.096C320.73 166.205 320.864 166.291 321.011 166.35C321.158 166.409 321.316 166.439 321.475 166.439C321.634 166.438 321.792 166.408 321.939 166.349C322.086 166.29 322.219 166.204 322.332 166.095C322.444 165.986 322.533 165.857 322.594 165.715C322.655 165.572 322.686 165.42 322.686 165.266C322.686 164.955 322.558 164.658 322.331 164.438C322.104 164.218 321.797 164.094 321.475 164.094Z" fill="#B88704"/>
<path d="M293.97 245.967H288.202V372.103H293.97V245.967Z" fill="#FE8046"/>
<path d="M295.877 245.967H293.97V372.104H295.877V245.967Z" fill="#EB4201"/>
<path d="M407.301 245.967H401.529V372.103H407.301V245.967Z" fill="#FE8046"/>
<path d="M409.206 245.967H407.302V372.104H409.206V245.967Z" fill="#EB4201"/>
<path d="M363.822 234.086H129.115V242.122H363.822V234.086Z" fill="#F5C825"/>
<path d="M439.072 234.086H359.583V242.122H439.072V234.086Z" fill="#B88704"/>
<path d="M329.287 242.016H129.115V246.922H329.287V242.016Z" fill="#FE8046"/>
<path d="M417.14 242.016H329.287V246.922H417.14V242.016Z" fill="#EB4201"/>
<path d="M265.659 133.203H153.375C152.364 133.203 151.365 133.407 150.44 133.8C149.515 134.194 148.685 134.77 148.002 135.49C147.319 136.211 146.799 137.061 146.474 137.986C146.149 138.912 146.027 139.893 146.115 140.867L152.369 210.17C152.527 211.927 153.361 213.562 154.705 214.754C156.049 215.945 157.805 216.606 159.629 216.607H271.91C272.921 216.607 273.921 216.404 274.846 216.01C275.771 215.617 276.602 215.041 277.285 214.321C277.968 213.6 278.488 212.75 278.813 211.824C279.139 210.898 279.261 209.917 279.173 208.943L272.919 139.64C272.76 137.883 271.927 136.247 270.583 135.056C269.239 133.864 267.482 133.203 265.659 133.203Z" fill="#181F79"/>
<path d="M262.8 133.199H150.521C149.51 133.2 148.51 133.403 147.584 133.797C146.658 134.192 145.828 134.767 145.144 135.489C144.461 136.21 143.94 137.061 143.615 137.987C143.29 138.913 143.167 139.894 143.255 140.869L149.503 210.166C149.66 211.925 150.495 213.562 151.841 214.754C153.187 215.946 154.947 216.606 156.772 216.603H269.051C270.061 216.604 271.061 216.402 271.986 216.009C272.912 215.616 273.743 215.041 274.426 214.321C275.109 213.601 275.63 212.751 275.956 211.826C276.281 210.9 276.404 209.919 276.317 208.945C276.317 208.945 269.993 139.163 269.946 138.925C269.631 137.315 268.744 135.862 267.44 134.816C266.135 133.771 264.494 133.199 262.8 133.199Z" fill="#2B1BED"/>
<path d="M238.194 152.006H163.469C163.112 152.004 162.759 152.075 162.433 152.214C162.107 152.353 161.814 152.556 161.574 152.811C161.331 153.064 161.146 153.364 161.031 153.692C160.916 154.019 160.873 154.366 160.906 154.71L165.064 200.827C165.118 201.448 165.411 202.026 165.886 202.446C166.361 202.867 166.983 203.099 167.627 203.096H242.352C242.708 203.097 243.06 203.026 243.386 202.887C243.713 202.749 244.006 202.547 244.247 202.294C244.488 202.04 244.671 201.741 244.786 201.415C244.902 201.089 244.945 200.743 244.915 200.4C244.915 200.4 240.874 155.851 240.687 153.938C240.561 153.389 240.245 152.899 239.792 152.548C239.338 152.196 238.775 152.005 238.194 152.006Z" fill="#5342F2"/>
<path d="M204.343 191.062C213.223 191.062 215.71 200.345 215.71 200.345H219.83C215.145 188.777 204.343 191.062 204.343 191.062Z" fill="#181F79"/>
<path d="M178.128 232.102C178.129 232.629 178.345 233.133 178.73 233.505C179.114 233.878 179.636 234.087 180.18 234.087H203.398V230.117H180.179C179.635 230.117 179.113 230.327 178.729 230.699C178.344 231.071 178.128 231.576 178.128 232.102Z" fill="white"/>
<path d="M215.926 203.468C216.085 201.994 215.941 200.505 215.503 199.085C215.065 197.665 214.341 196.343 213.374 195.194C212.407 194.045 211.215 193.092 209.866 192.389C208.517 191.687 207.039 191.249 205.514 191.1C203.99 190.951 202.451 191.095 200.984 191.522C199.518 191.95 198.153 192.653 196.968 193.592C195.783 194.531 194.801 195.687 194.078 196.993C193.356 198.3 192.907 199.731 192.757 201.206L190.838 219.812C190.781 220.377 190.855 220.948 191.053 221.483C191.252 222.018 191.57 222.504 191.985 222.905L199.425 230.115H222.14L214.158 220.192L215.926 203.468Z" fill="#CECDD3"/>
<path d="M217.251 220.099L219.829 200.344H215.81L213.203 219.811C213.147 220.377 213.22 220.948 213.419 221.482C213.617 222.017 213.935 222.503 214.35 222.905L221.805 230.115H202.545C202.001 230.115 201.48 230.324 201.095 230.696C200.71 231.068 200.494 231.573 200.494 232.099C200.494 232.625 200.71 233.13 201.095 233.502C201.48 233.874 202.001 234.083 202.545 234.083H222.105C223.021 234.084 223.909 233.779 224.62 233.22C225.33 232.66 225.819 231.881 226.004 231.013C226.129 230.361 226.085 229.689 225.874 229.057C225.664 228.426 225.295 227.855 224.8 227.396L217.251 220.099Z" fill="#181F79"/>
<path d="M204.342 198.287C203.468 198.287 202.613 198.538 201.886 199.008C201.16 199.478 200.593 200.146 200.259 200.928C199.924 201.709 199.837 202.569 200.007 203.398C200.178 204.228 200.599 204.99 201.218 205.588C201.836 206.186 202.624 206.593 203.481 206.758C204.339 206.923 205.228 206.838 206.036 206.514C206.843 206.191 207.534 205.642 208.02 204.939C208.505 204.236 208.765 203.409 208.765 202.564C208.765 202.002 208.65 201.446 208.428 200.927C208.206 200.408 207.88 199.936 207.469 199.539C207.059 199.142 206.571 198.827 206.035 198.612C205.498 198.397 204.923 198.287 204.342 198.287Z" fill="#5342F2"/>
<path d="M438.199 76.6133H348.882C348.065 76.6133 347.257 76.769 346.502 77.0713C345.748 77.3736 345.063 77.8166 344.486 78.3751C343.908 78.9336 343.45 79.5966 343.138 80.3263C342.826 81.056 342.665 81.838 342.665 82.6277V111.051L329.571 127.338L342.665 127.3V135.286C342.665 136.881 343.32 138.411 344.485 139.539C345.651 140.667 347.232 141.302 348.882 141.302H438.199C439.849 141.302 441.43 140.667 442.596 139.539C443.761 138.411 444.416 136.881 444.416 135.286V82.6277C444.416 81.0328 443.761 79.5032 442.595 78.3753C441.43 77.2474 439.848 76.6136 438.199 76.6133Z" fill="#5342F2"/>
<path d="M430.902 103.467H415.762V106.091H430.902V103.467Z" fill="#5CCFFE"/>
<path d="M404.66 103.467H368.668V106.091H404.66V103.467Z" fill="#5CCFFE"/>
<path d="M361.805 103.467H356.21V106.091H361.805V103.467Z" fill="#5CCFFE"/>
<path d="M380.243 97.3652H356.21V99.9889H380.243V97.3652Z" fill="#5CCFFE"/>
<path d="M430.903 97.3652H426.972V99.9889H430.903V97.3652Z" fill="#5CCFFE"/>
<path d="M421.354 97.3652H388.851V99.9889H421.354V97.3652Z" fill="#5CCFFE"/>
<path d="M430.902 121.549H415.762V124.174H430.902V121.549Z" fill="#5CCFFE"/>
<path d="M404.66 121.549H368.668V124.174H404.66V121.549Z" fill="#5CCFFE"/>
<path d="M361.805 121.549H356.21V124.174H361.805V121.549Z" fill="#5CCFFE"/>
<path d="M380.243 115.449H356.21V118.073H380.243V115.449Z" fill="#5CCFFE"/>
<path d="M430.903 115.449H426.972V118.073H430.903V115.449Z" fill="#5CCFFE"/>
<path d="M421.354 115.449H388.851V118.073H421.354V115.449Z" fill="#5CCFFE"/>
<path d="M430.902 109.346H412.272V111.971H430.902V109.346Z" fill="#5CCFFE"/>
<path d="M405.656 109.346H356.21V111.971H405.656V109.346Z" fill="#5CCFFE"/>
<path d="M430.902 127.43H412.272V130.055H430.902V127.43Z" fill="#5CCFFE"/>
<path d="M405.656 127.43H356.21V130.055H405.656V127.43Z" fill="#5CCFFE"/>
<path d="M361.386 86.5218L360.167 84.125L358.943 86.5218L356.21 86.9059L358.187 88.7703L357.721 91.4034L360.167 90.1608L362.61 91.4034L362.143 88.7703L364.12 86.9059L361.386 86.5218Z" fill="#7FCCFF"/>
<path d="M371.933 86.5218L370.711 84.125L369.488 86.5218L366.755 86.9059L368.735 88.7703L368.268 91.4034L370.711 90.1608L373.157 91.4034L372.691 88.7703L374.667 86.9059L371.933 86.5218Z" fill="#7FCCFF"/>
<path d="M382.478 86.5218L381.258 84.125L380.035 86.5218L377.302 86.9059L379.278 88.7703L378.812 91.4034L381.258 90.1608L383.701 91.4034L383.235 88.7703L385.214 86.9059L382.478 86.5218Z" fill="#7FCCFF"/>
<path d="M393.025 86.5218L391.802 84.125L390.58 86.5218L387.847 86.9059L389.826 88.7703L389.36 91.4034L391.803 90.1608L394.249 91.4034L393.783 88.7703L395.759 86.9059L393.025 86.5218Z" fill="#7FCCFF"/>
<path d="M403.572 86.5218L402.349 84.125L401.126 86.5218L398.394 86.9059L400.37 88.7703L399.904 91.4034L402.35 90.1608L404.793 91.4034L404.326 88.7703L406.306 86.9059L403.572 86.5218Z" fill="white"/>
<path d="M401.877 216.803C400.762 216.803 399.672 217.122 398.745 217.722C397.818 218.321 397.096 219.172 396.669 220.168C396.243 221.165 396.131 222.261 396.349 223.318C396.566 224.376 397.103 225.347 397.891 226.11C398.679 226.872 399.684 227.391 400.777 227.602C401.87 227.812 403.004 227.704 404.034 227.292C405.064 226.879 405.944 226.18 406.563 225.284C407.183 224.387 407.513 223.333 407.513 222.255C407.512 220.809 406.917 219.423 405.861 218.401C404.804 217.379 403.371 216.804 401.877 216.803ZM401.877 226.09C401.092 226.09 400.326 225.865 399.674 225.444C399.021 225.022 398.513 224.423 398.213 223.722C397.913 223.022 397.834 222.25 397.987 221.506C398.14 220.762 398.518 220.079 399.073 219.542C399.627 219.006 400.334 218.641 401.103 218.493C401.872 218.345 402.67 218.421 403.394 218.711C404.119 219.001 404.738 219.493 405.174 220.124C405.609 220.754 405.842 221.496 405.842 222.255C405.841 223.272 405.423 224.247 404.68 224.966C403.936 225.685 402.928 226.089 401.877 226.09Z" fill="#B88704"/>
<path d="M383.47 224.092C383.489 226.425 384.46 228.657 386.172 230.3C387.884 231.944 390.198 232.866 392.61 232.866C395.022 232.866 397.336 231.944 399.048 230.3C400.761 228.657 401.732 226.425 401.75 224.092V213.139H383.47V224.092Z" fill="#F5C825"/>
<path d="M396.975 222.687C396.975 226.535 393.725 229.384 389.88 229.55C387.219 229.665 384.861 228.029 383.65 225.824C384.093 227.977 385.349 229.893 387.171 231.2C388.994 232.507 391.255 233.111 393.513 232.895C395.771 232.679 397.865 231.658 399.388 230.031C400.911 228.404 401.753 226.287 401.752 224.092V213.139H396.976L396.975 222.687Z" fill="#B88704"/>
<path d="M378.909 289.312C377.891 289.312 383.843 291.72 384.451 291.72H400.779C401.385 291.72 407.326 289.211 406.317 289.312C393.031 290.643 378.909 289.312 378.909 289.312Z" fill="#F5C825"/>
</g>
<defs>
<clipPath id="clip0_81_2738">
<rect width="582" height="562" fill="white"/>
</clipPath>
</defs>
</svg>
