<svg width="192" height="192" viewBox="0 0 192 192" fill="none" xmlns="http://www.w3.org/2000/svg">
<path d="M96 180C142.392 180 180 142.392 180 96C180 49.6081 142.392 12 96 12C49.6081 12 12 49.6081 12 96C12 142.392 49.6081 180 96 180Z" fill="#028CB0"/>
<path d="M38.7323 96C38.7323 118.694 51.9323 138.24 71.0214 147.531L43.7077 72.6972C40.4279 80.028 38.7325 87.969 38.7323 96ZM96 153.268C102.651 153.268 109.048 152.1 115.039 150.019L114.632 149.257L97.0152 101.026L79.8552 150.932C84.9324 152.455 90.3648 153.268 96 153.268ZM103.869 69.1428L124.583 130.726L130.32 111.637C132.757 103.717 134.635 98.031 134.635 93.1062C134.635 85.9986 132.097 81.1248 129.965 77.3676C127.02 72.5952 124.329 68.5848 124.329 63.9138C124.329 58.6339 128.289 53.76 133.975 53.76H134.686C124.134 44.0728 110.324 38.7085 96 38.7323C86.5152 38.7305 77.1792 41.0866 68.8308 45.5885C60.483 50.0905 53.3848 56.5971 48.1754 64.5228L51.8308 64.6248C57.8215 64.6248 67.0614 63.8628 67.0614 63.8628C70.209 63.711 70.5648 68.229 67.4676 68.5848C67.4676 68.5848 64.371 68.991 60.8676 69.1428L81.7848 131.183L94.3248 93.6138L85.389 69.1428C83.388 69.0324 81.39 68.8632 79.3986 68.6352C76.3014 68.4324 76.6572 63.711 79.7538 63.8628C79.7538 63.8628 89.1972 64.6248 94.8324 64.6248C100.823 64.6248 110.063 63.8628 110.063 63.8628C113.16 63.711 113.566 68.229 110.469 68.5848C110.469 68.5848 107.372 68.94 103.869 69.1428ZM124.786 145.5C133.45 140.462 140.639 133.24 145.637 124.553C150.635 115.867 153.266 106.022 153.268 96C153.268 86.049 150.729 76.7076 146.261 68.5338C147.169 77.5266 145.807 86.6034 142.301 94.9338L124.786 145.5ZM96 162C78.4956 162 61.7082 155.047 49.331 142.669C36.9536 130.292 30 113.504 30 96C30 78.4956 36.9536 61.7082 49.331 49.331C61.7082 36.9536 78.4956 30 96 30C113.504 30 130.292 36.9536 142.669 49.331C155.047 61.7082 162 78.4956 162 96C162 113.504 155.047 130.292 142.669 142.669C130.292 155.047 113.504 162 96 162Z" fill="white"/>
</svg>
